<svg width="0" height="0" class="hidden">
  <symbol xmlns="http://www.w3.org/2000/svg" viewBox="0 0 72 73" id="delivery">
    <g clip-path="url(#clip0_335_798)">
      <path d="M54.3779 43.791C49.3735 43.791 45.3022 47.8622 45.3022 52.8667C45.3022 57.8711 49.3735 61.9423 54.3779 61.9423C59.3832 61.9423 63.4536 57.8711 63.4536 52.8667C63.4536 47.8622 59.3823 43.791 54.3779 43.791ZM54.3779 57.4045C51.8753 57.4045 49.8401 55.3692 49.8401 52.8667C49.8401 50.3641 51.8753 48.3288 54.3779 48.3288C56.8805 48.3288 58.9157 50.3641 58.9157 52.8667C58.9157 55.3694 56.8805 57.4045 54.3779 57.4045Z"></path>
      <path d="M23.3696 43.791C18.3652 43.791 14.2939 47.8622 14.2939 52.8667C14.2939 57.8711 18.3652 61.9423 23.3696 61.9423C28.374 61.9423 32.4453 57.8711 32.4453 52.8667C32.4453 47.8622 28.374 43.791 23.3696 43.791ZM23.3696 57.4045C20.867 57.4045 18.8318 55.3692 18.8318 52.8667C18.8318 50.3641 20.867 48.3288 23.3696 48.3288C25.8715 48.3288 27.9074 50.3641 27.9074 52.8667C27.9074 55.3694 25.8722 57.4045 23.3696 57.4045Z"></path>
      <path d="M60.49 17.8139C60.1042 17.0478 59.32 16.5645 58.4623 16.5645H46.5127V21.1023H57.0631L63.2413 33.3907L67.2966 31.3516L60.49 17.8139Z"></path>
      <path d="M47.5714 50.6733H30.4033V55.2112H47.5714V50.6733Z"></path>
      <path d="M16.563 50.6733H8.69756C7.44431 50.6733 6.42871 51.6891 6.42871 52.9422C6.42871 54.1954 7.44445 55.211 8.69756 55.211H16.5631C17.8164 55.211 18.832 54.1953 18.832 52.9422C18.832 51.6889 17.8162 50.6733 16.563 50.6733Z"></path>
      <path d="M71.5236 36.8028L67.0607 31.0549C66.632 30.5013 65.9702 30.1775 65.269 30.1775H48.7816V14.2952C48.7816 13.042 47.7659 12.0264 46.5127 12.0264H8.69755C7.4443 12.0264 6.42871 13.0421 6.42871 14.2952C6.42871 15.5483 7.44445 16.5641 8.69755 16.5641H44.2438V32.4464C44.2438 33.6996 45.2595 34.7152 46.5126 34.7152H64.158L67.4622 38.9717V50.6732H61.1849C59.9316 50.6732 58.916 51.689 58.916 52.9421C58.916 54.1953 59.9318 55.2109 61.1849 55.2109H69.7311C70.9843 55.2109 71.9999 54.1952 72 52.9421V38.1944C72 37.6907 71.8321 37.2006 71.5236 36.8028Z"></path>
      <path d="M16.412 39.1777H5.9749C4.72165 39.1777 3.70605 40.1935 3.70605 41.4466C3.70605 42.6998 4.72179 43.7154 5.9749 43.7154H16.4118C17.6651 43.7154 18.6807 42.6997 18.6807 41.4466C18.6808 40.1935 17.6651 39.1777 16.412 39.1777Z"></path>
      <path d="M21.6302 30.2534H2.26884C1.01573 30.2534 0 31.2692 0 32.5224C0 33.7757 1.01573 34.7912 2.26884 34.7912H21.6302C22.8835 34.7912 23.8991 33.7755 23.8991 32.5224C23.8991 31.2693 22.8835 30.2534 21.6302 30.2534Z"></path>
      <path d="M25.3363 21.3291H5.9749C4.72165 21.3291 3.70605 22.3448 3.70605 23.5979C3.70605 24.8512 4.72179 25.8668 5.9749 25.8668H25.3363C26.5895 25.8668 27.6051 24.8511 27.6051 23.5979C27.6053 22.3448 26.5895 21.3291 25.3363 21.3291Z"></path>
    </g>
    <defs>
      <clipPath id="clip0_335_798">
        <rect width="72" height="72" fill="white" transform="translate(0 0.984375)"></rect>
      </clipPath>
    </defs>
  </symbol>
  <symbol xmlns="http://www.w3.org/2000/svg" viewBox="0 0 72 73" id="handshake">
    <path d="M65.9587 9.16315C57.6416 0.799086 43.9153 1.21487 35.9966 9.90899C28.0772 1.21517 14.3516 0.798932 6.03445 9.1633C-2.23621 17.3998 -1.95446 30.9628 6.56717 38.9125C2.20749 43.0763 4.70509 50.5584 10.6391 51.2878C10.2836 55.3511 13.7421 59.0773 17.8329 59.0082C18.0837 63.4813 22.5733 66.6832 26.8776 65.5011C28.2897 70.8302 35.0781 72.6512 38.9726 68.729C41.1844 66.5304 42.9434 65.1439 43.0556 61.814C46.7103 61.7122 49.8725 58.507 49.9282 54.8544C53.6181 54.7975 56.8329 51.5816 56.8897 47.8928C60.7176 47.8346 64.0366 44.3798 63.8584 40.4796L65.9584 38.3797C74.0136 30.3247 74.0136 17.2181 65.9587 9.16315ZM9.73353 42.2745L11.7059 40.3021C12.2157 39.7923 12.8851 39.5375 13.5548 39.5375C15.851 39.5223 17.0495 42.3612 15.4033 43.9995L13.4309 45.9719C10.8778 48.3224 7.38273 44.8288 9.73353 42.2745ZM15.2333 51.7812C15.2333 51.0827 15.5054 50.4261 15.9991 49.9323L17.9726 47.959C18.4663 47.4658 19.1224 47.1942 19.8203 47.1942C22.136 47.1902 23.3098 50.0225 21.6689 51.6574L19.9286 53.3978C19.3966 54.0007 18.6659 54.4086 17.8477 54.3955C16.4426 54.4245 15.2042 53.1865 15.2333 51.7812ZM23.1928 60.3593C22.1786 59.3861 22.1786 57.6351 23.1928 56.662L24.9332 54.9215C25.9478 53.7169 27.7291 53.5601 28.8628 54.6894C29.8821 55.7089 29.8821 57.3672 28.8628 58.3868L26.8902 60.3594C25.8709 61.3792 24.2123 61.379 23.1928 60.3593ZM37.6809 63.4924L35.7085 65.4648C35.2147 65.9586 34.5581 66.2306 33.8598 66.2306C33.1614 66.2306 32.5048 65.9586 32.011 65.4648C30.9969 64.4915 30.9964 62.7405 32.0111 61.7674L33.9834 59.795C35.0027 58.7755 36.6615 58.7755 37.6808 59.7948C38.6951 60.7681 38.6953 62.5191 37.6809 63.4924ZM58.479 42.5203C57.5057 43.5345 55.7547 43.5347 54.7816 42.5203L44.5091 32.2478L41.2449 35.5121L51.5173 45.7845C52.5366 46.804 52.5366 48.4625 51.5173 49.4819C50.4979 50.5016 48.8394 50.5013 47.82 49.4819L37.7217 39.3836L37.5475 39.2094L34.2833 42.4737L34.4575 42.6479L44.5557 52.7461C45.5752 53.7656 45.5752 55.4242 44.5557 56.4437C43.5363 57.4631 41.8776 57.4631 40.8582 56.4437L40.8562 56.4457C38.9806 54.6324 36.3593 54.0353 33.9917 54.6545C33.238 51.5748 30.1421 49.2432 27.0288 49.3111C26.8779 45.9962 24.0755 43.0018 20.7637 42.644C21.2007 36.9567 14.9545 33.04 10.0251 35.8417C3.16 29.7093 2.73714 18.9441 9.29898 12.4274C15.8231 5.85753 26.6029 6.29285 32.7327 13.1732L27.0259 18.88L31.5987 23.4528C35.1113 26.9656 40.5241 27.449 44.5599 24.9032L58.4794 38.8229C59.4982 39.8422 59.4983 41.5008 58.479 42.5203ZM62.6945 35.1155L61.9911 35.8187C61.9109 35.7304 61.8283 35.6436 61.7433 35.5587L44.7413 18.5565L43.1091 20.1885C40.8357 22.4619 37.1365 22.4622 34.8626 20.1885L33.5541 18.88L40.0066 12.4274C55.6808 -1.99919 77.1179 19.4515 62.6945 35.1155Z"></path>
  </symbol>
  <symbol xmlns="http://www.w3.org/2000/svg" viewBox="0 0 72 73" id="verified">
    <g clip-path="url(#clip0_335_829)">
      <path d="M64.641 12.5649L37.0785 1.12125C36.388 0.834654 35.6119 0.834514 34.9215 1.12125L7.35905 12.5649C6.30928 13.0008 5.625 14.0257 5.625 15.1624V29.0737C5.625 48.2287 17.2025 65.459 34.9372 72.6977C35.6183 72.9757 36.3815 72.9757 37.0628 72.6977C54.7972 65.4592 66.375 48.2288 66.375 29.0737V15.1624C66.375 14.0257 65.6909 13.0008 64.641 12.5649ZM60.75 29.0737C60.75 45.3574 51.1875 60.3476 36 67.0388C21.2183 60.5263 11.25 45.7987 11.25 29.0737V17.04L36 6.76397L60.75 17.04V29.0737ZM32.8913 38.5538L44.98 26.4653C46.0783 25.367 47.859 25.3668 48.9575 26.4653C50.0559 27.5637 50.0557 29.3444 48.9573 30.4427L34.8801 44.52C33.7815 45.6185 32.0008 45.6181 30.9026 44.52L23.0425 36.6599C21.9441 35.5614 21.9441 33.7807 23.0425 32.6824C24.141 31.5841 25.9217 31.584 27.02 32.6824L32.8913 38.5538Z"></path>
    </g>
    <defs>
      <clipPath id="clip0_335_829">
        <rect width="72" height="72" fill="white" transform="translate(0 0.90625)"></rect>
      </clipPath>
    </defs>
  </symbol>
  <symbol id="close" xmlns="http://www.w3.org/2000/svg" xmlns:xlink="http://www.w3.org/1999/xlink" x="0px" y="0px" viewBox="0 0 200.2 200">
    <path d="M194.8,30.1L125,100l69.9,69.9l0,0c3.2,3.2,5.2,7.6,5.2,12.5c0,9.7-7.9,17.6-17.6,17.6
	c-4.9,0-9.3-2-12.5-5.2l0,0L100,125l-69.9,69.9l0,0c-3.2,3.2-7.6,5.2-12.5,5.2C7.9,200,0,192.1,0,182.4c0-4.9,2-9.3,5.2-12.5l0,0
	L75,100L5.2,30.1l0,0C2,26.9,0,22.5,0,17.6C0,7.9,7.9,0,17.6,0c4.9,0,9.3,2,12.5,5.2l0,0L100,75l69.9-69.9l0,0
	C173.1,2,177.5,0,182.4,0c9.7,0,17.6,7.9,17.6,17.6C200,22.5,198,26.9,194.8,30.1L194.8,30.1z"></path>
  </symbol>
  
  <symbol id="menu" xmlns="http://www.w3.org/2000/svg" xmlns:xlink="http://www.w3.org/1999/xlink" x="0px" y="0px" viewBox="0 0 200 200">
    <path d="M179.4,86.7h-159c-7.3,0-13.3,6-13.3,13.3c0,7.3,6,13.3,13.3,13.3h159c7.3,0,13.3-6,13.3-13.3
	C192.7,92.7,186.7,86.7,179.4,86.7L179.4,86.7z M179.3,146.6h-159c-7.3,0-13.3,6-13.3,13.3c0,7.3,6,13.3,13.3,13.3h159
	c7.3,0,13.3-6,13.3-13.3C192.6,152.6,186.7,146.6,179.3,146.6z M179.5,27.4h-159c-7.3,0-13.3,6-13.3,13.3c0,7.3,6,13.3,13.3,13.3
	h159c7.3,0,13.3-6,13.3-13.3C192.9,33.4,186.9,27.4,179.5,27.4L179.5,27.4z"></path>
  </symbol>
  <symbol id="menu2" xmlns="http://www.w3.org/2000/svg" xmlns:xlink="http://www.w3.org/1999/xlink" x="0px" y="0px" viewBox="0 0 200 200">
    <path d="M179.3,27.4H60.5c-7.3,0-13.3,6-13.3,13.3S53.2,54,60.5,54h118.8c7.3,0,13.3-6,13.3-13.3
	S186.6,27.4,179.3,27.4z M179.3,86.8H60.5c-7.3,0-13.3,6-13.3,13.3s6,13.3,13.3,13.3h118.8c7.3,0,13.3-6,13.3-13.3
	C192.6,92.7,186.6,86.7,179.3,86.8L179.3,86.8z M179.3,146.6H60.5c-7.3,0-13.3,6-13.3,13.3c0,7.3,6,13.3,13.3,13.3h118.8
	c7.3,0,13.3-6,13.3-13.3C192.6,152.6,186.6,146.6,179.3,146.6z M20.4,27.6c-7.2,0-13.1,5.9-13.1,13.1v0.4c0,7.2,5.9,13.1,13.1,13.1
	c7.2,0,13.1-5.9,13.1-13.1v-0.4C33.6,33.5,27.7,27.6,20.4,27.6z M20.4,87c-7.2,0-13.1,5.9-13.1,13.1v0.4c0,7.2,5.9,13.1,13.1,13.1
	c7.2,0,13.1-5.9,13.1-13.1v-0.4C33.6,92.9,27.7,87,20.4,87z M20.4,146.9c-7.2,0-13.1,5.9-13.1,13.1v0.4c0,7.2,5.9,13.1,13.1,13.1
	c7.2,0,13.1-5.9,13.1-13.1V160C33.6,152.8,27.7,146.9,20.4,146.9z"></path>
  </symbol>

  <symbol xmlns="http://www.w3.org/2000/svg" xmlns:xlink="http://www.w3.org/1999/xlink" viewBox="0 0 1024 1024" id="quit">
    <path d="M887.3 492.3L759.8 333c-6.2-7.7-15.4-12-24.9-12-3.5 0-7.1 0.6-10.5 1.8-12.8 4.5-21.3 16.6-21.3 30.1v95.6h-255c-35.2 0-63.7 28.5-63.7 63.7s28.5 63.7 63.7 63.7H703v95.6c0 13.5 8.6 25.6 21.3 30.1 3.5 1.2 7 1.8 10.5 1.8 9.5 0 18.7-4.3 24.9-12L887.2 532c9.4-11.5 9.4-28 0.1-39.7zM575.5 767.2H320.1c-34.9 0-63.3-28.5-63.3-63.7V321v-0.5c0-34.9 28.5-63.2 63.8-63.2h254.9c35.2 0 63.8-28.5 63.8-63.7s-28.5-63.7-63.8-63.7H256.8c-70.4 0-127.5 57.1-127.5 127.5v510c0 70.4 57.1 127.5 127.5 127.5h318.7c35.2 0 63.8-28.5 63.8-63.7 0-35.4-28.6-64-63.8-64z m0 0"></path>
  </symbol>
  <symbol id="failed" xmlns="http://www.w3.org/2000/svg" xmlns:xlink="http://www.w3.org/1999/xlink" x="0px" y="0px" viewBox="0 0 200 200">
    <path d="M100,12.8c-48.2,0-87.2,39.1-87.2,87.2c0,48.2,39.1,87.2,87.2,87.2s87.2-39.1,87.2-87.2
	C187.2,51.8,148.2,12.8,100,12.8L100,12.8z M140,124.6c1.3,1.3,1.3,3.5,0,4.8L129.4,140c-1.3,1.3-3.5,1.3-4.8,0L100,115.4L75.4,140
	c-1.3,1.3-3.5,1.3-4.8,0L60,129.4c-1.3-1.3-1.3-3.5,0-4.8L84.6,100L60,75.4c-1.3-1.3-1.3-3.5,0-4.8L70.6,60c1.3-1.3,3.5-1.3,4.8,0
	L100,84.6L124.6,60c1.3-1.3,3.5-1.3,4.8,0L140,70.6c1.3,1.3,1.3,3.5,0,4.8L115.4,100L140,124.6L140,124.6z"></path>
  </symbol>
  <symbol id="success-fill" xmlns="http://www.w3.org/2000/svg" xmlns:xlink="http://www.w3.org/1999/xlink" x="0px" y="0px" viewBox="0 0 200 200">
    <path d="M164.9,100c0,35.8-29.1,64.9-64.9,64.9S35.1,135.8,35.1,100S64.2,35.1,100,35.1
	S164.9,64.2,164.9,100z M136.6,83.9l-7.9-7.9c-0.5-0.5-1.4-0.5-1.9,0c0,0,0,0,0,0l-37.5,37.5L73.4,97.7c-0.5-0.5-1.4-0.5-1.9,0
	c0,0,0,0,0,0l-7.9,7.9c-0.5,0.5-0.5,1.4,0,1.9c0,0,0,0,0,0l25.6,25.6l47.3-47.3C137.1,85.3,137.1,84.5,136.6,83.9
	C136.6,84,136.6,84,136.6,83.9L136.6,83.9z"></path>
  </symbol>
  <symbol xmlns="http://www.w3.org/2000/svg" viewBox="0 0 1024 1024" id="success-fill2">
    <path d="M725.333 318.293L442.88 630.613 322.987 512a34.133 34.133 0 0 0-48.214 48.213L419.84 705.28a34.133 34.133 0 0 0 49.493 0l306.774-338.773a34.133 34.133 0 1 0-50.774-48.214zM512 981.333A469.333 469.333 0 1 1 981.333 512 469.333 469.333 0 0 1 512 981.333z"></path>
  </symbol>
  <symbol id="success" xmlns="http://www.w3.org/2000/svg" xmlns:xlink="http://www.w3.org/1999/xlink" x="0px" y="0px" viewBox="0 0 200 200">
    <path d="M100,0C45,0,0,45,0,100s45,100,100,100s100-45,100-100S155,0,100,0z M100,187.5
	c-48.8,0-87.5-40-87.5-87.5c0-48.8,40-87.5,87.5-87.5c48.8,0,87.5,38.8,87.5,87.5S148.8,187.5,100,187.5z M135,66.3l-46.3,46.3
	L65,88.8c-3.8-3.8-10-3.8-15,0c-2.5,5-2.5,11.3,1.3,15l30,30c3.8,3.8,10,3.8,13.8,0l10-10L148.8,80c3.8-3.8,5-10,0-13.8
	C145,62.5,138.8,62.5,135,66.3z"></path>
  </symbol>
  <symbol xmlns="http://www.w3.org/2000/svg" viewBox="0 0 1024 1024" id="success2">
    <path d="M469.333333 640l0.384 0.384L469.333333 640z m-106.282666 0l-0.384 0.384 0.384-0.384z m48.512 106.666667a87.466667 87.466667 0 0 1-61.653334-24.874667l-179.52-173.632a67.797333 67.797333 0 0 1 0-98.24c28.032-27.157333 73.493333-27.157333 101.589334 0l139.584 134.997333 319.168-308.544c28.032-27.157333 73.493333-27.157333 101.589333 0a67.925333 67.925333 0 0 1 0 98.24L472.981333 722.069333A87.530667 87.530667 0 0 1 411.562667 746.666667z"></path>
  </symbol>
  <symbol id="cmc" xmlns="http://www.w3.org/2000/svg" xmlns:xlink="http://www.w3.org/1999/xlink" x="0px" y="0px" viewBox="0 0 200 200">
    <path d="M171.3,119.5c-3.5,2.2-7.6,2.5-10.7,0.7c-4-2.2-6.1-7.5-6.1-14.8V83.6c0-10.5-4.2-18-11.1-20.1
	c-11.8-3.4-20.7,11-24,16.4l-20.8,33.8V72.5c-0.2-9.5-3.3-15.2-9.2-16.9c-3.9-1.1-9.7-0.7-15.3,7.9l-46.6,74.9
	c-6.2-11.9-9.5-25.1-9.5-38.5c0-45.1,36.2-81.8,80.6-81.8c44.4,0,80.6,36.7,80.6,81.8c0,0.1,0,0.2,0,0.2c0,0.1,0,0.2,0,0.2
	C179.5,109.2,176.7,116.1,171.3,119.5L171.3,119.5z M197,100v-0.5C196.8,44.6,152.7,0,98.5,0C44.2,0,0,44.9,0,100s44.2,100,98.5,100
	c24.9,0,48.7-9.5,67-26.7c3.6-3.4,3.8-9.1,0.5-12.8c-3.3-3.6-8.9-3.9-12.5-0.6c0,0-0.1,0.1-0.1,0.1c-14.8,14-34.4,21.8-54.8,21.8
	c-23.8,0-45.2-10.5-60-27.2L80.6,87v31.1c0,15,5.8,19.8,10.7,21.2c4.9,1.4,12.3,0.4,20.1-12.2l23.1-37.5c0.7-1.1,1.3-2.1,2-3.2v19
	c0,14,5.6,25.2,15.4,30.7c8.8,5,19.9,4.5,28.9-1.2C191.7,128,197.6,115.3,197,100L197,100z"></path>
  </symbol>
  <symbol id="dex" xmlns="http://www.w3.org/2000/svg" xmlns:xlink="http://www.w3.org/1999/xlink" x="0px" y="0px" viewBox="0 0 120.6 145.3">
    <g>
      <path d="M95.9,78.1c-4.9-2.8-9.3-5.4-13.8-7.9c-1.4-0.8-2.2-1.6-2.1-3.3c0-1.6-0.2-3.3-0.4-4.9c1.6-0.2,3.2-0.4,4.7-0.7
		c11.3-2.2,16.6-12.4,11.8-22.8c-0.8-1.2-0.5-2.8,0.6-3.7c2.3-2.4,4.3-5.1,6.6-7.8c2.8,4.6,4.7,9.7,5.6,15c0.6,4,0.9,8,0.9,12
		c0.4,9.5,0.2,19,1,28.5c1,11.7,4.2,23.2,9.4,33.7c0.3,0.6,0.4,1.3,0.3,1.9l-15.6-12.5L93,124.7L80.5,113l-20,32.3l-20-32.3
		l-12.4,11.7l-11.9-19.3L0.3,118.2L0,118c0.6-1.4,1.3-2.7,1.9-4c6.8-14.8,9.4-30.4,9.4-46.6c0-6.8-0.1-13.6,0.2-20.3
		c0.3-7.2,2.7-13.8,6.3-20.1c2.6,3,5.1,5.8,7.4,8.8c0.4,0.6,0,2-0.3,2.8c-3.3,7.2-1.8,14.5,3.8,19c3.1,2.4,6.8,3.8,10.7,4.1
		c0.7,0,1.3,0.1,2,0.2c-0.1,2.1-0.1,4.1-0.4,6c-0.2,0.8-0.8,1.6-1.5,2c-4.5,2.7-9.1,5.3-13.6,7.9c-0.1,0.1-0.2,0.2-0.3,0.6
		c3,1.7,6,3.6,9.1,5.1c6,2.8,9.6,7.5,12.4,13.2c5.2,10.4,8.2,21.6,11.5,32.7c0.5,2,1.3,4,2.2,5.8c1.7-5.8,3.4-11.6,5.1-17.3
		c2.6-8.4,5.4-16.8,9.9-24.5c2.2-4,5.6-7.3,9.7-9.4C88.9,82.2,92.1,80.2,95.9,78.1z"></path>
      <path d="M13.9,8.5c2.5,1.8,4.9,3.7,7.6,5.4c2,1.3,3.8,1.1,5.8-0.8c18.9-17.7,48.3-17.5,67,0.4
		c1.4,1.3,2.7,1.6,4.2,0.8c1.6-0.8,3.1-1.6,4.6-2.6c1.3-1,2.5-2.2,4.1-3.2c-0.3,0.8-0.6,1.5-0.9,2.3c-3.9,8-9.9,14.4-16.4,20.3
		c-5.8,5.3-12.3,9.8-19.2,13.5c-1,0.7-2.3,0.6-3.3-0.1c-4.6-2.7-9.2-2.6-13.8,0.1c-0.7,0.4-1.6,0.5-2.4,0.2
		C37,37.2,24.9,27.3,16.3,13.6c-0.8-1.4-1.5-2.8-2.1-4.3C14.1,9,14,8.8,13.9,8.5z"></path>
      <path d="M79.7,78c-12,7-15.2,19.1-19.1,31.4C56.6,97.2,53.5,85,41.4,78c2-1.2,3.7-2.2,5.5-3.1c1.6-0.8,2.1-2,2.3-3.8
		c0.3-4.1,0.5-8.3,1.8-12.1c0.9-2.6,3.1-5,5.2-6.9c2.8-2.5,6.2-2.2,9.2,0.1c4.3,3.3,6,7.9,6.5,13.1c0.2,1.9,0.2,3.8,0.1,5.7
		c-0.2,1.6,0.7,3.2,2.1,3.9C76,75.7,77.7,76.8,79.7,78z"></path>
      <path d="M73.5,52l15.4-9.7c2.3,4.3,0.9,8.4-3.7,10.3C81.4,54.3,77.1,54,73.5,52z"></path>
      <path d="M47.6,51.9c-4.5,2.6-10.6,2.2-14-0.8c-2.6-2.3-3.1-5.1-1.4-8.9L47.6,51.9z"></path>
    </g>
  </symbol>
  <symbol id="telegram" xmlns="http://www.w3.org/2000/svg" xmlns:xlink="http://www.w3.org/1999/xlink" x="0px" y="0px" viewBox="0 0 125.2 110.2">
    <polygon points="120.7,3.2 6.3,47.7 4.7,52.8 35,63.6 45.6,97 49.8,100.8 67.3,84.5 96.9,106.4 102.8,105.4 
	" style="display:none"></polygon>
    <path id="_1-3" d="M114.4,1.9c-0.9,0.5-1.8,0.8-2.8,1c-1.2,0.1-2.2,0.5-3.1,1.3c-1,0.7-2.1,1.3-3.2,1.8
	c-1.6,0.7-3.3,1.2-5.1,1.5c-1.9,0.5-3.4,1.7-5.4,1.9c-1.2,0.1-2.4,0.5-3.5,1.2c-2.1,1.7-4.6,2.3-7.1,3.1c-2.4,0.8-4.7,1.7-6.9,2.8
	c-1,0.5-2,1.2-3.1,1.6c-4.2,1.6-8.7,2.5-12.6,5.1c-0.4,0.3-0.9,0.5-1.4,0.6c-2.4,0.6-4.7,1.4-7.1,2C49.9,26.7,47,28.5,44,30
	c-0.8,0.2-1.5,0.5-2.2,0.8c-1.6,1.2-3.4,2-5.4,2.4c-3.7,0.6-7.2,1.8-10.4,3.7c-2.2,1.1-4.4,2.1-6.8,2.9c-3,1-5.9,2.2-8.9,3.3
	c-2,0.7-3.5,2.5-5.9,2.3c-0.6,0.1-1.1,0.4-1.3,1c-0.4,1-0.8,1.9-1.3,2.8c-0.8,1.6-0.1,5.2,1.4,6.1C5,56.5,6.6,58,9,58.2
	s4.6,1.3,6.8,2.2c3.2,1.3,6.5,2.3,9.9,2.9c2.6,0.5,4.8,2,7.4,2.3c0.7,0.1,0.8,0.6,0.8,1.1c0.2,4.3,2.3,8.1,3.7,12
	c0.9,2.6,2.5,4.9,3.2,7.7c0.4,1.4,1,2.8,1.9,4c0.9,1.2,0.7,3.2,1.4,4.7c0.9,2.1,0.8,4.5,2.3,6.4c1,1.2,3.1,1.9,4.1,0.9
	s2.4-2,3.5-3.1c2.4-2.2,4.8-4.5,7.4-6.5c2.1-1.6,4.3-3.1,5.2-5.7c0.2-0.5,0.6-0.5,0.9,0c1.1,1.8,3.2,2.2,4.6,3.8
	c1,1.1,2.7,1.8,4.1,2.7c3.2,2,5.7,4.8,8.8,6.9c2.5,1.8,4.7,4.1,7.2,5.8c1.6,1.1,3.2,2.6,5.8,2.2c0.8,0.1,1.7,0,2.5-0.1
	c0.9,0,1.5-0.9,2.5-1c1.2-0.1,2.7-3.2,2.8-4.4c0.3-2.2,0.7-4.4,1.2-6.6s1.3-4.6,1.8-7c0.5-2.1,0.2-4.4,1-6.5c0.6-1.7-0.2-3.4,0.3-5
	c1.2-4.3,2.2-8.6,2.9-12.9c1-4.9,2.4-9.7,3-14.8c0.3-3.2,0.9-6.4,1.6-9.6c0.6-2.8,1.1-5.7,1.9-8.5c0.4-1.7,0.6-3.5,0.7-5.3
	c0.2-2,0.6-4.1,0.9-6.1c0.1-1.6,0.4-3.3,0.9-4.8c0.6-2.1,1-4.3,1.4-6.5c0.4-1.4,0.4-2.9,0-4.3C122.6,2.6,116.8,0.6,114.4,1.9z
	 M49,74.5c-0.3,3.1-0.3,6.3-0.5,9.4c-0.2,2-0.7,4-1.2,6.4c-1-2.3-1.9-4.6-2.5-7.1c-0.7-3.1-1.6-6.1-2.8-9c-0.5-1.3-1.2-2.6-1.7-3.9
	c-0.7-1.8-2-3.1-2.6-4.9c-0.2-0.7-0.1-0.7,0.4-1.1c1.8-1.7,4.4-2.2,6.3-3.6c2.5-1.9,5.7-2.4,8-4.7c1.9-2,4.7-2.7,7-4.1
	c2.6-1.6,5.5-3.1,7.6-5.1c3.1-3,7.4-4.2,10.2-7.5c2.8-0.4,4.4-3,7.3-4.4c-0.9,1.7-2.1,3.1-3.6,4.2c-1.9,1.7-3.2,3.9-5.2,5.5
	c-2.6,2.1-4.9,4.6-7.3,6.9s-5,4.3-7.2,6.8c-3.1,3.7-6.4,7.2-10,10.4C49.4,70,49.3,72.3,49,74.5z M62,85.5c-2.8,1.8-4.7,4.6-7.3,6.4
	c-0.8,0.6-0.8,1.9-2,2.1c-0.2,0-0.5,0.4-0.8-0.1c-0.1-0.2-0.2-0.5,0-0.6c1.3-1.1,0.8-2.8,1-4.2c0.4-2.6,0.3-5.3,0.9-7.9
	c0.2-1-0.5-2.1,0.5-3c0.4-0.4,0.7-0.6,0.9-0.2c0.7,1.3,3.1,0.8,3.1,2.8c1.8,0.1,2.3,2,3.7,2.6c0.4,0.1,0.7,0.4,0.8,0.9
	C62.8,84.8,62.5,85.3,62,85.5L62,85.5z M118.8,6.3c-0.4,1.6-0.6,3.2-0.6,4.8c-0.2,4.2-1.9,8-2.6,12.1c-0.4,3.2-1,6.3-1.8,9.4
	c-0.4,1.6,0,3.5-0.5,5.1c-0.8,2.8-0.9,5.8-1.7,8.6c-0.8,2.3-1.3,4.8-1.4,7.3c0,1.8-0.8,3.7-1.1,5.5c-0.6,3.9-1.1,7.9-1.9,11.8
	c-0.7,3.6-0.9,7.3-2.2,11c-0.8,2.3-0.6,5-1,7.5c-0.4,2.9-1,5.7-1.7,8.5c-0.4,1.1-0.7,2.3-0.6,3.4c0.2,1.5-1.5,3.1-3,3.1
	c-1,0-1.9-0.5-2.4-1.3c-1.5-2-3.8-3-5.7-4.4c-2.4-1.7-4.8-3.3-6.7-5.5c-0.9-0.8-1.9-1.5-3-1.9c-4.4-2.4-7.9-5.9-11.7-9.1
	c-2.9-2.4-5.9-4.5-8.9-6.8c-1.3-1-2.5-2.2-3.9-3.2c-0.6-0.4-0.2-0.5,0-0.7c1-1.4,2.1-2.6,3.4-3.8c2.2-2.3,4.2-4.7,6.4-6.9
	c2.8-2.8,5.4-6,8.7-8.4c0.9-0.8,1.7-1.7,2.4-2.7c2.6-3,5.5-5.8,8.1-8.8c1.2-1.4,2.5-3.1,4.6-3.9c1-0.3,1.3-1.7,2-2.4
	c2.8-2.7,4.7-6.1,7.6-8.6c1.2-1.2,2.4-2.3,3.7-3.3c1-0.7,1.5-1.8,0.4-2.8c-0.8-0.7-1.6-1.6-3.1-0.5c-1.8,1.3-4.1,1.8-6,3.2
	c-2.7,2-5.9,3.2-8.5,5.3c-1.6,1.2-3.1,2.5-4.7,3.7c-1.4,1-3.1,1.5-4.6,2.4c-2.8,1.9-5.6,3.8-8.6,5.6c-2.3,1.4-4.5,3.1-7.1,4
	c-0.7,0.3-1.4,0.7-2,1.2c-2.3,1.7-4.6,3.5-7,5.2c-1.7,1.3-3.7,2.4-5.5,3.7c-2.5,1.7-5.2,3.3-7.7,5c-1,0.8-2.1,1.5-3.2,2.2
	c-1.1,0.6-2.5,0.7-3.7,0.1c-2.2-0.8-4.4-1.7-6.5-2.8c-1.4-0.7-3-0.7-4.4-1.3c-2.8-1.1-5.8-1.8-8.7-2.7c-2-0.6-3.8-1.8-6.1-1.6
	c-0.7,0-1.3-0.6-1.3-1.3c0,0,0,0,0,0c0-0.5,0.4-1,1.3-1.4c2.2-0.9,4.7-1.3,6.8-2.5s4.2-1.9,6.2-3c1.6-0.8,3.4-1.2,5.2-1.4
	c0.2,0,0.5,0.1,0.7,0c2.4-2,5.6-2.4,8.4-3.6c0.9-0.4,1.8-0.9,2.6-1.4c2.3-1.5,5.4-1.2,7.5-2.8c1.9-1.5,4.3-1.6,6.3-2.4
	c1.7-0.7,3.5-1.4,5.3-2.1c2.2-0.8,4.2-2.3,6.5-2.9c3.5-0.9,6.6-2.8,10-3.9c1.5-0.5,2.9-1.2,4.2-2c1.4-0.8,3.2-0.9,4.8-1.6
	c3.5-1.6,7.3-2.7,10.9-3.9c2.3-0.8,4.4-2.4,6.7-3.2c1.6-0.7,3.2-1.3,4.8-1.7c0.7-0.1,1.4-0.4,1.9-0.9c1.2-0.8,2.7-0.5,3.9-1.2
	c2.6-1.7,5.8-1.9,8.4-3.4C118.3,5.5,119,5.7,118.8,6.3z"></path>
  </symbol>
<symbol id="telegram-fill" xmlns="http://www.w3.org/2000/svg" xmlns:xlink="http://www.w3.org/1999/xlink" x="0px" y="0px" viewBox="0 0 176.6 147.7">
    <path d="M175.1,14.2l-26.4,124.5c-2,8.8-7.2,11-14.6,6.8l-40.2-29.6l-19.4,18.7c-2.1,2.1-3.9,3.9-8.1,3.9
	l2.9-41l74.6-67.4c3.2-2.9-0.7-4.5-5-1.6l-92.2,58L6.9,74.2c-8.6-2.7-8.8-8.6,1.8-12.8L163.9,1.6C171.1-1.1,177.4,3.2,175.1,14.2z"></path>
  </symbol>
  <symbol xmlns="http://www.w3.org/2000/svg" xmlns:xlink="http://www.w3.org/1999/xlink" viewBox="0 0 1024 1024" id="telegram-fill2">
    <path d="M883.626667 155.925333s82.88-32.32 75.946666 46.165334c-2.282667 32.32-22.997333 145.450667-39.125333 267.797333l-55.253333 362.453333s-4.608 53.098667-46.058667 62.336c-41.429333 9.216-103.594667-32.32-115.114667-41.557333-9.216-6.933333-172.672-110.826667-230.229333-161.6-16.128-13.866667-34.56-41.557333 2.304-73.877333L717.824 386.773333c27.626667-27.690667 55.253333-92.330667-59.861333-13.845333l-322.346667 219.306667s-36.842667 23.104-105.898667 2.325333l-149.674666-46.186667s-55.253333-34.624 39.146666-69.248c230.250667-108.501333 513.450667-219.306667 764.394667-323.2z"></path>
  </symbol>
  <symbol id="twitter_2023" xmlnsInkscape="http://www.inkscape.org/namespaces/inkscape" xmlnsSodipodi="http://sodipodi.sourceforge.net/DTD/sodipodi-0.dtd" xmlnsSvg="http://www.w3.org/2000/svg" xmlns="http://www.w3.org/2000/svg" xmlns:xlink="http://www.w3.org/1999/xlink" x="0px" y="0px" viewBox="0 0 697.7 698.3">
    <sodipodi:namedview bordercolor="#666666" borderopacity="1.0" id="namedview7" inkscapeCurrentLayer="layer1" inkscapeCx="-391.86709" inkscapeCy="780.61174" inkscapeDocumentUnits="mm" inkscapePagecheckerboard="0" inkscapePageopacity="0.0" inkscapePageshadow="2" inkscapeWindowHeight="1017" inkscapeWindowMaximized="1" inkscapeWindowWidth="1920" inkscapeWindowX="-8" inkscapeWindowY="-8" inkscapeZoom="0.32026164" pagecolor="#ffffff" showgrid="false"></sodipodi:namedview>
    <g transform="translate(10.164159,-14.177668)" inkscapeGroupmode="layer" inkscapeLabel="Layer 1">
      <path d="M415.4,298.2L636,47.1c11.2-12.8,2.2-32.9-14.9-32.9h-8.8c-5.7,0-11.1,2.5-14.9,6.7L394.3,252
		c-8.5,9.6-23.7,8.8-31.1-1.7L203.5,22.6c-3.7-5.3-9.8-8.4-16.2-8.4H27.9c-16,0-25.4,18.1-16.2,31.2l241.6,344.3
		c5.2,7.5,4.7,17.6-1.3,24.4L18.7,679.6c-11.2,12.8-2.2,32.9,14.9,32.9h8.8c5.7,0,11.1-2.5,14.9-6.7l215.6-245.5
		c8.5-9.6,23.7-8.8,31.1,1.7l169.8,242.1c3.7,5.3,9.8,8.4,16.2,8.4h159.4c16,0,25.4-18,16.2-31.2L414,322.6
		C408.8,315.2,409.3,305.1,415.4,298.2z M320.8,405.8l-27.6-38.7L96,90.9c-9.4-13.1,0-31.3,16.1-31.3h45.8c6.4,0,12.4,3.1,16.1,8.3
		l171.4,240l27.5,38.7l208,291.4c9.4,13.1,0,31.3-16.1,31.3H519c-6.4,0-12.4-3.1-16.1-8.3L320.8,405.8z"></path>
    </g>
  </symbol>
  <symbol id="youtube" xmlns="http://www.w3.org/2000/svg" xmlns:xlink="http://www.w3.org/1999/xlink" x="0px" y="0px" viewBox="0 0 200 200">
    <path d="M187.5,99.5c0-0.4,0-0.9,0-1.5c0-1.6-0.1-3.4-0.1-5.3c-0.2-5.4-0.4-10.9-0.9-16c-0.6-7.1-1.4-12.9-2.6-17.3
	c-2.5-9.4-9.8-16.7-19.2-19.2c-5.5-1.5-16.3-2.4-31.6-3c-7.2-0.3-15-0.4-22.8-0.5c-2.7,0-5.2-0.1-7.5-0.1h-5.7c-2.3,0-4.8,0-7.5,0.1
	c-7.8,0.1-15.5,0.3-22.8,0.5c-15.2,0.6-26.1,1.5-31.6,3C26,42.6,18.6,50,16.1,59.4c-1.2,4.4-2,10.3-2.6,17.3
	c-0.4,5.1-0.7,10.5-0.9,16c-0.1,1.9-0.1,3.7-0.1,5.3c0,0.6,0,1.1,0,1.5v1.1c0,0.4,0,0.9,0,1.5c0,1.6,0.1,3.4,0.1,5.3
	c0.2,5.4,0.4,10.9,0.9,16c0.6,7.1,1.4,12.9,2.6,17.3c2.5,9.4,9.8,16.7,19.2,19.2c5.5,1.5,16.3,2.4,31.6,3c7.2,0.3,15,0.4,22.8,0.5
	c2.7,0,5.2,0.1,7.5,0.1h5.7c2.3,0,4.8,0,7.5-0.1c7.8-0.1,15.5-0.3,22.8-0.5c15.2-0.6,26.1-1.5,31.6-3c9.4-2.5,16.7-9.9,19.2-19.2
	c1.2-4.4,2-10.3,2.6-17.3c0.4-5.1,0.7-10.5,0.9-16c0.1-1.9,0.1-3.7,0.1-5.3c0-0.6,0-1.1,0-1.5V100L187.5,99.5L187.5,99.5z
	 M173.4,100.5c0,0.4,0,0.9,0,1.4c0,1.5-0.1,3.2-0.1,5c-0.1,5.2-0.4,10.4-0.8,15.2c-0.5,6.3-1.3,11.4-2.2,14.9
	c-1.2,4.5-4.8,8.1-9.3,9.3c-4.1,1.1-14.4,2-28.5,2.5c-7.1,0.3-14.8,0.4-22.4,0.5c-2.7,0-5.2,0.1-7.4,0.1h-5.6c-2.2,0-4.7,0-7.4-0.1
	c-7.6-0.1-15.3-0.3-22.4-0.5c-14-0.5-24.4-1.4-28.5-2.5c-4.5-1.2-8-4.8-9.3-9.3c-0.9-3.5-1.7-8.6-2.2-14.9c-0.4-4.8-0.7-10-0.8-15.2
	c-0.1-1.8-0.1-3.5-0.1-5c0-0.5,0-1,0-1.4v-0.6v-0.4c0-0.4,0-0.9,0-1.4c0-1.5,0.1-3.2,0.1-5c0.1-5.2,0.4-10.4,0.8-15.2
	c0.5-6.3,1.3-11.4,2.2-14.9c1.2-4.5,4.8-8.1,9.3-9.3c4.1-1.1,14.4-2,28.5-2.5c7.1-0.3,14.8-0.4,22.4-0.5c2.7,0,5.2-0.1,7.4-0.1h5.6
	c2.2,0,4.7,0,7.4,0.1c7.6,0.1,15.3,0.3,22.4,0.5c14,0.5,24.4,1.4,28.5,2.5c4.5,1.2,8,4.8,9.3,9.3c0.9,3.5,1.7,8.6,2.2,14.9
	c0.4,4.8,0.7,10,0.8,15.2c0.1,1.8,0.1,3.5,0.1,5c0,0.5,0,1,0,1.4V100.5z"></path>
    <path d="M82.6,126.2l45.3-26.4l-45.3-26C82.6,73.8,82.6,126.2,82.6,126.2z"></path>
  </symbol>
  <symbol id="youtube-fill" xmlns="http://www.w3.org/2000/svg" xmlns:xlink="http://www.w3.org/1999/xlink" x="0px" y="0px" viewBox="0 0 200 200">
    <path d="M183.8,57.8c-2-7.5-7.9-13.5-15.5-15.5c-13.7-3.7-68.4-3.7-68.4-3.7s-54.7,0-68.4,3.7
	c-7.5,2-13.5,7.9-15.5,15.5c-3.7,13.7-3.7,42.2-3.7,42.2s0,28.5,3.7,42.2c2,7.5,7.9,13.5,15.5,15.5c13.7,3.7,68.4,3.7,68.4,3.7
	s54.7,0,68.4-3.7c7.5-2,13.5-7.9,15.5-15.5c3.7-13.7,3.7-42.2,3.7-42.2S187.5,71.5,183.8,57.8z M82.6,126.2V73.8l45.3,26L82.6,126.2
	z"></path>
  </symbol>
  <symbol id="facebook" xmlns="http://www.w3.org/2000/svg" xmlns:xlink="http://www.w3.org/1999/xlink" x="0px" y="0px" viewBox="0 0 200 200">
    <path d="M116.3,200H87.5c-7.8,0-14.1-6.3-14.1-14.1v-70.3H53.1c-7.8,0-14.1-6.3-14.1-14.1V80c0-7.8,6.3-14.4,14.1-14.4
	h20.3V48.4C73.4,20,92.8,0,120.3,0h26.6c4.4,0,7.8,3.4,7.8,7.8v40.6c0,4.4-3.4,7.8-7.8,7.8h-17.2v9.4h17.2c4.4,0.3,8.4,2.2,10.9,5.6
	s3.8,7.5,2.8,11.9l-4.1,20.9c-0.9,6.6-6.6,11.6-13.8,11.6h-13.4v70.3C129.7,193.8,123.4,200,116.3,200z M89.1,184.4h25v-76.6
	c0-4.4,3.4-7.8,7.8-7.8h19.7l3.8-18.8H122c-4.4,0-7.8-3.4-7.8-7.8v-25c0-4.4,3.4-7.8,7.8-7.8h17.2v-25h-18.8
	c-19.1,0-31.3,12.8-31.3,32.8v25c0,4.4-3.4,7.8-7.8,7.8H54.7V100h26.6c4.4,0,7.8,3.4,7.8,7.8C89.1,107.8,89.1,184.4,89.1,184.4z"></path>
  </symbol>
  <symbol xmlns="http://www.w3.org/2000/svg" xmlns:xlink="http://www.w3.org/1999/xlink" viewBox="0 0 1024 1024" id="facebook-fill">
    <path d="M880 112H144c-17.7 0-32 14.3-32 32v736c0 17.7 14.3 32 32 32h736c17.7 0 32-14.3 32-32V144c0-17.7-14.3-32-32-32z m-92.4 233.5h-63.9c-50.1 0-59.8 23.8-59.8 58.8v77.1h119.6l-15.6 120.7h-104V912H539.2V602.2H434.9V481.4h104.3v-89c0-103.3 63.1-159.6 155.3-159.6 44.2 0 82.1 3.3 93.2 4.8v107.9z"></path>
  </symbol>
  <symbol id="instagram" xmlns="http://www.w3.org/2000/svg" xmlns:xlink="http://www.w3.org/1999/xlink" x="0px" y="0px" viewBox="0 0 200 200">
    <path d="M100,59.9c-22.2,0-40.1,17.9-40.1,40.1s17.9,40.1,40.1,40.1s40.1-17.9,40.1-40.1S122.2,59.9,100,59.9z
	 M100,126c-14.3,0-26-11.7-26-26s11.7-26,26-26s26,11.7,26,26S114.3,126,100,126z M141.7,49c-5.2,0-9.4,4.2-9.4,9.4s4.2,9.4,9.4,9.4
	s9.4-4.2,9.4-9.4C151,53.1,146.9,49,141.7,49z"></path>
    <path d="M178.1,100c0-10.8,0.1-21.5-0.5-32.2C177,55.3,174.1,44.2,165,35c-9.2-9.2-20.2-12-32.7-12.6
	c-10.8-0.6-21.5-0.5-32.2-0.5c-10.8,0-21.5-0.1-32.2,0.5C55.3,23,44.2,25.9,35.1,35c-9.2,9.2-12,20.2-12.6,32.7
	C21.9,78.6,22,89.2,22,100s-0.1,21.5,0.5,32.2c0.6,12.5,3.5,23.6,12.6,32.7c9.2,9.2,20.2,12,32.7,12.6c10.8,0.6,21.5,0.5,32.2,0.5
	c10.8,0,21.5,0.1,32.2-0.5c12.5-0.6,23.6-3.5,32.7-12.6c9.2-9.2,12-20.2,12.6-32.7C178.2,121.5,178.1,110.8,178.1,100L178.1,100z
	 M160.9,146.1c-1.4,3.6-3.1,6.2-5.9,8.9c-2.8,2.8-5.4,4.5-8.9,5.9c-10.3,4.1-34.7,3.2-46.1,3.2S64.2,165,53.9,161
	c-3.6-1.4-6.2-3.1-8.9-5.9c-2.8-2.8-4.5-5.4-5.9-8.9C35,135.9,36,111.5,36,100.1s-1-35.9,3.1-46.2c1.4-3.6,3.1-6.2,5.9-8.9
	c2.8-2.7,5.4-4.5,8.9-5.9C64.2,35,88.6,36,100,36s35.8-0.9,46.1,3.1c3.6,1.4,6.2,3.1,8.9,5.9c2.8,2.8,4.5,5.4,5.9,8.9
	C165,64.2,164,88.6,164,100S165,135.8,160.9,146.1z"></path>
  </symbol>
  <symbol xmlns="http://www.w3.org/2000/svg" xmlns:xlink="http://www.w3.org/1999/xlink" viewBox="0 0 1024 1024" id="instagram-fill">
    <path d="M512 359.657143c-83.885714 0-152.342857 68.457143-152.342857 152.342857S428.114286 664.342857 512 664.342857 664.342857 595.885714 664.342857 512 595.885714 359.657143 512 359.657143zM968.914286 512c0-63.085714 0.571429-125.6-2.971429-188.571429-3.542857-73.142857-20.228571-138.057143-73.714286-191.542857-53.6-53.6-118.4-70.171429-191.542857-73.714285-63.085714-3.542857-125.6-2.971429-188.571428-2.971429-63.085714 0-125.6-0.571429-188.571429 2.971429-73.142857 3.542857-138.057143 20.228571-191.542857 73.714285C78.4 185.485714 61.828571 250.285714 58.285714 323.428571c-3.542857 63.085714-2.971429 125.6-2.971428 188.571429s-0.571429 125.6 2.971428 188.571429c3.542857 73.142857 20.228571 138.057143 73.714286 191.542857 53.6 53.6 118.4 70.171429 191.542857 73.714285 63.085714 3.542857 125.6 2.971429 188.571429 2.971429 63.085714 0 125.6 0.571429 188.571428-2.971429 73.142857-3.542857 138.057143-20.228571 191.542857-73.714285 53.6-53.6 70.171429-118.4 73.714286-191.542857 3.657143-62.971429 2.971429-125.485714 2.971429-188.571429zM512 746.4c-129.714286 0-234.4-104.685714-234.4-234.4S382.285714 277.6 512 277.6 746.4 382.285714 746.4 512 641.714286 746.4 512 746.4z m244-423.657143c-30.285714 0-54.742857-24.457143-54.742857-54.742857s24.457143-54.742857 54.742857-54.742857 54.742857 24.457143 54.742857 54.742857a54.674286 54.674286 0 0 1-54.742857 54.742857z"></path>
  </symbol>
  <symbol id="medium" xmlns="http://www.w3.org/2000/svg" xmlns:xlink="http://www.w3.org/1999/xlink" x="0px" y="0px" viewBox="0 0 200 200">
    <path d="M90.3,72.5l36-57.7c1.7-2.7,5.2-3.7,8.1-2.3l62.2,30.8c2.4,1.2,3.8,3.8,3.4,6.4
	c0,0.3,0,0.5,0.1,0.8v132.8c0,3.5-2.8,6.2-6.3,6.2c-1,0-1.9-0.2-2.8-0.7l-62.5-31.5c-1.4-0.7-2.5-1.9-3-3.3L75,129v54.3
	c0,3.5-2.8,6.2-6.3,6.2c-1,0-1.9-0.2-2.8-0.7L3.4,157.2c-2.1-1-3.4-3.2-3.4-5.5V17.3C0,13.8,2.8,11,6.3,11c1,0,1.9,0.2,2.8,0.7
	l62.5,31.7c1.8,0.9,3,2.6,3.4,4.6L90.3,72.5L90.3,72.5z M97.6,84.3l5.3,8.6l28.5,45.3l53.3-86.7l-51-25.2L97.6,84.3z M92.4,99.5
	L85,87.7c-0.2-0.2-0.3-0.5-0.4-0.8L75,71.7v43.4l39.3,19.5L92.4,99.5L92.4,99.5z M62.5,52.8l-50-25.3v120.4l50,25.3V52.8L62.5,52.8z
	 M187.5,72.6l-47.4,76.7l47.4,23.9V72.6z"></path>
  </symbol>
  <symbol xmlns="http://www.w3.org/2000/svg" xmlns:xlink="http://www.w3.org/1999/xlink" viewBox="0 0 1024 1024" id="medium-fill">
    <path d="M341.138286 240.566857v670.281143c0 17.700571-8.557714 34.304-28.013715 34.304a42.057143 42.057143 0 0 1-18.870857-4.571429L28.525714 807.424c-16.018286-8.009143-28.562286-28.562286-28.562285-45.714286V110.262857c0-14.299429 6.838857-27.428571 22.272-27.428571 9.142857 0 17.152 4.571429 25.161142 8.557714l291.986286 146.285714a7.68 7.68 0 0 1 1.718857 2.852572z m36.571428 57.709714l305.152 494.848-305.152-151.990857V298.276571zM1024 308.553143v602.294857c0 18.870857-10.861714 32-29.696 32-9.728 0-18.870857-2.852571-26.843429-7.424l-252.013714-125.696z m-1.718857-68.534857c0 2.304-295.424 481.718857-318.281143 518.290285l-222.866286-362.276571 185.161143-301.129143a34.486857 34.486857 0 0 1 29.696-16.018286c5.156571 0 10.276571 1.133714 14.848 3.437715L1019.977143 236.617143c1.133714 0.585143 2.304 1.718857 2.304 3.437714z"></path>
  </symbol>
  <symbol id="reddit" xmlns="http://www.w3.org/2000/svg" xmlns:xlink="http://www.w3.org/1999/xlink" x="0px" y="0px" viewBox="0 0 200 200">
    <path d="M50,125c0-6.9,5.6-12.5,12.5-12.5S75,118.1,75,125c0,6.9-5.6,12.5-12.5,12.5S50,131.9,50,125z M125,125
	c0-6.9,5.6-12.5,12.5-12.5S150,118.1,150,125c0,6.9-5.6,12.5-12.5,12.5S125,131.9,125,125z M125.6,151.7c3.2-2.5,7.9-2,10.4,1.2
	s2,7.9-1.2,10.4c-9,7.1-22.6,11.6-34.8,11.6s-25.8-4.6-34.8-11.6c-3.2-2.5-3.8-7.2-1.2-10.4c2.5-3.2,7.2-3.8,10.4-1.2
	c5.2,4.1,15.4,8.4,25.6,8.4C110.2,160.2,120.5,155.8,125.6,151.7L125.6,151.7z M200,100c0-13.8-11.2-25-25-25
	c-9.4,0-17.6,5.2-21.8,12.9c-12.8-7-28.5-11.6-45.6-12.6l14.9-33.5l28.6,8.2c2.6,7.3,9.5,12.5,17.7,12.5c10.4,0,18.8-8.4,18.8-18.8
	S179.1,25,168.7,25c-7.1,0-13.3,4-16.5,9.9l-31.8-9.2c-3.6-1-7.3,0.7-8.8,4.1L91.3,75.3C74.7,76.5,59.4,81,46.9,87.9
	C42.6,80.2,34.4,75,25,75C11.2,75,0,86.2,0,100c0,10.2,6.1,19,14.9,22.9c-1.6,4.7-2.4,9.6-2.4,14.6C12.5,172,51.7,200,100,200
	s87.5-28,87.5-62.5c0-5-0.8-9.9-2.4-14.6C193.9,119,200,110.2,200,100L200,100z M168.8,36.7c3.9,0,7,3.1,7,7s-3.1,7-7,7s-7-3.1-7-7
	S164.9,36.7,168.8,36.7z M12.5,100c0-6.9,5.6-12.5,12.5-12.5c5,0,9.3,2.9,11.3,7.2c-6.5,5-11.9,10.7-16,16.9
	C15.8,109.7,12.5,105.2,12.5,100L12.5,100z M100,185.2c-40.1,0-72.7-21.3-72.7-47.7S59.9,89.8,100,89.8s72.7,21.3,72.7,47.7
	S140.1,185.2,100,185.2z M179.7,111.6c-4-6.3-9.4-12-16-16.9c2-4.2,6.3-7.2,11.3-7.2c6.9,0,12.5,5.6,12.5,12.5
	C187.5,105.2,184.2,109.7,179.7,111.6L179.7,111.6z"></path>
  </symbol>
  <symbol xmlns="http://www.w3.org/2000/svg" xmlns:xlink="http://www.w3.org/1999/xlink" viewBox="0 0 1024 1024" id="reddit-fill">
    <path d="M810.817 294.393c27.348 0 51.483-22.523 51.483-51.483s-22.523-51.483-51.483-51.483c-27.348 0-51.483 22.523-51.483 51.483 0 27.348 22.523 51.483 51.483 51.483zM518.015 727.16c-91.7 0-144.794-38.61-144.794-38.61-4.827-3.219-9.653-1.609-11.263 3.219l-9.653 17.696c-1.609 4.827-1.609 11.263 3.219 14.478 0 0 45.045 46.657 162.49 46.657s159.27-49.872 159.27-49.872c3.219-3.219 3.219-9.653 1.609-12.87l-11.263-16.090c-3.219-3.219-8.043-4.827-12.87-1.609 0-1.609-45.045 37.003-136.749 37.003zM352.311 603.284c27.348 0 51.483-22.523 51.483-51.483s-22.523-51.483-51.483-51.483c-27.348 0-51.483 22.523-51.483 51.483 1.609 28.959 24.132 51.483 51.483 51.483zM657.982 603.284c27.348 0 51.483-22.523 51.483-51.483s-22.523-51.483-51.483-51.483-51.483 22.523-51.483 51.483c0 28.959 22.523 51.483 51.483 51.483zM709.463 234.87c-8.043-3.219-94.919-32.174-131.922-6.434-38.61 27.348-37.003 117.441-33.786 117.441 85.266 6.434 164.097 32.174 223.622 72.396 4.827 3.219 56.308-41.828 112.617-32.174 56.308 9.653 94.919 62.742 77.222 122.268-17.696 57.917-72.396 75.615-70.787 93.309v14.478c0 149.619-170.532 270.278-381.285 270.278s-381.285-120.659-381.285-270.278c0-8.043 0-14.478 1.609-22.523 0-1.609-38.61-22.523-53.090-57.917-14.478-33.786-8.043-74.004 6.434-98.137 24.132-37.003 53.090-51.483 93.309-51.483s83.658 24.132 85.266 24.132c64.353-38.61 148.009-62.742 238.1-64.353 3.219 0-6.434-109.398 54.7-149.619 62.742-40.22 165.705 0 167.315 0v3.219c16.090-35.394 51.483-59.525 91.7-59.525 56.308 0 101.356 46.657 101.356 102.962 0 56.308-45.045 102.962-101.356 102.962s-101.356-46.657-101.356-102.962c0-3.219 0-6.434 1.609-8.043z"></path>
  </symbol>
  <symbol id="discord" xmlns="http://www.w3.org/2000/svg" xmlns:xlink="http://www.w3.org/1999/xlink" x="0px" y="0px" viewBox="0 0 200 200">
    <path d="M79.1,30.7l-4.9,0.6c0,0-21.9,2.4-37.9,15.2h-0.2l-0.2,0.2C32.3,50,30.8,54,28.3,60
	c-2.9,7.1-5.4,14.4-7.4,21.9c-4.6,16.8-8.4,37.1-8.4,55.7v1.6l0.8,1.6c5.8,10.2,16.1,16.6,25.6,21.1s17.8,6.8,23.4,7l3.7,0.2l2-3.3
	l6.8-12.1c7.3,1.6,15.6,2.7,25.2,2.7s17.9-1.1,25.2-2.7l6.8,12.1l2,3.3l3.7-0.2c5.7-0.2,13.9-2.6,23.4-7
	c9.5-4.5,19.8-10.9,25.6-21.1l0.8-1.6v-1.6c0-18.6-3.8-38.9-8.4-55.7c-2-7.4-4.5-14.7-7.4-21.9c-2.5-5.9-4-10-7.6-13.3l-0.2-0.2
	h-0.2c-16-12.8-37.9-15.2-37.9-15.2l-4.9-0.6l-1.8,4.5c0,0-1.8,4.6-2.9,9.8c-5.4-0.7-10.8-1.1-16.2-1.2c-3.3,0-9.1,0.2-16.2,1.2
	c-1.1-5.2-2.9-9.8-2.9-9.8L79.1,30.7z M70.5,44.9c0.3,0.9,0.5,1.6,0.8,2.3c-8.1,2-16.7,5-24.6,10l6.6,10.5
	c16.2-10,39.5-11.4,46.7-11.4s30.5,1.5,46.7,11.5l6.6-10.5c-7.9-4.9-16.5-8-24.6-10c0.2-0.7,0.5-1.5,0.8-2.3
	c5.8,1.2,17,3.9,26.2,11.1c-0.1,0,2.3,3.6,4.5,8.8c2.2,5.3,4.6,12.4,6.8,20.3c4.2,15.3,7.5,33.8,7.8,50.2c-3.9,6-11.2,11.4-18.9,15
	c-4.8,2.3-10,3.9-15.2,4.9l-3.1-5.3c1.9-0.7,3.7-1.4,5.3-2.1c9.6-4.2,14.8-8.8,14.8-8.8l-8.2-9.4c0,0-3.5,3.2-11.7,6.8
	s-20.7,7.2-37.7,7.2s-29.5-3.6-37.7-7.2c-8.2-3.6-11.7-6.8-11.7-6.8l-8.2,9.4c0,0,5.2,4.6,14.8,8.8c1.6,0.7,3.4,1.5,5.3,2.1
	l-3.1,5.3c-5.3-1-10.4-2.6-15.2-4.9c-7.7-3.6-15-9-18.9-15c0.3-16.4,3.6-34.9,7.8-50.2c1.9-6.9,4.2-13.7,6.8-20.3
	c2.1-5.2,4.5-8.8,4.5-8.8C53.5,48.8,64.7,46.1,70.5,44.9z M78.1,87.5c-4.8,0-9.1,2.8-11.7,6.3s-3.9,7.8-3.9,12.5s1.3,9,3.9,12.5
	c2.6,3.5,6.9,6.3,11.7,6.3s9.1-2.8,11.7-6.3s3.9-7.8,3.9-12.5s-1.3-9-3.9-12.5S83,87.5,78.1,87.5z M121.9,87.5
	c-4.8,0-9.1,2.8-11.7,6.3s-3.9,7.8-3.9,12.5s1.3,9,3.9,12.5s6.9,6.3,11.7,6.3s9.1-2.8,11.7-6.3s3.9-7.8,3.9-12.5s-1.3-9-3.9-12.5
	S126.7,87.5,121.9,87.5z M78.1,100c0.3,0,0.8,0.1,1.6,1.2c0.8,1,1.6,2.9,1.6,5.1s-0.8,4-1.6,5.1c-0.8,1-1.2,1.2-1.6,1.2
	s-0.8-0.1-1.6-1.2c-1-1.5-1.6-3.3-1.6-5.1c0-2.2,0.8-4,1.6-5.1C77.3,100.1,77.8,100,78.1,100z M121.9,100c0.3,0,0.8,0.1,1.6,1.2
	c0.8,1,1.6,2.9,1.6,5.1s-0.8,4-1.6,5.1c-0.8,1-1.2,1.2-1.6,1.2s-0.8-0.1-1.6-1.2c-1-1.5-1.6-3.3-1.6-5.1c0-2.2,0.8-4,1.6-5.1
	S121.5,100,121.9,100z"></path>
  </symbol>
  <symbol xmlns="http://www.w3.org/2000/svg" xmlns:xlink="http://www.w3.org/1999/xlink" viewBox="0 0 1280 1024" id="discord-fill">
    <path d="M1049.062 139.672a3 3 0 0 0-1.528-1.4A970.13 970.13 0 0 0 808.162 64.06a3.632 3.632 0 0 0-3.846 1.82 674.922 674.922 0 0 0-29.8 61.2 895.696 895.696 0 0 0-268.852 0 619.082 619.082 0 0 0-30.27-61.2 3.78 3.78 0 0 0-3.848-1.82 967.378 967.378 0 0 0-239.376 74.214 3.424 3.424 0 0 0-1.576 1.352C78.136 367.302 36.372 589.38 56.86 808.708a4.032 4.032 0 0 0 1.53 2.75 975.332 975.332 0 0 0 293.65 148.378 3.8 3.8 0 0 0 4.126-1.352A696.4 696.4 0 0 0 416.24 860.8a3.72 3.72 0 0 0-2.038-5.176 642.346 642.346 0 0 1-91.736-43.706 3.77 3.77 0 0 1-0.37-6.252 502.094 502.094 0 0 0 18.218-14.274 3.638 3.638 0 0 1 3.8-0.512c192.458 87.834 400.82 87.834 591 0a3.624 3.624 0 0 1 3.848 0.466 469.066 469.066 0 0 0 18.264 14.32 3.768 3.768 0 0 1-0.324 6.252 602.814 602.814 0 0 1-91.78 43.66 3.75 3.75 0 0 0-2 5.222 782.11 782.11 0 0 0 60.028 97.63 3.728 3.728 0 0 0 4.126 1.4A972.096 972.096 0 0 0 1221.4 811.458a3.764 3.764 0 0 0 1.53-2.704c24.528-253.566-41.064-473.824-173.868-669.082zM444.982 675.16c-57.944 0-105.688-53.174-105.688-118.478s46.818-118.482 105.688-118.482c59.33 0 106.612 53.64 105.686 118.478 0 65.308-46.82 118.482-105.686 118.482z m390.76 0c-57.942 0-105.686-53.174-105.686-118.478s46.818-118.482 105.686-118.482c59.334 0 106.614 53.64 105.688 118.478 0 65.308-46.354 118.482-105.688 118.482z"></path>
  </symbol>
  <symbol id="discord-fill2" xmlns="http://www.w3.org/2000/svg" xmlns:xlink="http://www.w3.org/1999/xlink" x="0px" y="0px" viewBox="0 0 200 200">
    <path d="M168.5,0c11.7,0,21.2,9.5,21.7,20.6V200l-22.3-18.9l-12.3-11.2l-13.4-11.6l5.6,18.4h-117
	c-11.7,0-21.2-8.9-21.2-20.6V20.7C9.8,9.5,19.3,0,31,0L168.5,0L168.5,0z M117.5,47.4h-0.3l-1.7,1.7c17.3,5,25.6,12.8,25.6,12.8
	c-11.1-5.6-21.2-8.4-31.2-9.5c-7.3-1.1-14.5-0.5-20.6,0h-1.7c-3.9,0-12.3,1.7-23.4,6.1c-3.9,1.7-6.1,2.8-6.1,2.8s8.4-8.4,26.8-12.8
	l-1.1-1.1c0,0-13.9-0.5-29,10.6c0,0-15,26.2-15,58.5c0,0,8.3,14.5,31.2,15.1c0,0,3.3-4.4,6.7-8.3c-12.8-3.9-17.8-11.7-17.8-11.7
	s1.1,0.5,2.8,1.7h0.5c0.3,0,0.4,0.1,0.5,0.3v0.1c0.1,0.1,0.3,0.3,0.5,0.3c2.8,1.1,5.5,2.3,7.8,3.3c4.8,2.1,9.8,3.6,15,4.5
	c7.8,1.1,16.6,1.7,26.8,0c5-1.1,10-2.2,15-4.5c3.3-1.7,7.3-3.3,11.6-6.1c0,0-5,7.8-18.4,11.7c2.8,3.9,6.6,8.3,6.6,8.3
	c22.9-0.5,31.8-15,32.3-14.4c0-32.3-15.1-58.5-15.1-58.5c-13.6-10.1-26.4-10.5-28.6-10.5L117.5,47.4L117.5,47.4z M118.9,84.1
	c5.9,0,10.6,5,10.6,11.1c0,6.2-4.8,11.2-10.6,11.2s-10.6-5-10.6-11.1C108.4,89.1,113.1,84.2,118.9,84.1L118.9,84.1z M81.1,84.1
	c5.8,0,10.5,5,10.5,11.1c0,6.2-4.8,11.2-10.6,11.2c-5.8,0-10.6-5-10.6-11.1C70.5,89.1,75.2,84.2,81.1,84.1L81.1,84.1z"></path>
  </symbol>

  <symbol id="loading" xmlns="http://www.w3.org/2000/svg" xmlns:xlink="http://www.w3.org/1999/xlink" x="0px" y="0px" viewBox="0 0 200 200">
    <path d="M105,52.2c-14.4,0-26.2-11.9-26.2-26.3S90.9,0,105,0s26.3,11.9,26.3,26.2
	C131.3,40.9,119.4,52.2,105,52.2z M50.3,72.8c-13.1,0-23.8-10.6-23.8-23.7s10.6-23.8,23.8-23.8s23.8,10.6,23.8,23.8
	S63.4,72.8,50.3,72.8z M26.9,126.3c-11.9,0-21.3-9.4-21.3-21.3S15,83.8,26.9,83.8s21.2,9.4,21.2,21.3
	C47.8,116.9,38.4,126.3,26.9,126.3z M50.3,179.7c-10,0-17.5-8.1-17.5-17.5c0-10,8.1-17.5,17.5-17.5s17.5,8.1,17.5,17.5
	S59.7,179.1,50.3,179.7z M105,199.7c-8.7,0-15.6-6.9-15.6-15.6s6.9-15.6,15.6-15.6s15.6,6.9,15.6,15.6S113.7,199.7,105,199.7z
	 M161.3,173.4c-6.9,0-12.5-5.6-12.5-12.5s5.6-12.5,12.5-12.5s12.5,5.6,12.5,12.5C173.4,167.8,167.8,173.4,161.3,173.4z M184.1,115.6
	c-5.6,0-10-4.4-10-10c0-5.6,4.4-10,10-10s10,4.4,10,10C194.7,111.2,189.7,115.6,184.1,115.6z M153.1,49.7c0-4.4,3.8-8.1,8.1-8.1
	c4.4,0,8.1,3.8,8.1,8.1c0,4.4-3.8,8.1-8.1,8.1c-1.9,0-4.4-0.6-5.6-2.5C154.4,54.1,153.1,52.2,153.1,49.7z"></path>
  </symbol>
  <symbol id="unfold" xmlns="http://www.w3.org/2000/svg" xmlns:xlink="http://www.w3.org/1999/xlink" x="0px" y="0px" viewBox="0 0 200 200">
    <path d="M100,16.7c46,0,83.3,37.3,83.3,83.3S146,183.3,100,183.3S16.7,146,16.7,100S54,16.7,100,16.7z M100,62.5
	c-4.6,0-8.3,3.7-8.3,8.3v20.8H70.8c-4.6,0-8.3,3.7-8.3,8.3s3.7,8.3,8.3,8.3h20.8v20.8c0,4.6,3.7,8.3,8.3,8.3s8.3-3.7,8.3-8.3v-20.8
	h20.8c4.6,0,8.3-3.7,8.3-8.3s-3.7-8.3-8.3-8.3h-20.8V70.8C108.3,66.2,104.6,62.5,100,62.5L100,62.5z"></path>
  </symbol>
  <symbol id="fold" xmlns="http://www.w3.org/2000/svg" xmlns:xlink="http://www.w3.org/1999/xlink" x="0px" y="0px" viewBox="0 0 200 200">
    <path d="M100,183.3c46,0,83.3-37.3,83.3-83.3S146,16.7,100,16.7S16.7,54,16.7,100S54,183.3,100,183.3L100,183.3z
	 M68.8,93.8h62.5c3.5,0,6.3,2.8,6.3,6.3c0,3.5-2.8,6.3-6.3,6.3H68.8c-3.5,0-6.3-2.8-6.3-6.3C62.5,96.5,65.3,93.8,68.8,93.8z"></path>
  </symbol>
  <symbol xmlns="http://www.w3.org/2000/svg" xmlns:xlink="http://www.w3.org/1999/xlink" viewBox="0 0 1024 1024" id="github">
    <path d="M511.6 76.3C264.3 76.2 64 276.4 64 523.5 64 718.9 189.3 885 363.8 946c23.5 5.9 19.9-10.8 19.9-22.2v-77.5c-135.7 15.9-141.2-73.9-150.3-88.9C215 726 171.5 718 184.5 703c30.9-15.9 62.4 4 98.9 57.9 26.4 39.1 77.9 32.5 104 26 5.7-23.5 17.9-44.5 34.7-60.8-140.6-25.2-199.2-111-199.2-213 0-49.5 16.3-95 48.3-131.7-20.4-60.5 1.9-112.3 4.9-120 58.1-5.2 118.5 41.6 123.2 45.3 33-8.9 70.7-13.6 112.9-13.6 42.4 0 80.2 4.9 113.5 13.9 11.3-8.6 67.3-48.8 121.3-43.9 2.9 7.7 24.7 58.3 5.5 118 32.4 36.8 48.9 82.7 48.9 132.3 0 102.2-59 188.1-200 212.9 23.5 23.2 38.1 55.4 38.1 91v112.5c0.8 9 0 17.9 15 17.9 177.1-59.7 304.6-227 304.6-424.1 0-247.2-200.4-447.3-447.5-447.3z"></path>
  </symbol>
  <symbol id="arrow" xmlns="http://www.w3.org/2000/svg" xmlns:xlink="http://www.w3.org/1999/xlink" x="0px" y="0px" viewBox="0 0 60 90">
    <path d="M57.7,49.7L13.5,87.8c-3.2,3.1-8.4,3-11.5-0.3c-1.1-1.2-1.8-2.8-2.1-4.4V6.8c0.5-4.4,4.5-7.5,8.9-7c1.7,0.2,3.3,1,4.6,2.2
	l44.2,38.1c2.7,2.1,3.1,6,1,8.7C58.3,49.1,58,49.4,57.7,49.7z"></path>
  </symbol>
  <symbol id="arrow2" xmlns="http://www.w3.org/2000/svg" xmlns:xlink="http://www.w3.org/1999/xlink" x="0px" y="0px" viewBox="0 0 200 200">
    <path id="_x30__2_" d="M85.5,77.2l22.7,22.7l-22.7,22.7c-3.4,3.4-3.4,8.9,0,12.3c1.7,1.7,3.9,2.6,6.2,2.6
	s4.5-0.9,6.2-2.6l28.8-28.8c1.6-1.6,2.6-3.9,2.6-6.2s-0.9-4.5-2.6-6.2L97.8,64.9c-3.4-3.4-8.9-3.4-12.3,0
	C82.1,68.3,82.1,73.8,85.5,77.2L85.5,77.2z"></path>
    <path id="_x30__1_" d="M49.1,28.8C41.9,34,35.5,40.2,30.2,47.2c-5.4,7.1-9.6,15-12.6,23.4c-3.4,9.4-5.1,19.3-5.1,29.4
	c0,11.8,2.3,23.3,6.9,34.1c4.4,10.4,10.7,19.8,18.8,27.8c8,8,17.4,14.3,27.8,18.8c10.8,4.5,22.2,6.9,34,6.9c9.9,0,19.6-1.6,28.9-4.9
	c8.4-2.9,16.4-7.2,23.6-12.6c7.1-5.3,13.3-11.7,18.5-18.9c10.8-15,16.5-32.7,16.5-51.2c0-11.8-2.3-23.3-6.9-34.1
	c-4.4-10.4-10.7-19.8-18.8-27.8c-8-8-17.4-14.3-27.8-18.8c-10.7-4.5-22.1-6.8-33.8-6.9h-0.6C81.4,12.5,63.9,18.2,49.1,28.8z
	 M170,100c0,29.8-18.9,56.3-47,66.2c-7.4,2.6-15.2,3.9-23.1,3.9c-38.6,0-70.1-31.4-70.1-70.1c0-8.1,1.4-16,4.1-23.6
	c9.9-27.8,36.4-46.5,66-46.5C138.6,29.9,170,61.3,170,100L170,100z"></path>
  </symbol>
  <symbol xmlns="http://www.w3.org/2000/svg" xmlns:xlink="http://www.w3.org/1999/xlink" viewBox="0 0 1024 1024" id="arrow-right">
    <path d="M361.386667 318.72a32 32 0 0 0 0 45.226667L509.44 512l-148.053333 148.053333a32 32 0 1 0 45.226666 45.226667l167.68-167.637333a36.266667 36.266667 0 0 0 0-51.285334l-167.68-167.68a32 32 0 0 0-45.226666 0z"></path>
    <path d="M510.72 318.72a32 32 0 0 0 0 45.226667L658.773333 512l-148.053333 148.053333a32 32 0 1 0 45.226667 45.226667l167.68-167.637333a36.266667 36.266667 0 0 0 0-51.285334l-167.68-167.68a32 32 0 0 0-45.226667 0z"></path>
  </symbol>
  <symbol xmlns="http://www.w3.org/2000/svg" xmlns:xlink="http://www.w3.org/1999/xlink" viewBox="0 0 1024 1024" id="pinterest">
    <path d="M511 47.904c255.504 0 463.096 207.6 463.096 463.096 0 255.504-207.6 463.096-463.096 463.096S47.904 766.496 47.904 511 255.504 47.904 511 47.904m0-47.904C228.36 0 0 228.352 0 511s228.352 511 511 511 511-228.352 511-511C1022 228.36 793.648 0 511 0z"></path>
    <path d="M528.776 174.56c-198.88 0-299.304 143.104-299.304 262.04 0 72.048 27.392 136.448 85.872 160.632a14.56 14.56 0 0 0 20.72-11.104c2.224-6.912 6.424-24.672 8.64-33.312a20.72 20.72 0 0 0-5.92-23.44 121.4 121.4 0 0 1-27.88-82.416A197.4 197.4 0 0 1 518.16 246.112c112.52 0 174.696 68.84 174.696 161.12 0 120.664-53.544 222.08-133.24 222.08a64.648 64.648 0 0 1-66.128-80.192c12.336-53.056 37.008-110.296 37.008-148.056a56.504 56.504 0 0 0-56.752-63.408c-44.904 0-80.928 46.384-80.928 108.816 0.152 22.88 4.76 45.504 13.568 66.616-45.648 194.192-53.792 228-53.792 228a361.976 361.976 0 0 0-7.152 96.232s4.192 49.344 49.344 17.52a357.784 357.784 0 0 0 42.688-89.576s4.936-18.504 29.36-115.232a118.936 118.936 0 0 0 100.68 52.32c134.72 0 226.512-123.376 226.512-287.712 0.496-123.864-104.864-240.08-265.256-240.08z"></path>
  </symbol>
  <symbol xmlns="http://www.w3.org/2000/svg" xmlns:xlink="http://www.w3.org/1999/xlink" viewBox="0 0 1024 1024" id="arrow-left">
    <path d="M691.498667 798.165333a42.666667 42.666667 0 0 1-57.621334 2.496l-2.709333-2.496-256-256a42.666667 42.666667 0 0 1-2.496-57.621333l2.496-2.709333 256-256a42.666667 42.666667 0 0 1 62.826667 57.621333l-2.496 2.709333L465.706667 512l225.813333 225.834667a42.666667 42.666667 0 0 1 2.496 57.621333l-2.496 2.709333z"></path>
  </symbol>
  <symbol xmlns="http://www.w3.org/2000/svg" xmlns:xlink="http://www.w3.org/1999/xlink" viewBox="0 0 1024 1024" id="arrow-right">
    <path d="M624.938667 268.970667l3.114666-3.584a32 32 0 0 1 41.642667-3.114667l3.584 3.114667 213.205333 213.205333a32 32 0 0 1 3.114667 41.642667l-3.114667 3.626666-213.162666 213.461334a32 32 0 0 1-48.384-41.642667l3.072-3.584 158.336-158.592H160a32 32 0 0 1-31.701333-27.605333L128 501.546667a32 32 0 0 1 27.648-31.701334l4.352-0.298666 626.901333-0.042667L628.053333 310.613333a32 32 0 0 1-3.114666-41.642666l3.114666-3.584-3.114666 3.584z"></path>
  </symbol>
  <symbol version="1.1" xmlns="http://www.w3.org/2000/svg" xmlns:xlink="http://www.w3.org/1999/xlink" viewBox="0 0 1024 1024" id="google">
    <path d="M214.101333 512c0-32.512 5.546667-63.701333 15.36-92.928L57.173333 290.218667A491.861333 491.861333 0 0 0 4.693333 512c0 79.701333 18.858667 154.88 52.394667 221.610667l172.202667-129.066667A290.56 290.56 0 0 1 214.101333 512" fill="#FBBC05"></path>
    <path d="M516.693333 216.192c72.106667 0 137.258667 25.002667 188.458667 65.962667L854.101333 136.533333C763.349333 59.178667 646.997333 11.392 516.693333 11.392c-202.325333 0-376.234667 113.28-459.52 278.826667l172.373334 128.853333c39.68-118.016 152.832-202.88 287.146666-202.88" fill="#EA4335"></path>
    <path d="M516.693333 807.808c-134.357333 0-247.509333-84.864-287.232-202.88l-172.288 128.853333c83.242667 165.546667 257.152 278.826667 459.52 278.826667 124.842667 0 244.053333-43.392 333.568-124.757333l-163.584-123.818667c-46.122667 28.458667-104.234667 43.776-170.026666 43.776" fill="#34A853"></path>
    <path d="M1005.397333 512c0-29.568-4.693333-61.44-11.648-91.008H516.650667V614.4h274.602666c-13.696 65.962667-51.072 116.650667-104.533333 149.632l163.541333 123.818667c93.994667-85.418667 155.136-212.650667 155.136-375.850667" fill="#4285F4"></path>
  </symbol>
</svg>
