<svg width="0" height="0" class="hidden">
	<symbol xmlns="http://www.w3.org/2000/svg" viewBox="0 0 72 73" id="delivery">
		<g clip-path="url(#clip0_335_798)">
			<path
				d="M54.3779 43.791C49.3735 43.791 45.3022 47.8622 45.3022 52.8667C45.3022 57.8711 49.3735 61.9423 54.3779 61.9423C59.3832 61.9423 63.4536 57.8711 63.4536 52.8667C63.4536 47.8622 59.3823 43.791 54.3779 43.791ZM54.3779 57.4045C51.8753 57.4045 49.8401 55.3692 49.8401 52.8667C49.8401 50.3641 51.8753 48.3288 54.3779 48.3288C56.8805 48.3288 58.9157 50.3641 58.9157 52.8667C58.9157 55.3694 56.8805 57.4045 54.3779 57.4045Z"></path>
			<path
				d="M23.3696 43.791C18.3652 43.791 14.2939 47.8622 14.2939 52.8667C14.2939 57.8711 18.3652 61.9423 23.3696 61.9423C28.374 61.9423 32.4453 57.8711 32.4453 52.8667C32.4453 47.8622 28.374 43.791 23.3696 43.791ZM23.3696 57.4045C20.867 57.4045 18.8318 55.3692 18.8318 52.8667C18.8318 50.3641 20.867 48.3288 23.3696 48.3288C25.8715 48.3288 27.9074 50.3641 27.9074 52.8667C27.9074 55.3694 25.8722 57.4045 23.3696 57.4045Z"></path>
			<path
				d="M60.49 17.8139C60.1042 17.0478 59.32 16.5645 58.4623 16.5645H46.5127V21.1023H57.0631L63.2413 33.3907L67.2966 31.3516L60.49 17.8139Z"></path>
			<path d="M47.5714 50.6733H30.4033V55.2112H47.5714V50.6733Z"></path>
			<path
				d="M16.563 50.6733H8.69756C7.44431 50.6733 6.42871 51.6891 6.42871 52.9422C6.42871 54.1954 7.44445 55.211 8.69756 55.211H16.5631C17.8164 55.211 18.832 54.1953 18.832 52.9422C18.832 51.6889 17.8162 50.6733 16.563 50.6733Z"></path>
			<path
				d="M71.5236 36.8028L67.0607 31.0549C66.632 30.5013 65.9702 30.1775 65.269 30.1775H48.7816V14.2952C48.7816 13.042 47.7659 12.0264 46.5127 12.0264H8.69755C7.4443 12.0264 6.42871 13.0421 6.42871 14.2952C6.42871 15.5483 7.44445 16.5641 8.69755 16.5641H44.2438V32.4464C44.2438 33.6996 45.2595 34.7152 46.5126 34.7152H64.158L67.4622 38.9717V50.6732H61.1849C59.9316 50.6732 58.916 51.689 58.916 52.9421C58.916 54.1953 59.9318 55.2109 61.1849 55.2109H69.7311C70.9843 55.2109 71.9999 54.1952 72 52.9421V38.1944C72 37.6907 71.8321 37.2006 71.5236 36.8028Z"></path>
			<path
				d="M16.412 39.1777H5.9749C4.72165 39.1777 3.70605 40.1935 3.70605 41.4466C3.70605 42.6998 4.72179 43.7154 5.9749 43.7154H16.4118C17.6651 43.7154 18.6807 42.6997 18.6807 41.4466C18.6808 40.1935 17.6651 39.1777 16.412 39.1777Z"></path>
			<path
				d="M21.6302 30.2534H2.26884C1.01573 30.2534 0 31.2692 0 32.5224C0 33.7757 1.01573 34.7912 2.26884 34.7912H21.6302C22.8835 34.7912 23.8991 33.7755 23.8991 32.5224C23.8991 31.2693 22.8835 30.2534 21.6302 30.2534Z"></path>
			<path
				d="M25.3363 21.3291H5.9749C4.72165 21.3291 3.70605 22.3448 3.70605 23.5979C3.70605 24.8512 4.72179 25.8668 5.9749 25.8668H25.3363C26.5895 25.8668 27.6051 24.8511 27.6051 23.5979C27.6053 22.3448 26.5895 21.3291 25.3363 21.3291Z"></path>
		</g>
		<defs>
			<clipPath id="clip0_335_798">
				<rect width="72" height="72" fill="white" transform="translate(0 0.984375)"></rect>
			</clipPath>
		</defs>
	</symbol>
	<symbol xmlns="http://www.w3.org/2000/svg" viewBox="0 0 72 73" id="handshake">
		<path
			d="M65.9587 9.16315C57.6416 0.799086 43.9153 1.21487 35.9966 9.90899C28.0772 1.21517 14.3516 0.798932 6.03445 9.1633C-2.23621 17.3998 -1.95446 30.9628 6.56717 38.9125C2.20749 43.0763 4.70509 50.5584 10.6391 51.2878C10.2836 55.3511 13.7421 59.0773 17.8329 59.0082C18.0837 63.4813 22.5733 66.6832 26.8776 65.5011C28.2897 70.8302 35.0781 72.6512 38.9726 68.729C41.1844 66.5304 42.9434 65.1439 43.0556 61.814C46.7103 61.7122 49.8725 58.507 49.9282 54.8544C53.6181 54.7975 56.8329 51.5816 56.8897 47.8928C60.7176 47.8346 64.0366 44.3798 63.8584 40.4796L65.9584 38.3797C74.0136 30.3247 74.0136 17.2181 65.9587 9.16315ZM9.73353 42.2745L11.7059 40.3021C12.2157 39.7923 12.8851 39.5375 13.5548 39.5375C15.851 39.5223 17.0495 42.3612 15.4033 43.9995L13.4309 45.9719C10.8778 48.3224 7.38273 44.8288 9.73353 42.2745ZM15.2333 51.7812C15.2333 51.0827 15.5054 50.4261 15.9991 49.9323L17.9726 47.959C18.4663 47.4658 19.1224 47.1942 19.8203 47.1942C22.136 47.1902 23.3098 50.0225 21.6689 51.6574L19.9286 53.3978C19.3966 54.0007 18.6659 54.4086 17.8477 54.3955C16.4426 54.4245 15.2042 53.1865 15.2333 51.7812ZM23.1928 60.3593C22.1786 59.3861 22.1786 57.6351 23.1928 56.662L24.9332 54.9215C25.9478 53.7169 27.7291 53.5601 28.8628 54.6894C29.8821 55.7089 29.8821 57.3672 28.8628 58.3868L26.8902 60.3594C25.8709 61.3792 24.2123 61.379 23.1928 60.3593ZM37.6809 63.4924L35.7085 65.4648C35.2147 65.9586 34.5581 66.2306 33.8598 66.2306C33.1614 66.2306 32.5048 65.9586 32.011 65.4648C30.9969 64.4915 30.9964 62.7405 32.0111 61.7674L33.9834 59.795C35.0027 58.7755 36.6615 58.7755 37.6808 59.7948C38.6951 60.7681 38.6953 62.5191 37.6809 63.4924ZM58.479 42.5203C57.5057 43.5345 55.7547 43.5347 54.7816 42.5203L44.5091 32.2478L41.2449 35.5121L51.5173 45.7845C52.5366 46.804 52.5366 48.4625 51.5173 49.4819C50.4979 50.5016 48.8394 50.5013 47.82 49.4819L37.7217 39.3836L37.5475 39.2094L34.2833 42.4737L34.4575 42.6479L44.5557 52.7461C45.5752 53.7656 45.5752 55.4242 44.5557 56.4437C43.5363 57.4631 41.8776 57.4631 40.8582 56.4437L40.8562 56.4457C38.9806 54.6324 36.3593 54.0353 33.9917 54.6545C33.238 51.5748 30.1421 49.2432 27.0288 49.3111C26.8779 45.9962 24.0755 43.0018 20.7637 42.644C21.2007 36.9567 14.9545 33.04 10.0251 35.8417C3.16 29.7093 2.73714 18.9441 9.29898 12.4274C15.8231 5.85753 26.6029 6.29285 32.7327 13.1732L27.0259 18.88L31.5987 23.4528C35.1113 26.9656 40.5241 27.449 44.5599 24.9032L58.4794 38.8229C59.4982 39.8422 59.4983 41.5008 58.479 42.5203ZM62.6945 35.1155L61.9911 35.8187C61.9109 35.7304 61.8283 35.6436 61.7433 35.5587L44.7413 18.5565L43.1091 20.1885C40.8357 22.4619 37.1365 22.4622 34.8626 20.1885L33.5541 18.88L40.0066 12.4274C55.6808 -1.99919 77.1179 19.4515 62.6945 35.1155Z"></path>
	</symbol>
	<symbol xmlns="http://www.w3.org/2000/svg" viewBox="0 0 72 73" id="verified">
		<g clip-path="url(#clip0_335_829)">
			<path
				d="M64.641 12.5649L37.0785 1.12125C36.388 0.834654 35.6119 0.834514 34.9215 1.12125L7.35905 12.5649C6.30928 13.0008 5.625 14.0257 5.625 15.1624V29.0737C5.625 48.2287 17.2025 65.459 34.9372 72.6977C35.6183 72.9757 36.3815 72.9757 37.0628 72.6977C54.7972 65.4592 66.375 48.2288 66.375 29.0737V15.1624C66.375 14.0257 65.6909 13.0008 64.641 12.5649ZM60.75 29.0737C60.75 45.3574 51.1875 60.3476 36 67.0388C21.2183 60.5263 11.25 45.7987 11.25 29.0737V17.04L36 6.76397L60.75 17.04V29.0737ZM32.8913 38.5538L44.98 26.4653C46.0783 25.367 47.859 25.3668 48.9575 26.4653C50.0559 27.5637 50.0557 29.3444 48.9573 30.4427L34.8801 44.52C33.7815 45.6185 32.0008 45.6181 30.9026 44.52L23.0425 36.6599C21.9441 35.5614 21.9441 33.7807 23.0425 32.6824C24.141 31.5841 25.9217 31.584 27.02 32.6824L32.8913 38.5538Z"></path>
		</g>
		<defs>
			<clipPath id="clip0_335_829">
				<rect width="72" height="72" fill="white" transform="translate(0 0.90625)"></rect>
			</clipPath>
		</defs>
	</symbol>
	<symbol id="close" xmlns="http://www.w3.org/2000/svg" xmlns:xlink="http://www.w3.org/1999/xlink"
		x="0px" y="0px" viewBox="0 0 200.2 200">
		<path
			d="M194.8,30.1L125,100l69.9,69.9l0,0c3.2,3.2,5.2,7.6,5.2,12.5c0,9.7-7.9,17.6-17.6,17.6
	c-4.9,0-9.3-2-12.5-5.2l0,0L100,125l-69.9,69.9l0,0c-3.2,3.2-7.6,5.2-12.5,5.2C7.9,200,0,192.1,0,182.4c0-4.9,2-9.3,5.2-12.5l0,0
	L75,100L5.2,30.1l0,0C2,26.9,0,22.5,0,17.6C0,7.9,7.9,0,17.6,0c4.9,0,9.3,2,12.5,5.2l0,0L100,75l69.9-69.9l0,0
	C173.1,2,177.5,0,182.4,0c9.7,0,17.6,7.9,17.6,17.6C200,22.5,198,26.9,194.8,30.1L194.8,30.1z"></path>
	</symbol>

	<symbol id="menu" xmlns="http://www.w3.org/2000/svg" xmlns:xlink="http://www.w3.org/1999/xlink"
		x="0px" y="0px" viewBox="0 0 200 200">
		<path
			d="M179.4,86.7h-159c-7.3,0-13.3,6-13.3,13.3c0,7.3,6,13.3,13.3,13.3h159c7.3,0,13.3-6,13.3-13.3
	C192.7,92.7,186.7,86.7,179.4,86.7L179.4,86.7z M179.3,146.6h-159c-7.3,0-13.3,6-13.3,13.3c0,7.3,6,13.3,13.3,13.3h159
	c7.3,0,13.3-6,13.3-13.3C192.6,152.6,186.7,146.6,179.3,146.6z M179.5,27.4h-159c-7.3,0-13.3,6-13.3,13.3c0,7.3,6,13.3,13.3,13.3
	h159c7.3,0,13.3-6,13.3-13.3C192.9,33.4,186.9,27.4,179.5,27.4L179.5,27.4z"></path>
	</symbol>
	<symbol id="menu2" xmlns="http://www.w3.org/2000/svg" xmlns:xlink="http://www.w3.org/1999/xlink"
		x="0px" y="0px" viewBox="0 0 200 200">
		<path
			d="M179.3,27.4H60.5c-7.3,0-13.3,6-13.3,13.3S53.2,54,60.5,54h118.8c7.3,0,13.3-6,13.3-13.3
	S186.6,27.4,179.3,27.4z M179.3,86.8H60.5c-7.3,0-13.3,6-13.3,13.3s6,13.3,13.3,13.3h118.8c7.3,0,13.3-6,13.3-13.3
	C192.6,92.7,186.6,86.7,179.3,86.8L179.3,86.8z M179.3,146.6H60.5c-7.3,0-13.3,6-13.3,13.3c0,7.3,6,13.3,13.3,13.3h118.8
	c7.3,0,13.3-6,13.3-13.3C192.6,152.6,186.6,146.6,179.3,146.6z M20.4,27.6c-7.2,0-13.1,5.9-13.1,13.1v0.4c0,7.2,5.9,13.1,13.1,13.1
	c7.2,0,13.1-5.9,13.1-13.1v-0.4C33.6,33.5,27.7,27.6,20.4,27.6z M20.4,87c-7.2,0-13.1,5.9-13.1,13.1v0.4c0,7.2,5.9,13.1,13.1,13.1
	c7.2,0,13.1-5.9,13.1-13.1v-0.4C33.6,92.9,27.7,87,20.4,87z M20.4,146.9c-7.2,0-13.1,5.9-13.1,13.1v0.4c0,7.2,5.9,13.1,13.1,13.1
	c7.2,0,13.1-5.9,13.1-13.1V160C33.6,152.8,27.7,146.9,20.4,146.9z"></path>
	</symbol>

	<symbol xmlns="http://www.w3.org/2000/svg" xmlns:xlink="http://www.w3.org/1999/xlink"
		viewBox="0 0 1024 1024" id="quit">
		<path
			d="M887.3 492.3L759.8 333c-6.2-7.7-15.4-12-24.9-12-3.5 0-7.1 0.6-10.5 1.8-12.8 4.5-21.3 16.6-21.3 30.1v95.6h-255c-35.2 0-63.7 28.5-63.7 63.7s28.5 63.7 63.7 63.7H703v95.6c0 13.5 8.6 25.6 21.3 30.1 3.5 1.2 7 1.8 10.5 1.8 9.5 0 18.7-4.3 24.9-12L887.2 532c9.4-11.5 9.4-28 0.1-39.7zM575.5 767.2H320.1c-34.9 0-63.3-28.5-63.3-63.7V321v-0.5c0-34.9 28.5-63.2 63.8-63.2h254.9c35.2 0 63.8-28.5 63.8-63.7s-28.5-63.7-63.8-63.7H256.8c-70.4 0-127.5 57.1-127.5 127.5v510c0 70.4 57.1 127.5 127.5 127.5h318.7c35.2 0 63.8-28.5 63.8-63.7 0-35.4-28.6-64-63.8-64z m0 0"></path>
	</symbol>
	<symbol id="failed" xmlns="http://www.w3.org/2000/svg"
		xmlns:xlink="http://www.w3.org/1999/xlink"
		x="0px" y="0px" viewBox="0 0 200 200">
		<path
			d="M100,12.8c-48.2,0-87.2,39.1-87.2,87.2c0,48.2,39.1,87.2,87.2,87.2s87.2-39.1,87.2-87.2
	C187.2,51.8,148.2,12.8,100,12.8L100,12.8z M140,124.6c1.3,1.3,1.3,3.5,0,4.8L129.4,140c-1.3,1.3-3.5,1.3-4.8,0L100,115.4L75.4,140
	c-1.3,1.3-3.5,1.3-4.8,0L60,129.4c-1.3-1.3-1.3-3.5,0-4.8L84.6,100L60,75.4c-1.3-1.3-1.3-3.5,0-4.8L70.6,60c1.3-1.3,3.5-1.3,4.8,0
	L100,84.6L124.6,60c1.3-1.3,3.5-1.3,4.8,0L140,70.6c1.3,1.3,1.3,3.5,0,4.8L115.4,100L140,124.6L140,124.6z"></path>
	</symbol>
	<symbol id="success-fill" xmlns="http://www.w3.org/2000/svg"
		xmlns:xlink="http://www.w3.org/1999/xlink" x="0px" y="0px" viewBox="0 0 200 200">
		<path
			d="M164.9,100c0,35.8-29.1,64.9-64.9,64.9S35.1,135.8,35.1,100S64.2,35.1,100,35.1
	S164.9,64.2,164.9,100z M136.6,83.9l-7.9-7.9c-0.5-0.5-1.4-0.5-1.9,0c0,0,0,0,0,0l-37.5,37.5L73.4,97.7c-0.5-0.5-1.4-0.5-1.9,0
	c0,0,0,0,0,0l-7.9,7.9c-0.5,0.5-0.5,1.4,0,1.9c0,0,0,0,0,0l25.6,25.6l47.3-47.3C137.1,85.3,137.1,84.5,136.6,83.9
	C136.6,84,136.6,84,136.6,83.9L136.6,83.9z"></path>
	</symbol>
	<symbol xmlns="http://www.w3.org/2000/svg" viewBox="0 0 1024 1024" id="success-fill2">
		<path
			d="M725.333 318.293L442.88 630.613 322.987 512a34.133 34.133 0 0 0-48.214 48.213L419.84 705.28a34.133 34.133 0 0 0 49.493 0l306.774-338.773a34.133 34.133 0 1 0-50.774-48.214zM512 981.333A469.333 469.333 0 1 1 981.333 512 469.333 469.333 0 0 1 512 981.333z"></path>
	</symbol>
	<symbol id="success" xmlns="http://www.w3.org/2000/svg"
		xmlns:xlink="http://www.w3.org/1999/xlink"
		x="0px" y="0px" viewBox="0 0 200 200">
		<path
			d="M100,0C45,0,0,45,0,100s45,100,100,100s100-45,100-100S155,0,100,0z M100,187.5
	c-48.8,0-87.5-40-87.5-87.5c0-48.8,40-87.5,87.5-87.5c48.8,0,87.5,38.8,87.5,87.5S148.8,187.5,100,187.5z M135,66.3l-46.3,46.3
	L65,88.8c-3.8-3.8-10-3.8-15,0c-2.5,5-2.5,11.3,1.3,15l30,30c3.8,3.8,10,3.8,13.8,0l10-10L148.8,80c3.8-3.8,5-10,0-13.8
	C145,62.5,138.8,62.5,135,66.3z"></path>
	</symbol>
	<symbol xmlns="http://www.w3.org/2000/svg" viewBox="0 0 1024 1024" id="success2">
		<path
			d="M469.333333 640l0.384 0.384L469.333333 640z m-106.282666 0l-0.384 0.384 0.384-0.384z m48.512 106.666667a87.466667 87.466667 0 0 1-61.653334-24.874667l-179.52-173.632a67.797333 67.797333 0 0 1 0-98.24c28.032-27.157333 73.493333-27.157333 101.589334 0l139.584 134.997333 319.168-308.544c28.032-27.157333 73.493333-27.157333 101.589333 0a67.925333 67.925333 0 0 1 0 98.24L472.981333 722.069333A87.530667 87.530667 0 0 1 411.562667 746.666667z"></path>
	</symbol>

	<symbol id="telegram" xmlns="http://www.w3.org/2000/svg"
		xmlns:xlink="http://www.w3.org/1999/xlink" x="0px" y="0px" viewBox="0 0 125.2 110.2">
		<polygon
			points="120.7,3.2 6.3,47.7 4.7,52.8 35,63.6 45.6,97 49.8,100.8 67.3,84.5 96.9,106.4 102.8,105.4 
	"
			style="display:none"></polygon>
		<path id="_1-3"
			d="M114.4,1.9c-0.9,0.5-1.8,0.8-2.8,1c-1.2,0.1-2.2,0.5-3.1,1.3c-1,0.7-2.1,1.3-3.2,1.8
	c-1.6,0.7-3.3,1.2-5.1,1.5c-1.9,0.5-3.4,1.7-5.4,1.9c-1.2,0.1-2.4,0.5-3.5,1.2c-2.1,1.7-4.6,2.3-7.1,3.1c-2.4,0.8-4.7,1.7-6.9,2.8
	c-1,0.5-2,1.2-3.1,1.6c-4.2,1.6-8.7,2.5-12.6,5.1c-0.4,0.3-0.9,0.5-1.4,0.6c-2.4,0.6-4.7,1.4-7.1,2C49.9,26.7,47,28.5,44,30
	c-0.8,0.2-1.5,0.5-2.2,0.8c-1.6,1.2-3.4,2-5.4,2.4c-3.7,0.6-7.2,1.8-10.4,3.7c-2.2,1.1-4.4,2.1-6.8,2.9c-3,1-5.9,2.2-8.9,3.3
	c-2,0.7-3.5,2.5-5.9,2.3c-0.6,0.1-1.1,0.4-1.3,1c-0.4,1-0.8,1.9-1.3,2.8c-0.8,1.6-0.1,5.2,1.4,6.1C5,56.5,6.6,58,9,58.2
	s4.6,1.3,6.8,2.2c3.2,1.3,6.5,2.3,9.9,2.9c2.6,0.5,4.8,2,7.4,2.3c0.7,0.1,0.8,0.6,0.8,1.1c0.2,4.3,2.3,8.1,3.7,12
	c0.9,2.6,2.5,4.9,3.2,7.7c0.4,1.4,1,2.8,1.9,4c0.9,1.2,0.7,3.2,1.4,4.7c0.9,2.1,0.8,4.5,2.3,6.4c1,1.2,3.1,1.9,4.1,0.9
	s2.4-2,3.5-3.1c2.4-2.2,4.8-4.5,7.4-6.5c2.1-1.6,4.3-3.1,5.2-5.7c0.2-0.5,0.6-0.5,0.9,0c1.1,1.8,3.2,2.2,4.6,3.8
	c1,1.1,2.7,1.8,4.1,2.7c3.2,2,5.7,4.8,8.8,6.9c2.5,1.8,4.7,4.1,7.2,5.8c1.6,1.1,3.2,2.6,5.8,2.2c0.8,0.1,1.7,0,2.5-0.1
	c0.9,0,1.5-0.9,2.5-1c1.2-0.1,2.7-3.2,2.8-4.4c0.3-2.2,0.7-4.4,1.2-6.6s1.3-4.6,1.8-7c0.5-2.1,0.2-4.4,1-6.5c0.6-1.7-0.2-3.4,0.3-5
	c1.2-4.3,2.2-8.6,2.9-12.9c1-4.9,2.4-9.7,3-14.8c0.3-3.2,0.9-6.4,1.6-9.6c0.6-2.8,1.1-5.7,1.9-8.5c0.4-1.7,0.6-3.5,0.7-5.3
	c0.2-2,0.6-4.1,0.9-6.1c0.1-1.6,0.4-3.3,0.9-4.8c0.6-2.1,1-4.3,1.4-6.5c0.4-1.4,0.4-2.9,0-4.3C122.6,2.6,116.8,0.6,114.4,1.9z
	 M49,74.5c-0.3,3.1-0.3,6.3-0.5,9.4c-0.2,2-0.7,4-1.2,6.4c-1-2.3-1.9-4.6-2.5-7.1c-0.7-3.1-1.6-6.1-2.8-9c-0.5-1.3-1.2-2.6-1.7-3.9
	c-0.7-1.8-2-3.1-2.6-4.9c-0.2-0.7-0.1-0.7,0.4-1.1c1.8-1.7,4.4-2.2,6.3-3.6c2.5-1.9,5.7-2.4,8-4.7c1.9-2,4.7-2.7,7-4.1
	c2.6-1.6,5.5-3.1,7.6-5.1c3.1-3,7.4-4.2,10.2-7.5c2.8-0.4,4.4-3,7.3-4.4c-0.9,1.7-2.1,3.1-3.6,4.2c-1.9,1.7-3.2,3.9-5.2,5.5
	c-2.6,2.1-4.9,4.6-7.3,6.9s-5,4.3-7.2,6.8c-3.1,3.7-6.4,7.2-10,10.4C49.4,70,49.3,72.3,49,74.5z M62,85.5c-2.8,1.8-4.7,4.6-7.3,6.4
	c-0.8,0.6-0.8,1.9-2,2.1c-0.2,0-0.5,0.4-0.8-0.1c-0.1-0.2-0.2-0.5,0-0.6c1.3-1.1,0.8-2.8,1-4.2c0.4-2.6,0.3-5.3,0.9-7.9
	c0.2-1-0.5-2.1,0.5-3c0.4-0.4,0.7-0.6,0.9-0.2c0.7,1.3,3.1,0.8,3.1,2.8c1.8,0.1,2.3,2,3.7,2.6c0.4,0.1,0.7,0.4,0.8,0.9
	C62.8,84.8,62.5,85.3,62,85.5L62,85.5z M118.8,6.3c-0.4,1.6-0.6,3.2-0.6,4.8c-0.2,4.2-1.9,8-2.6,12.1c-0.4,3.2-1,6.3-1.8,9.4
	c-0.4,1.6,0,3.5-0.5,5.1c-0.8,2.8-0.9,5.8-1.7,8.6c-0.8,2.3-1.3,4.8-1.4,7.3c0,1.8-0.8,3.7-1.1,5.5c-0.6,3.9-1.1,7.9-1.9,11.8
	c-0.7,3.6-0.9,7.3-2.2,11c-0.8,2.3-0.6,5-1,7.5c-0.4,2.9-1,5.7-1.7,8.5c-0.4,1.1-0.7,2.3-0.6,3.4c0.2,1.5-1.5,3.1-3,3.1
	c-1,0-1.9-0.5-2.4-1.3c-1.5-2-3.8-3-5.7-4.4c-2.4-1.7-4.8-3.3-6.7-5.5c-0.9-0.8-1.9-1.5-3-1.9c-4.4-2.4-7.9-5.9-11.7-9.1
	c-2.9-2.4-5.9-4.5-8.9-6.8c-1.3-1-2.5-2.2-3.9-3.2c-0.6-0.4-0.2-0.5,0-0.7c1-1.4,2.1-2.6,3.4-3.8c2.2-2.3,4.2-4.7,6.4-6.9
	c2.8-2.8,5.4-6,8.7-8.4c0.9-0.8,1.7-1.7,2.4-2.7c2.6-3,5.5-5.8,8.1-8.8c1.2-1.4,2.5-3.1,4.6-3.9c1-0.3,1.3-1.7,2-2.4
	c2.8-2.7,4.7-6.1,7.6-8.6c1.2-1.2,2.4-2.3,3.7-3.3c1-0.7,1.5-1.8,0.4-2.8c-0.8-0.7-1.6-1.6-3.1-0.5c-1.8,1.3-4.1,1.8-6,3.2
	c-2.7,2-5.9,3.2-8.5,5.3c-1.6,1.2-3.1,2.5-4.7,3.7c-1.4,1-3.1,1.5-4.6,2.4c-2.8,1.9-5.6,3.8-8.6,5.6c-2.3,1.4-4.5,3.1-7.1,4
	c-0.7,0.3-1.4,0.7-2,1.2c-2.3,1.7-4.6,3.5-7,5.2c-1.7,1.3-3.7,2.4-5.5,3.7c-2.5,1.7-5.2,3.3-7.7,5c-1,0.8-2.1,1.5-3.2,2.2
	c-1.1,0.6-2.5,0.7-3.7,0.1c-2.2-0.8-4.4-1.7-6.5-2.8c-1.4-0.7-3-0.7-4.4-1.3c-2.8-1.1-5.8-1.8-8.7-2.7c-2-0.6-3.8-1.8-6.1-1.6
	c-0.7,0-1.3-0.6-1.3-1.3c0,0,0,0,0,0c0-0.5,0.4-1,1.3-1.4c2.2-0.9,4.7-1.3,6.8-2.5s4.2-1.9,6.2-3c1.6-0.8,3.4-1.2,5.2-1.4
	c0.2,0,0.5,0.1,0.7,0c2.4-2,5.6-2.4,8.4-3.6c0.9-0.4,1.8-0.9,2.6-1.4c2.3-1.5,5.4-1.2,7.5-2.8c1.9-1.5,4.3-1.6,6.3-2.4
	c1.7-0.7,3.5-1.4,5.3-2.1c2.2-0.8,4.2-2.3,6.5-2.9c3.5-0.9,6.6-2.8,10-3.9c1.5-0.5,2.9-1.2,4.2-2c1.4-0.8,3.2-0.9,4.8-1.6
	c3.5-1.6,7.3-2.7,10.9-3.9c2.3-0.8,4.4-2.4,6.7-3.2c1.6-0.7,3.2-1.3,4.8-1.7c0.7-0.1,1.4-0.4,1.9-0.9c1.2-0.8,2.7-0.5,3.9-1.2
	c2.6-1.7,5.8-1.9,8.4-3.4C118.3,5.5,119,5.7,118.8,6.3z"></path>
	</symbol>
	<symbol id="telegram-fill" xmlns="http://www.w3.org/2000/svg"
		xmlns:xlink="http://www.w3.org/1999/xlink" x="0px" y="0px" viewBox="0 0 176.6 147.7">
		<path
			d="M175.1,14.2l-26.4,124.5c-2,8.8-7.2,11-14.6,6.8l-40.2-29.6l-19.4,18.7c-2.1,2.1-3.9,3.9-8.1,3.9
	l2.9-41l74.6-67.4c3.2-2.9-0.7-4.5-5-1.6l-92.2,58L6.9,74.2c-8.6-2.7-8.8-8.6,1.8-12.8L163.9,1.6C171.1-1.1,177.4,3.2,175.1,14.2z"></path>
	</symbol>
	<symbol xmlns="http://www.w3.org/2000/svg" xmlns:xlink="http://www.w3.org/1999/xlink"
		viewBox="0 0 1024 1024" id="telegram-fill2">
		<path
			d="M883.626667 155.925333s82.88-32.32 75.946666 46.165334c-2.282667 32.32-22.997333 145.450667-39.125333 267.797333l-55.253333 362.453333s-4.608 53.098667-46.058667 62.336c-41.429333 9.216-103.594667-32.32-115.114667-41.557333-9.216-6.933333-172.672-110.826667-230.229333-161.6-16.128-13.866667-34.56-41.557333 2.304-73.877333L717.824 386.773333c27.626667-27.690667 55.253333-92.330667-59.861333-13.845333l-322.346667 219.306667s-36.842667 23.104-105.898667 2.325333l-149.674666-46.186667s-55.253333-34.624 39.146666-69.248c230.250667-108.501333 513.450667-219.306667 764.394667-323.2z"></path>
	</symbol>
	<symbol id="twitter_2023" xmlnsInkscape="http://www.inkscape.org/namespaces/inkscape"
		xmlnsSodipodi="http://sodipodi.sourceforge.net/DTD/sodipodi-0.dtd"
		xmlnsSvg="http://www.w3.org/2000/svg" xmlns="http://www.w3.org/2000/svg"
		xmlns:xlink="http://www.w3.org/1999/xlink" x="0px" y="0px" viewBox="0 0 697.7 698.3">
		<sodipodi:namedview bordercolor="#666666" borderopacity="1.0" id="namedview7"
			inkscapeCurrentLayer="layer1" inkscapeCx="-391.86709" inkscapeCy="780.61174"
			inkscapeDocumentUnits="mm" inkscapePagecheckerboard="0" inkscapePageopacity="0.0"
			inkscapePageshadow="2" inkscapeWindowHeight="1017" inkscapeWindowMaximized="1"
			inkscapeWindowWidth="1920" inkscapeWindowX="-8" inkscapeWindowY="-8"
			inkscapeZoom="0.32026164"
			pagecolor="#ffffff" showgrid="false"></sodipodi:namedview>
		<g transform="translate(10.164159,-14.177668)" inkscapeGroupmode="layer"
			inkscapeLabel="Layer 1">
			<path
				d="M415.4,298.2L636,47.1c11.2-12.8,2.2-32.9-14.9-32.9h-8.8c-5.7,0-11.1,2.5-14.9,6.7L394.3,252
		c-8.5,9.6-23.7,8.8-31.1-1.7L203.5,22.6c-3.7-5.3-9.8-8.4-16.2-8.4H27.9c-16,0-25.4,18.1-16.2,31.2l241.6,344.3
		c5.2,7.5,4.7,17.6-1.3,24.4L18.7,679.6c-11.2,12.8-2.2,32.9,14.9,32.9h8.8c5.7,0,11.1-2.5,14.9-6.7l215.6-245.5
		c8.5-9.6,23.7-8.8,31.1,1.7l169.8,242.1c3.7,5.3,9.8,8.4,16.2,8.4h159.4c16,0,25.4-18,16.2-31.2L414,322.6
		C408.8,315.2,409.3,305.1,415.4,298.2z M320.8,405.8l-27.6-38.7L96,90.9c-9.4-13.1,0-31.3,16.1-31.3h45.8c6.4,0,12.4,3.1,16.1,8.3
		l171.4,240l27.5,38.7l208,291.4c9.4,13.1,0,31.3-16.1,31.3H519c-6.4,0-12.4-3.1-16.1-8.3L320.8,405.8z"></path>
		</g>
	</symbol>
	<symbol id="youtube" xmlns="http://www.w3.org/2000/svg"
		xmlns:xlink="http://www.w3.org/1999/xlink"
		x="0px" y="0px" viewBox="0 0 200 200">
		<path
			d="M187.5,99.5c0-0.4,0-0.9,0-1.5c0-1.6-0.1-3.4-0.1-5.3c-0.2-5.4-0.4-10.9-0.9-16c-0.6-7.1-1.4-12.9-2.6-17.3
	c-2.5-9.4-9.8-16.7-19.2-19.2c-5.5-1.5-16.3-2.4-31.6-3c-7.2-0.3-15-0.4-22.8-0.5c-2.7,0-5.2-0.1-7.5-0.1h-5.7c-2.3,0-4.8,0-7.5,0.1
	c-7.8,0.1-15.5,0.3-22.8,0.5c-15.2,0.6-26.1,1.5-31.6,3C26,42.6,18.6,50,16.1,59.4c-1.2,4.4-2,10.3-2.6,17.3
	c-0.4,5.1-0.7,10.5-0.9,16c-0.1,1.9-0.1,3.7-0.1,5.3c0,0.6,0,1.1,0,1.5v1.1c0,0.4,0,0.9,0,1.5c0,1.6,0.1,3.4,0.1,5.3
	c0.2,5.4,0.4,10.9,0.9,16c0.6,7.1,1.4,12.9,2.6,17.3c2.5,9.4,9.8,16.7,19.2,19.2c5.5,1.5,16.3,2.4,31.6,3c7.2,0.3,15,0.4,22.8,0.5
	c2.7,0,5.2,0.1,7.5,0.1h5.7c2.3,0,4.8,0,7.5-0.1c7.8-0.1,15.5-0.3,22.8-0.5c15.2-0.6,26.1-1.5,31.6-3c9.4-2.5,16.7-9.9,19.2-19.2
	c1.2-4.4,2-10.3,2.6-17.3c0.4-5.1,0.7-10.5,0.9-16c0.1-1.9,0.1-3.7,0.1-5.3c0-0.6,0-1.1,0-1.5V100L187.5,99.5L187.5,99.5z
	 M173.4,100.5c0,0.4,0,0.9,0,1.4c0,1.5-0.1,3.2-0.1,5c-0.1,5.2-0.4,10.4-0.8,15.2c-0.5,6.3-1.3,11.4-2.2,14.9
	c-1.2,4.5-4.8,8.1-9.3,9.3c-4.1,1.1-14.4,2-28.5,2.5c-7.1,0.3-14.8,0.4-22.4,0.5c-2.7,0-5.2,0.1-7.4,0.1h-5.6c-2.2,0-4.7,0-7.4-0.1
	c-7.6-0.1-15.3-0.3-22.4-0.5c-14-0.5-24.4-1.4-28.5-2.5c-4.5-1.2-8-4.8-9.3-9.3c-0.9-3.5-1.7-8.6-2.2-14.9c-0.4-4.8-0.7-10-0.8-15.2
	c-0.1-1.8-0.1-3.5-0.1-5c0-0.5,0-1,0-1.4v-0.6v-0.4c0-0.4,0-0.9,0-1.4c0-1.5,0.1-3.2,0.1-5c0.1-5.2,0.4-10.4,0.8-15.2
	c0.5-6.3,1.3-11.4,2.2-14.9c1.2-4.5,4.8-8.1,9.3-9.3c4.1-1.1,14.4-2,28.5-2.5c7.1-0.3,14.8-0.4,22.4-0.5c2.7,0,5.2-0.1,7.4-0.1h5.6
	c2.2,0,4.7,0,7.4,0.1c7.6,0.1,15.3,0.3,22.4,0.5c14,0.5,24.4,1.4,28.5,2.5c4.5,1.2,8,4.8,9.3,9.3c0.9,3.5,1.7,8.6,2.2,14.9
	c0.4,4.8,0.7,10,0.8,15.2c0.1,1.8,0.1,3.5,0.1,5c0,0.5,0,1,0,1.4V100.5z"></path>
		<path d="M82.6,126.2l45.3-26.4l-45.3-26C82.6,73.8,82.6,126.2,82.6,126.2z"></path>
	</symbol>
	<symbol id="youtube-fill" xmlns="http://www.w3.org/2000/svg"
		xmlns:xlink="http://www.w3.org/1999/xlink" x="0px" y="0px" viewBox="0 0 200 200">
		<path
			d="M183.8,57.8c-2-7.5-7.9-13.5-15.5-15.5c-13.7-3.7-68.4-3.7-68.4-3.7s-54.7,0-68.4,3.7
	c-7.5,2-13.5,7.9-15.5,15.5c-3.7,13.7-3.7,42.2-3.7,42.2s0,28.5,3.7,42.2c2,7.5,7.9,13.5,15.5,15.5c13.7,3.7,68.4,3.7,68.4,3.7
	s54.7,0,68.4-3.7c7.5-2,13.5-7.9,15.5-15.5c3.7-13.7,3.7-42.2,3.7-42.2S187.5,71.5,183.8,57.8z M82.6,126.2V73.8l45.3,26L82.6,126.2
	z"></path>
	</symbol>
	<symbol id="facebook" xmlns="http://www.w3.org/2000/svg"
		xmlns:xlink="http://www.w3.org/1999/xlink" x="0px" y="0px" viewBox="0 0 200 200">
		<path
			d="M116.3,200H87.5c-7.8,0-14.1-6.3-14.1-14.1v-70.3H53.1c-7.8,0-14.1-6.3-14.1-14.1V80c0-7.8,6.3-14.4,14.1-14.4
	h20.3V48.4C73.4,20,92.8,0,120.3,0h26.6c4.4,0,7.8,3.4,7.8,7.8v40.6c0,4.4-3.4,7.8-7.8,7.8h-17.2v9.4h17.2c4.4,0.3,8.4,2.2,10.9,5.6
	s3.8,7.5,2.8,11.9l-4.1,20.9c-0.9,6.6-6.6,11.6-13.8,11.6h-13.4v70.3C129.7,193.8,123.4,200,116.3,200z M89.1,184.4h25v-76.6
	c0-4.4,3.4-7.8,7.8-7.8h19.7l3.8-18.8H122c-4.4,0-7.8-3.4-7.8-7.8v-25c0-4.4,3.4-7.8,7.8-7.8h17.2v-25h-18.8
	c-19.1,0-31.3,12.8-31.3,32.8v25c0,4.4-3.4,7.8-7.8,7.8H54.7V100h26.6c4.4,0,7.8,3.4,7.8,7.8C89.1,107.8,89.1,184.4,89.1,184.4z"></path>
	</symbol>
	<symbol xmlns="http://www.w3.org/2000/svg" xmlns:xlink="http://www.w3.org/1999/xlink"
		viewBox="0 0 1024 1024" id="facebook-fill">
		<path
			d="M880 112H144c-17.7 0-32 14.3-32 32v736c0 17.7 14.3 32 32 32h736c17.7 0 32-14.3 32-32V144c0-17.7-14.3-32-32-32z m-92.4 233.5h-63.9c-50.1 0-59.8 23.8-59.8 58.8v77.1h119.6l-15.6 120.7h-104V912H539.2V602.2H434.9V481.4h104.3v-89c0-103.3 63.1-159.6 155.3-159.6 44.2 0 82.1 3.3 93.2 4.8v107.9z"></path>
	</symbol>
	<symbol id="instagram" xmlns="http://www.w3.org/2000/svg"
		xmlns:xlink="http://www.w3.org/1999/xlink" x="0px" y="0px" viewBox="0 0 200 200">
		<path
			d="M100,59.9c-22.2,0-40.1,17.9-40.1,40.1s17.9,40.1,40.1,40.1s40.1-17.9,40.1-40.1S122.2,59.9,100,59.9z
	 M100,126c-14.3,0-26-11.7-26-26s11.7-26,26-26s26,11.7,26,26S114.3,126,100,126z M141.7,49c-5.2,0-9.4,4.2-9.4,9.4s4.2,9.4,9.4,9.4
	s9.4-4.2,9.4-9.4C151,53.1,146.9,49,141.7,49z"></path>
		<path
			d="M178.1,100c0-10.8,0.1-21.5-0.5-32.2C177,55.3,174.1,44.2,165,35c-9.2-9.2-20.2-12-32.7-12.6
	c-10.8-0.6-21.5-0.5-32.2-0.5c-10.8,0-21.5-0.1-32.2,0.5C55.3,23,44.2,25.9,35.1,35c-9.2,9.2-12,20.2-12.6,32.7
	C21.9,78.6,22,89.2,22,100s-0.1,21.5,0.5,32.2c0.6,12.5,3.5,23.6,12.6,32.7c9.2,9.2,20.2,12,32.7,12.6c10.8,0.6,21.5,0.5,32.2,0.5
	c10.8,0,21.5,0.1,32.2-0.5c12.5-0.6,23.6-3.5,32.7-12.6c9.2-9.2,12-20.2,12.6-32.7C178.2,121.5,178.1,110.8,178.1,100L178.1,100z
	 M160.9,146.1c-1.4,3.6-3.1,6.2-5.9,8.9c-2.8,2.8-5.4,4.5-8.9,5.9c-10.3,4.1-34.7,3.2-46.1,3.2S64.2,165,53.9,161
	c-3.6-1.4-6.2-3.1-8.9-5.9c-2.8-2.8-4.5-5.4-5.9-8.9C35,135.9,36,111.5,36,100.1s-1-35.9,3.1-46.2c1.4-3.6,3.1-6.2,5.9-8.9
	c2.8-2.7,5.4-4.5,8.9-5.9C64.2,35,88.6,36,100,36s35.8-0.9,46.1,3.1c3.6,1.4,6.2,3.1,8.9,5.9c2.8,2.8,4.5,5.4,5.9,8.9
	C165,64.2,164,88.6,164,100S165,135.8,160.9,146.1z"></path>
	</symbol>
	<symbol xmlns="http://www.w3.org/2000/svg" xmlns:xlink="http://www.w3.org/1999/xlink"
		viewBox="0 0 1024 1024" id="instagram-fill">
		<path
			d="M512 359.657143c-83.885714 0-152.342857 68.457143-152.342857 152.342857S428.114286 664.342857 512 664.342857 664.342857 595.885714 664.342857 512 595.885714 359.657143 512 359.657143zM968.914286 512c0-63.085714 0.571429-125.6-2.971429-188.571429-3.542857-73.142857-20.228571-138.057143-73.714286-191.542857-53.6-53.6-118.4-70.171429-191.542857-73.714285-63.085714-3.542857-125.6-2.971429-188.571428-2.971429-63.085714 0-125.6-0.571429-188.571429 2.971429-73.142857 3.542857-138.057143 20.228571-191.542857 73.714285C78.4 185.485714 61.828571 250.285714 58.285714 323.428571c-3.542857 63.085714-2.971429 125.6-2.971428 188.571429s-0.571429 125.6 2.971428 188.571429c3.542857 73.142857 20.228571 138.057143 73.714286 191.542857 53.6 53.6 118.4 70.171429 191.542857 73.714285 63.085714 3.542857 125.6 2.971429 188.571429 2.971429 63.085714 0 125.6 0.571429 188.571428-2.971429 73.142857-3.542857 138.057143-20.228571 191.542857-73.714285 53.6-53.6 70.171429-118.4 73.714286-191.542857 3.657143-62.971429 2.971429-125.485714 2.971429-188.571429zM512 746.4c-129.714286 0-234.4-104.685714-234.4-234.4S382.285714 277.6 512 277.6 746.4 382.285714 746.4 512 641.714286 746.4 512 746.4z m244-423.657143c-30.285714 0-54.742857-24.457143-54.742857-54.742857s24.457143-54.742857 54.742857-54.742857 54.742857 24.457143 54.742857 54.742857a54.674286 54.674286 0 0 1-54.742857 54.742857z"></path>
	</symbol>
	<symbol id="medium" xmlns="http://www.w3.org/2000/svg"
		xmlns:xlink="http://www.w3.org/1999/xlink"
		x="0px" y="0px" viewBox="0 0 200 200">
		<path
			d="M90.3,72.5l36-57.7c1.7-2.7,5.2-3.7,8.1-2.3l62.2,30.8c2.4,1.2,3.8,3.8,3.4,6.4
	c0,0.3,0,0.5,0.1,0.8v132.8c0,3.5-2.8,6.2-6.3,6.2c-1,0-1.9-0.2-2.8-0.7l-62.5-31.5c-1.4-0.7-2.5-1.9-3-3.3L75,129v54.3
	c0,3.5-2.8,6.2-6.3,6.2c-1,0-1.9-0.2-2.8-0.7L3.4,157.2c-2.1-1-3.4-3.2-3.4-5.5V17.3C0,13.8,2.8,11,6.3,11c1,0,1.9,0.2,2.8,0.7
	l62.5,31.7c1.8,0.9,3,2.6,3.4,4.6L90.3,72.5L90.3,72.5z M97.6,84.3l5.3,8.6l28.5,45.3l53.3-86.7l-51-25.2L97.6,84.3z M92.4,99.5
	L85,87.7c-0.2-0.2-0.3-0.5-0.4-0.8L75,71.7v43.4l39.3,19.5L92.4,99.5L92.4,99.5z M62.5,52.8l-50-25.3v120.4l50,25.3V52.8L62.5,52.8z
	 M187.5,72.6l-47.4,76.7l47.4,23.9V72.6z"></path>
	</symbol>
	<symbol xmlns="http://www.w3.org/2000/svg" xmlns:xlink="http://www.w3.org/1999/xlink"
		viewBox="0 0 1024 1024" id="medium-fill">
		<path
			d="M341.138286 240.566857v670.281143c0 17.700571-8.557714 34.304-28.013715 34.304a42.057143 42.057143 0 0 1-18.870857-4.571429L28.525714 807.424c-16.018286-8.009143-28.562286-28.562286-28.562285-45.714286V110.262857c0-14.299429 6.838857-27.428571 22.272-27.428571 9.142857 0 17.152 4.571429 25.161142 8.557714l291.986286 146.285714a7.68 7.68 0 0 1 1.718857 2.852572z m36.571428 57.709714l305.152 494.848-305.152-151.990857V298.276571zM1024 308.553143v602.294857c0 18.870857-10.861714 32-29.696 32-9.728 0-18.870857-2.852571-26.843429-7.424l-252.013714-125.696z m-1.718857-68.534857c0 2.304-295.424 481.718857-318.281143 518.290285l-222.866286-362.276571 185.161143-301.129143a34.486857 34.486857 0 0 1 29.696-16.018286c5.156571 0 10.276571 1.133714 14.848 3.437715L1019.977143 236.617143c1.133714 0.585143 2.304 1.718857 2.304 3.437714z"></path>
	</symbol>
	<symbol id="reddit" xmlns="http://www.w3.org/2000/svg"
		xmlns:xlink="http://www.w3.org/1999/xlink"
		x="0px" y="0px" viewBox="0 0 200 200">
		<path
			d="M50,125c0-6.9,5.6-12.5,12.5-12.5S75,118.1,75,125c0,6.9-5.6,12.5-12.5,12.5S50,131.9,50,125z M125,125
	c0-6.9,5.6-12.5,12.5-12.5S150,118.1,150,125c0,6.9-5.6,12.5-12.5,12.5S125,131.9,125,125z M125.6,151.7c3.2-2.5,7.9-2,10.4,1.2
	s2,7.9-1.2,10.4c-9,7.1-22.6,11.6-34.8,11.6s-25.8-4.6-34.8-11.6c-3.2-2.5-3.8-7.2-1.2-10.4c2.5-3.2,7.2-3.8,10.4-1.2
	c5.2,4.1,15.4,8.4,25.6,8.4C110.2,160.2,120.5,155.8,125.6,151.7L125.6,151.7z M200,100c0-13.8-11.2-25-25-25
	c-9.4,0-17.6,5.2-21.8,12.9c-12.8-7-28.5-11.6-45.6-12.6l14.9-33.5l28.6,8.2c2.6,7.3,9.5,12.5,17.7,12.5c10.4,0,18.8-8.4,18.8-18.8
	S179.1,25,168.7,25c-7.1,0-13.3,4-16.5,9.9l-31.8-9.2c-3.6-1-7.3,0.7-8.8,4.1L91.3,75.3C74.7,76.5,59.4,81,46.9,87.9
	C42.6,80.2,34.4,75,25,75C11.2,75,0,86.2,0,100c0,10.2,6.1,19,14.9,22.9c-1.6,4.7-2.4,9.6-2.4,14.6C12.5,172,51.7,200,100,200
	s87.5-28,87.5-62.5c0-5-0.8-9.9-2.4-14.6C193.9,119,200,110.2,200,100L200,100z M168.8,36.7c3.9,0,7,3.1,7,7s-3.1,7-7,7s-7-3.1-7-7
	S164.9,36.7,168.8,36.7z M12.5,100c0-6.9,5.6-12.5,12.5-12.5c5,0,9.3,2.9,11.3,7.2c-6.5,5-11.9,10.7-16,16.9
	C15.8,109.7,12.5,105.2,12.5,100L12.5,100z M100,185.2c-40.1,0-72.7-21.3-72.7-47.7S59.9,89.8,100,89.8s72.7,21.3,72.7,47.7
	S140.1,185.2,100,185.2z M179.7,111.6c-4-6.3-9.4-12-16-16.9c2-4.2,6.3-7.2,11.3-7.2c6.9,0,12.5,5.6,12.5,12.5
	C187.5,105.2,184.2,109.7,179.7,111.6L179.7,111.6z"></path>
	</symbol>
	<symbol xmlns="http://www.w3.org/2000/svg" xmlns:xlink="http://www.w3.org/1999/xlink"
		viewBox="0 0 1024 1024" id="reddit-fill">
		<path
			d="M810.817 294.393c27.348 0 51.483-22.523 51.483-51.483s-22.523-51.483-51.483-51.483c-27.348 0-51.483 22.523-51.483 51.483 0 27.348 22.523 51.483 51.483 51.483zM518.015 727.16c-91.7 0-144.794-38.61-144.794-38.61-4.827-3.219-9.653-1.609-11.263 3.219l-9.653 17.696c-1.609 4.827-1.609 11.263 3.219 14.478 0 0 45.045 46.657 162.49 46.657s159.27-49.872 159.27-49.872c3.219-3.219 3.219-9.653 1.609-12.87l-11.263-16.090c-3.219-3.219-8.043-4.827-12.87-1.609 0-1.609-45.045 37.003-136.749 37.003zM352.311 603.284c27.348 0 51.483-22.523 51.483-51.483s-22.523-51.483-51.483-51.483c-27.348 0-51.483 22.523-51.483 51.483 1.609 28.959 24.132 51.483 51.483 51.483zM657.982 603.284c27.348 0 51.483-22.523 51.483-51.483s-22.523-51.483-51.483-51.483-51.483 22.523-51.483 51.483c0 28.959 22.523 51.483 51.483 51.483zM709.463 234.87c-8.043-3.219-94.919-32.174-131.922-6.434-38.61 27.348-37.003 117.441-33.786 117.441 85.266 6.434 164.097 32.174 223.622 72.396 4.827 3.219 56.308-41.828 112.617-32.174 56.308 9.653 94.919 62.742 77.222 122.268-17.696 57.917-72.396 75.615-70.787 93.309v14.478c0 149.619-170.532 270.278-381.285 270.278s-381.285-120.659-381.285-270.278c0-8.043 0-14.478 1.609-22.523 0-1.609-38.61-22.523-53.090-57.917-14.478-33.786-8.043-74.004 6.434-98.137 24.132-37.003 53.090-51.483 93.309-51.483s83.658 24.132 85.266 24.132c64.353-38.61 148.009-62.742 238.1-64.353 3.219 0-6.434-109.398 54.7-149.619 62.742-40.22 165.705 0 167.315 0v3.219c16.090-35.394 51.483-59.525 91.7-59.525 56.308 0 101.356 46.657 101.356 102.962 0 56.308-45.045 102.962-101.356 102.962s-101.356-46.657-101.356-102.962c0-3.219 0-6.434 1.609-8.043z"></path>
	</symbol>
	<symbol id="discord" xmlns="http://www.w3.org/2000/svg"
		xmlns:xlink="http://www.w3.org/1999/xlink"
		x="0px" y="0px" viewBox="0 0 200 200">
		<path
			d="M79.1,30.7l-4.9,0.6c0,0-21.9,2.4-37.9,15.2h-0.2l-0.2,0.2C32.3,50,30.8,54,28.3,60
	c-2.9,7.1-5.4,14.4-7.4,21.9c-4.6,16.8-8.4,37.1-8.4,55.7v1.6l0.8,1.6c5.8,10.2,16.1,16.6,25.6,21.1s17.8,6.8,23.4,7l3.7,0.2l2-3.3
	l6.8-12.1c7.3,1.6,15.6,2.7,25.2,2.7s17.9-1.1,25.2-2.7l6.8,12.1l2,3.3l3.7-0.2c5.7-0.2,13.9-2.6,23.4-7
	c9.5-4.5,19.8-10.9,25.6-21.1l0.8-1.6v-1.6c0-18.6-3.8-38.9-8.4-55.7c-2-7.4-4.5-14.7-7.4-21.9c-2.5-5.9-4-10-7.6-13.3l-0.2-0.2
	h-0.2c-16-12.8-37.9-15.2-37.9-15.2l-4.9-0.6l-1.8,4.5c0,0-1.8,4.6-2.9,9.8c-5.4-0.7-10.8-1.1-16.2-1.2c-3.3,0-9.1,0.2-16.2,1.2
	c-1.1-5.2-2.9-9.8-2.9-9.8L79.1,30.7z M70.5,44.9c0.3,0.9,0.5,1.6,0.8,2.3c-8.1,2-16.7,5-24.6,10l6.6,10.5
	c16.2-10,39.5-11.4,46.7-11.4s30.5,1.5,46.7,11.5l6.6-10.5c-7.9-4.9-16.5-8-24.6-10c0.2-0.7,0.5-1.5,0.8-2.3
	c5.8,1.2,17,3.9,26.2,11.1c-0.1,0,2.3,3.6,4.5,8.8c2.2,5.3,4.6,12.4,6.8,20.3c4.2,15.3,7.5,33.8,7.8,50.2c-3.9,6-11.2,11.4-18.9,15
	c-4.8,2.3-10,3.9-15.2,4.9l-3.1-5.3c1.9-0.7,3.7-1.4,5.3-2.1c9.6-4.2,14.8-8.8,14.8-8.8l-8.2-9.4c0,0-3.5,3.2-11.7,6.8
	s-20.7,7.2-37.7,7.2s-29.5-3.6-37.7-7.2c-8.2-3.6-11.7-6.8-11.7-6.8l-8.2,9.4c0,0,5.2,4.6,14.8,8.8c1.6,0.7,3.4,1.5,5.3,2.1
	l-3.1,5.3c-5.3-1-10.4-2.6-15.2-4.9c-7.7-3.6-15-9-18.9-15c0.3-16.4,3.6-34.9,7.8-50.2c1.9-6.9,4.2-13.7,6.8-20.3
	c2.1-5.2,4.5-8.8,4.5-8.8C53.5,48.8,64.7,46.1,70.5,44.9z M78.1,87.5c-4.8,0-9.1,2.8-11.7,6.3s-3.9,7.8-3.9,12.5s1.3,9,3.9,12.5
	c2.6,3.5,6.9,6.3,11.7,6.3s9.1-2.8,11.7-6.3s3.9-7.8,3.9-12.5s-1.3-9-3.9-12.5S83,87.5,78.1,87.5z M121.9,87.5
	c-4.8,0-9.1,2.8-11.7,6.3s-3.9,7.8-3.9,12.5s1.3,9,3.9,12.5s6.9,6.3,11.7,6.3s9.1-2.8,11.7-6.3s3.9-7.8,3.9-12.5s-1.3-9-3.9-12.5
	S126.7,87.5,121.9,87.5z M78.1,100c0.3,0,0.8,0.1,1.6,1.2c0.8,1,1.6,2.9,1.6,5.1s-0.8,4-1.6,5.1c-0.8,1-1.2,1.2-1.6,1.2
	s-0.8-0.1-1.6-1.2c-1-1.5-1.6-3.3-1.6-5.1c0-2.2,0.8-4,1.6-5.1C77.3,100.1,77.8,100,78.1,100z M121.9,100c0.3,0,0.8,0.1,1.6,1.2
	c0.8,1,1.6,2.9,1.6,5.1s-0.8,4-1.6,5.1c-0.8,1-1.2,1.2-1.6,1.2s-0.8-0.1-1.6-1.2c-1-1.5-1.6-3.3-1.6-5.1c0-2.2,0.8-4,1.6-5.1
	S121.5,100,121.9,100z"></path>
	</symbol>
	<symbol xmlns="http://www.w3.org/2000/svg" xmlns:xlink="http://www.w3.org/1999/xlink"
		viewBox="0 0 1280 1024" id="discord-fill">
		<path
			d="M1049.062 139.672a3 3 0 0 0-1.528-1.4A970.13 970.13 0 0 0 808.162 64.06a3.632 3.632 0 0 0-3.846 1.82 674.922 674.922 0 0 0-29.8 61.2 895.696 895.696 0 0 0-268.852 0 619.082 619.082 0 0 0-30.27-61.2 3.78 3.78 0 0 0-3.848-1.82 967.378 967.378 0 0 0-239.376 74.214 3.424 3.424 0 0 0-1.576 1.352C78.136 367.302 36.372 589.38 56.86 808.708a4.032 4.032 0 0 0 1.53 2.75 975.332 975.332 0 0 0 293.65 148.378 3.8 3.8 0 0 0 4.126-1.352A696.4 696.4 0 0 0 416.24 860.8a3.72 3.72 0 0 0-2.038-5.176 642.346 642.346 0 0 1-91.736-43.706 3.77 3.77 0 0 1-0.37-6.252 502.094 502.094 0 0 0 18.218-14.274 3.638 3.638 0 0 1 3.8-0.512c192.458 87.834 400.82 87.834 591 0a3.624 3.624 0 0 1 3.848 0.466 469.066 469.066 0 0 0 18.264 14.32 3.768 3.768 0 0 1-0.324 6.252 602.814 602.814 0 0 1-91.78 43.66 3.75 3.75 0 0 0-2 5.222 782.11 782.11 0 0 0 60.028 97.63 3.728 3.728 0 0 0 4.126 1.4A972.096 972.096 0 0 0 1221.4 811.458a3.764 3.764 0 0 0 1.53-2.704c24.528-253.566-41.064-473.824-173.868-669.082zM444.982 675.16c-57.944 0-105.688-53.174-105.688-118.478s46.818-118.482 105.688-118.482c59.33 0 106.612 53.64 105.686 118.478 0 65.308-46.82 118.482-105.686 118.482z m390.76 0c-57.942 0-105.686-53.174-105.686-118.478s46.818-118.482 105.686-118.482c59.334 0 106.614 53.64 105.688 118.478 0 65.308-46.354 118.482-105.688 118.482z"></path>
	</symbol>
	<symbol id="discord-fill2" xmlns="http://www.w3.org/2000/svg"
		xmlns:xlink="http://www.w3.org/1999/xlink" x="0px" y="0px" viewBox="0 0 200 200">
		<path
			d="M168.5,0c11.7,0,21.2,9.5,21.7,20.6V200l-22.3-18.9l-12.3-11.2l-13.4-11.6l5.6,18.4h-117
	c-11.7,0-21.2-8.9-21.2-20.6V20.7C9.8,9.5,19.3,0,31,0L168.5,0L168.5,0z M117.5,47.4h-0.3l-1.7,1.7c17.3,5,25.6,12.8,25.6,12.8
	c-11.1-5.6-21.2-8.4-31.2-9.5c-7.3-1.1-14.5-0.5-20.6,0h-1.7c-3.9,0-12.3,1.7-23.4,6.1c-3.9,1.7-6.1,2.8-6.1,2.8s8.4-8.4,26.8-12.8
	l-1.1-1.1c0,0-13.9-0.5-29,10.6c0,0-15,26.2-15,58.5c0,0,8.3,14.5,31.2,15.1c0,0,3.3-4.4,6.7-8.3c-12.8-3.9-17.8-11.7-17.8-11.7
	s1.1,0.5,2.8,1.7h0.5c0.3,0,0.4,0.1,0.5,0.3v0.1c0.1,0.1,0.3,0.3,0.5,0.3c2.8,1.1,5.5,2.3,7.8,3.3c4.8,2.1,9.8,3.6,15,4.5
	c7.8,1.1,16.6,1.7,26.8,0c5-1.1,10-2.2,15-4.5c3.3-1.7,7.3-3.3,11.6-6.1c0,0-5,7.8-18.4,11.7c2.8,3.9,6.6,8.3,6.6,8.3
	c22.9-0.5,31.8-15,32.3-14.4c0-32.3-15.1-58.5-15.1-58.5c-13.6-10.1-26.4-10.5-28.6-10.5L117.5,47.4L117.5,47.4z M118.9,84.1
	c5.9,0,10.6,5,10.6,11.1c0,6.2-4.8,11.2-10.6,11.2s-10.6-5-10.6-11.1C108.4,89.1,113.1,84.2,118.9,84.1L118.9,84.1z M81.1,84.1
	c5.8,0,10.5,5,10.5,11.1c0,6.2-4.8,11.2-10.6,11.2c-5.8,0-10.6-5-10.6-11.1C70.5,89.1,75.2,84.2,81.1,84.1L81.1,84.1z"></path>
	</symbol>

	<symbol id="loading" xmlns="http://www.w3.org/2000/svg"
		xmlns:xlink="http://www.w3.org/1999/xlink"
		x="0px" y="0px" viewBox="0 0 200 200">
		<path
			d="M105,52.2c-14.4,0-26.2-11.9-26.2-26.3S90.9,0,105,0s26.3,11.9,26.3,26.2
	C131.3,40.9,119.4,52.2,105,52.2z M50.3,72.8c-13.1,0-23.8-10.6-23.8-23.7s10.6-23.8,23.8-23.8s23.8,10.6,23.8,23.8
	S63.4,72.8,50.3,72.8z M26.9,126.3c-11.9,0-21.3-9.4-21.3-21.3S15,83.8,26.9,83.8s21.2,9.4,21.2,21.3
	C47.8,116.9,38.4,126.3,26.9,126.3z M50.3,179.7c-10,0-17.5-8.1-17.5-17.5c0-10,8.1-17.5,17.5-17.5s17.5,8.1,17.5,17.5
	S59.7,179.1,50.3,179.7z M105,199.7c-8.7,0-15.6-6.9-15.6-15.6s6.9-15.6,15.6-15.6s15.6,6.9,15.6,15.6S113.7,199.7,105,199.7z
	 M161.3,173.4c-6.9,0-12.5-5.6-12.5-12.5s5.6-12.5,12.5-12.5s12.5,5.6,12.5,12.5C173.4,167.8,167.8,173.4,161.3,173.4z M184.1,115.6
	c-5.6,0-10-4.4-10-10c0-5.6,4.4-10,10-10s10,4.4,10,10C194.7,111.2,189.7,115.6,184.1,115.6z M153.1,49.7c0-4.4,3.8-8.1,8.1-8.1
	c4.4,0,8.1,3.8,8.1,8.1c0,4.4-3.8,8.1-8.1,8.1c-1.9,0-4.4-0.6-5.6-2.5C154.4,54.1,153.1,52.2,153.1,49.7z"></path>
	</symbol>
	<symbol id="unfold" xmlns="http://www.w3.org/2000/svg"
		xmlns:xlink="http://www.w3.org/1999/xlink"
		x="0px" y="0px" viewBox="0 0 200 200">
		<path
			d="M100,16.7c46,0,83.3,37.3,83.3,83.3S146,183.3,100,183.3S16.7,146,16.7,100S54,16.7,100,16.7z M100,62.5
	c-4.6,0-8.3,3.7-8.3,8.3v20.8H70.8c-4.6,0-8.3,3.7-8.3,8.3s3.7,8.3,8.3,8.3h20.8v20.8c0,4.6,3.7,8.3,8.3,8.3s8.3-3.7,8.3-8.3v-20.8
	h20.8c4.6,0,8.3-3.7,8.3-8.3s-3.7-8.3-8.3-8.3h-20.8V70.8C108.3,66.2,104.6,62.5,100,62.5L100,62.5z"></path>
	</symbol>
	<symbol id="fold" xmlns="http://www.w3.org/2000/svg" xmlns:xlink="http://www.w3.org/1999/xlink"
		x="0px" y="0px" viewBox="0 0 200 200">
		<path
			d="M100,183.3c46,0,83.3-37.3,83.3-83.3S146,16.7,100,16.7S16.7,54,16.7,100S54,183.3,100,183.3L100,183.3z
	 M68.8,93.8h62.5c3.5,0,6.3,2.8,6.3,6.3c0,3.5-2.8,6.3-6.3,6.3H68.8c-3.5,0-6.3-2.8-6.3-6.3C62.5,96.5,65.3,93.8,68.8,93.8z"></path>
	</symbol>
	<symbol xmlns="http://www.w3.org/2000/svg" xmlns:xlink="http://www.w3.org/1999/xlink"
		viewBox="0 0 1024 1024" id="github">
		<path
			d="M511.6 76.3C264.3 76.2 64 276.4 64 523.5 64 718.9 189.3 885 363.8 946c23.5 5.9 19.9-10.8 19.9-22.2v-77.5c-135.7 15.9-141.2-73.9-150.3-88.9C215 726 171.5 718 184.5 703c30.9-15.9 62.4 4 98.9 57.9 26.4 39.1 77.9 32.5 104 26 5.7-23.5 17.9-44.5 34.7-60.8-140.6-25.2-199.2-111-199.2-213 0-49.5 16.3-95 48.3-131.7-20.4-60.5 1.9-112.3 4.9-120 58.1-5.2 118.5 41.6 123.2 45.3 33-8.9 70.7-13.6 112.9-13.6 42.4 0 80.2 4.9 113.5 13.9 11.3-8.6 67.3-48.8 121.3-43.9 2.9 7.7 24.7 58.3 5.5 118 32.4 36.8 48.9 82.7 48.9 132.3 0 102.2-59 188.1-200 212.9 23.5 23.2 38.1 55.4 38.1 91v112.5c0.8 9 0 17.9 15 17.9 177.1-59.7 304.6-227 304.6-424.1 0-247.2-200.4-447.3-447.5-447.3z"></path>
	</symbol>
	<symbol id="arrow" xmlns="http://www.w3.org/2000/svg" xmlns:xlink="http://www.w3.org/1999/xlink"
		x="0px" y="0px" viewBox="0 0 60 90">
		<path
			d="M57.7,49.7L13.5,87.8c-3.2,3.1-8.4,3-11.5-0.3c-1.1-1.2-1.8-2.8-2.1-4.4V6.8c0.5-4.4,4.5-7.5,8.9-7c1.7,0.2,3.3,1,4.6,2.2
	l44.2,38.1c2.7,2.1,3.1,6,1,8.7C58.3,49.1,58,49.4,57.7,49.7z"></path>
	</symbol>
	<symbol id="arrow2" xmlns="http://www.w3.org/2000/svg"
		xmlns:xlink="http://www.w3.org/1999/xlink"
		x="0px" y="0px" viewBox="0 0 200 200">
		<path id="_x30__2_"
			d="M85.5,77.2l22.7,22.7l-22.7,22.7c-3.4,3.4-3.4,8.9,0,12.3c1.7,1.7,3.9,2.6,6.2,2.6
	s4.5-0.9,6.2-2.6l28.8-28.8c1.6-1.6,2.6-3.9,2.6-6.2s-0.9-4.5-2.6-6.2L97.8,64.9c-3.4-3.4-8.9-3.4-12.3,0
	C82.1,68.3,82.1,73.8,85.5,77.2L85.5,77.2z"></path>
		<path id="_x30__1_"
			d="M49.1,28.8C41.9,34,35.5,40.2,30.2,47.2c-5.4,7.1-9.6,15-12.6,23.4c-3.4,9.4-5.1,19.3-5.1,29.4
	c0,11.8,2.3,23.3,6.9,34.1c4.4,10.4,10.7,19.8,18.8,27.8c8,8,17.4,14.3,27.8,18.8c10.8,4.5,22.2,6.9,34,6.9c9.9,0,19.6-1.6,28.9-4.9
	c8.4-2.9,16.4-7.2,23.6-12.6c7.1-5.3,13.3-11.7,18.5-18.9c10.8-15,16.5-32.7,16.5-51.2c0-11.8-2.3-23.3-6.9-34.1
	c-4.4-10.4-10.7-19.8-18.8-27.8c-8-8-17.4-14.3-27.8-18.8c-10.7-4.5-22.1-6.8-33.8-6.9h-0.6C81.4,12.5,63.9,18.2,49.1,28.8z
	 M170,100c0,29.8-18.9,56.3-47,66.2c-7.4,2.6-15.2,3.9-23.1,3.9c-38.6,0-70.1-31.4-70.1-70.1c0-8.1,1.4-16,4.1-23.6
	c9.9-27.8,36.4-46.5,66-46.5C138.6,29.9,170,61.3,170,100L170,100z"></path>
	</symbol>
	<symbol xmlns="http://www.w3.org/2000/svg" xmlns:xlink="http://www.w3.org/1999/xlink"
		viewBox="0 0 1024 1024" id="arrow-right">
		<path
			d="M361.386667 318.72a32 32 0 0 0 0 45.226667L509.44 512l-148.053333 148.053333a32 32 0 1 0 45.226666 45.226667l167.68-167.637333a36.266667 36.266667 0 0 0 0-51.285334l-167.68-167.68a32 32 0 0 0-45.226666 0z"></path>
		<path
			d="M510.72 318.72a32 32 0 0 0 0 45.226667L658.773333 512l-148.053333 148.053333a32 32 0 1 0 45.226667 45.226667l167.68-167.637333a36.266667 36.266667 0 0 0 0-51.285334l-167.68-167.68a32 32 0 0 0-45.226667 0z"></path>
	</symbol>
	<symbol xmlns="http://www.w3.org/2000/svg" xmlns:xlink="http://www.w3.org/1999/xlink"
		viewBox="0 0 1024 1024" id="pinterest">
		<path
			d="M511 47.904c255.504 0 463.096 207.6 463.096 463.096 0 255.504-207.6 463.096-463.096 463.096S47.904 766.496 47.904 511 255.504 47.904 511 47.904m0-47.904C228.36 0 0 228.352 0 511s228.352 511 511 511 511-228.352 511-511C1022 228.36 793.648 0 511 0z"></path>
		<path
			d="M528.776 174.56c-198.88 0-299.304 143.104-299.304 262.04 0 72.048 27.392 136.448 85.872 160.632a14.56 14.56 0 0 0 20.72-11.104c2.224-6.912 6.424-24.672 8.64-33.312a20.72 20.72 0 0 0-5.92-23.44 121.4 121.4 0 0 1-27.88-82.416A197.4 197.4 0 0 1 518.16 246.112c112.52 0 174.696 68.84 174.696 161.12 0 120.664-53.544 222.08-133.24 222.08a64.648 64.648 0 0 1-66.128-80.192c12.336-53.056 37.008-110.296 37.008-148.056a56.504 56.504 0 0 0-56.752-63.408c-44.904 0-80.928 46.384-80.928 108.816 0.152 22.88 4.76 45.504 13.568 66.616-45.648 194.192-53.792 228-53.792 228a361.976 361.976 0 0 0-7.152 96.232s4.192 49.344 49.344 17.52a357.784 357.784 0 0 0 42.688-89.576s4.936-18.504 29.36-115.232a118.936 118.936 0 0 0 100.68 52.32c134.72 0 226.512-123.376 226.512-287.712 0.496-123.864-104.864-240.08-265.256-240.08z"></path>
	</symbol>
	<symbol xmlns="http://www.w3.org/2000/svg" xmlns:xlink="http://www.w3.org/1999/xlink"
		viewBox="0 0 1024 1024" id="arrow-left">
		<path
			d="M691.498667 798.165333a42.666667 42.666667 0 0 1-57.621334 2.496l-2.709333-2.496-256-256a42.666667 42.666667 0 0 1-2.496-57.621333l2.496-2.709333 256-256a42.666667 42.666667 0 0 1 62.826667 57.621333l-2.496 2.709333L465.706667 512l225.813333 225.834667a42.666667 42.666667 0 0 1 2.496 57.621333l-2.496 2.709333z"></path>
	</symbol>
	<symbol xmlns="http://www.w3.org/2000/svg" xmlns:xlink="http://www.w3.org/1999/xlink"
		viewBox="0 0 1024 1024" id="arrow-right">
		<path
			d="M624.938667 268.970667l3.114666-3.584a32 32 0 0 1 41.642667-3.114667l3.584 3.114667 213.205333 213.205333a32 32 0 0 1 3.114667 41.642667l-3.114667 3.626666-213.162666 213.461334a32 32 0 0 1-48.384-41.642667l3.072-3.584 158.336-158.592H160a32 32 0 0 1-31.701333-27.605333L128 501.546667a32 32 0 0 1 27.648-31.701334l4.352-0.298666 626.901333-0.042667L628.053333 310.613333a32 32 0 0 1-3.114666-41.642666l3.114666-3.584-3.114666 3.584z"></path>
	</symbol>
	<symbol xmlns="http://www.w3.org/2000/svg"
		xmlns:xlink="http://www.w3.org/1999/xlink" viewBox="0 0 1024 1024" id="google">
		<path
			d="M214.101333 512c0-32.512 5.546667-63.701333 15.36-92.928L57.173333 290.218667A491.861333 491.861333 0 0 0 4.693333 512c0 79.701333 18.858667 154.88 52.394667 221.610667l172.202667-129.066667A290.56 290.56 0 0 1 214.101333 512"
			fill="#FBBC05"></path>
		<path
			d="M516.693333 216.192c72.106667 0 137.258667 25.002667 188.458667 65.962667L854.101333 136.533333C763.349333 59.178667 646.997333 11.392 516.693333 11.392c-202.325333 0-376.234667 113.28-459.52 278.826667l172.373334 128.853333c39.68-118.016 152.832-202.88 287.146666-202.88"
			fill="#EA4335"></path>
		<path
			d="M516.693333 807.808c-134.357333 0-247.509333-84.864-287.232-202.88l-172.288 128.853333c83.242667 165.546667 257.152 278.826667 459.52 278.826667 124.842667 0 244.053333-43.392 333.568-124.757333l-163.584-123.818667c-46.122667 28.458667-104.234667 43.776-170.026666 43.776"
			fill="#34A853"></path>
		<path
			d="M1005.397333 512c0-29.568-4.693333-61.44-11.648-91.008H516.650667V614.4h274.602666c-13.696 65.962667-51.072 116.650667-104.533333 149.632l163.541333 123.818667c93.994667-85.418667 155.136-212.650667 155.136-375.850667"
			fill="#4285F4"></path>
	</symbol>
	<symbol fill="none" xmlns="http://www.w3.org/2000/svg" viewBox="0 0 69 47" id="paypal">
		<rect x="0.632812" y="0.319336" width="67.6105" height="46.3615" rx="5.79519" fill="white"></rect>
		<path fill-rule="evenodd" clip-rule="evenodd"
			d="M19.7573 29.7607H16.7522C16.5466 29.7607 16.3717 29.9102 16.3396 30.1131L15.1242 37.8189C15.1001 37.971 15.2178 38.1081 15.3721 38.1081H16.8067C17.0123 38.1081 17.1872 37.9586 17.2193 37.7553L17.5471 35.6769C17.5787 35.4734 17.754 35.3241 17.9593 35.3241H18.9105C20.8901 35.3241 22.0324 34.3662 22.3309 32.468C22.4653 31.6376 22.3366 30.9851 21.9476 30.5279C21.5206 30.0263 20.763 29.7607 19.7573 29.7607ZM20.104 32.5752C19.9397 33.6535 19.1158 33.6535 18.3191 33.6535H17.8657L18.1838 31.6396C18.2027 31.518 18.3081 31.4283 18.4312 31.4283H18.639C19.1817 31.4283 19.6936 31.4283 19.9582 31.7376C20.1157 31.9223 20.1641 32.1964 20.104 32.5752ZM28.74 32.5406H27.301C27.1784 32.5406 27.0724 32.6303 27.0535 32.7521L26.9899 33.1545L26.8892 33.0087C26.5777 32.5565 25.8831 32.4054 25.1897 32.4054C23.5994 32.4054 22.2413 33.6098 21.9767 35.2993C21.8393 36.142 22.0347 36.9478 22.5127 37.5098C22.9513 38.0265 23.5788 38.2419 24.3253 38.2419C25.6065 38.2419 26.3172 37.4179 26.3172 37.4179L26.253 37.8179C26.2288 37.9708 26.3465 38.1079 26.4998 38.1079H27.7961C28.0023 38.1079 28.1762 37.9584 28.2087 37.7551L28.9865 32.8298C29.0111 32.6783 28.8938 32.5406 28.74 32.5406ZM26.7341 35.3414C26.5952 36.1635 25.9427 36.7154 25.1106 36.7154C24.6927 36.7154 24.3586 36.5814 24.1443 36.3274C23.9316 36.0753 23.8507 35.7162 23.9184 35.3164C24.0481 34.5012 24.7116 33.9315 25.5311 33.9315C25.9396 33.9315 26.2719 34.0671 26.4907 34.3233C26.7099 34.5821 26.7969 34.9433 26.7341 35.3414ZM34.958 32.5404H36.4041C36.6067 32.5404 36.7248 32.7675 36.6097 32.9337L31.8001 39.8761C31.7222 39.9886 31.5939 40.0555 31.4569 40.0555H30.0125C29.8092 40.0555 29.6904 39.8265 29.8082 39.66L31.3058 37.546L29.713 32.8716C29.6579 32.7092 29.7779 32.5404 29.9507 32.5404H31.3717C31.5563 32.5404 31.7192 32.6616 31.7724 32.8383L32.6177 35.6615L34.6123 32.7236C34.6904 32.6089 34.8201 32.5404 34.958 32.5404Z"
			fill="#253B80"></path>
		<path fill-rule="evenodd" clip-rule="evenodd"
			d="M50.6359 37.8188L51.8692 29.9721C51.8881 29.8503 51.9936 29.7607 52.1162 29.7603H53.5047C53.658 29.7603 53.7757 29.8977 53.7515 30.0498L52.5353 37.7552C52.5036 37.9585 52.3287 38.108 52.1227 38.108H50.8828C50.7295 38.108 50.6117 37.9709 50.6359 37.8188ZM41.191 29.7607H38.1854C37.9802 29.7607 37.8053 29.9101 37.7732 30.113L36.5579 37.8188C36.5337 37.9709 36.6514 38.108 36.8049 38.108H38.347C38.4904 38.108 38.613 38.0035 38.6354 37.8611L38.9802 35.6769C39.012 35.4733 39.1872 35.3241 39.3924 35.3241H40.3432C42.3232 35.3241 43.4653 34.3661 43.764 32.4679C43.8988 31.6375 43.7693 30.985 43.3805 30.5279C42.9537 30.0262 42.1967 29.7607 41.191 29.7607ZM41.5377 32.5751C41.3738 33.6534 40.5498 33.6534 39.7527 33.6534H39.2997L39.6183 31.6395C39.6372 31.5179 39.7418 31.4283 39.8652 31.4283H40.073C40.6153 31.4283 41.1277 31.4283 41.3921 31.7375C41.5499 31.9222 41.5978 32.1963 41.5377 32.5751ZM50.1729 32.5405H48.7349C48.6113 32.5405 48.5063 32.6302 48.4878 32.752L48.4242 33.1544L48.3231 33.0086C48.0116 32.5564 47.3174 32.4053 46.624 32.4053C45.0337 32.4053 43.676 33.6097 43.4114 35.2993C43.2744 36.1419 43.469 36.9477 43.947 37.5098C44.3865 38.0265 45.0132 38.2418 45.7596 38.2418C47.0409 38.2418 47.7513 37.4179 47.7513 37.4179L47.6873 37.8178C47.6631 37.9707 47.7808 38.1078 47.9352 38.1078H49.2308C49.436 38.1078 49.6109 37.9583 49.643 37.755L50.4212 32.8297C50.445 32.6782 50.3273 32.5405 50.1729 32.5405ZM48.1672 35.3413C48.0291 36.1634 47.3758 36.7153 46.5435 36.7153C46.1264 36.7153 45.7917 36.5813 45.5772 36.3273C45.3645 36.0752 45.2846 35.7161 45.3515 35.3163C45.4819 34.5011 46.1445 33.9314 46.964 33.9314C47.3727 33.9314 47.7048 34.067 47.9238 34.3232C48.1438 34.5821 48.2308 34.9432 48.1672 35.3413Z"
			fill="#179BD7"></path>
		<path
			d="M30.8771 27.004L31.2466 24.6574L30.4237 24.6383H26.4941L29.225 7.32261C29.2333 7.27033 29.261 7.22159 29.3013 7.18698C29.3415 7.15237 29.3932 7.1333 29.4468 7.1333H36.0727C38.2724 7.1333 39.7904 7.59104 40.583 8.4945C40.9545 8.91835 41.1912 9.36124 41.3057 9.84865C41.4256 10.3601 41.4279 10.9711 41.3105 11.7164L41.302 11.7707V12.2482L41.6737 12.4588C41.9867 12.6248 42.2351 12.8148 42.4259 13.0324C42.7439 13.3947 42.9495 13.8553 43.0363 14.4013C43.126 14.9629 43.0963 15.6311 42.9495 16.3877C42.7799 17.258 42.5058 18.0159 42.1357 18.6361C41.7951 19.2076 41.3614 19.6815 40.8465 20.0489C40.3548 20.3979 39.7706 20.6628 39.1102 20.8324C38.4701 20.9989 37.7405 21.0831 36.9401 21.0831H36.4245C36.0558 21.0831 35.6975 21.2159 35.4165 21.454C35.1347 21.697 34.948 22.0288 34.8909 22.392L34.852 22.6033L34.1993 26.739L34.1696 26.8909C34.1619 26.9391 34.1485 26.9631 34.1288 26.9794C34.1111 26.994 34.0857 27.004 34.0608 27.004H30.8771Z"
			fill="#253B80"></path>
		<path
			d="M42.0267 11.8257C42.0069 11.9521 41.9844 12.0814 41.959 12.2142C41.085 16.7005 38.0957 18.2503 34.2776 18.2503H32.3336C31.8668 18.2503 31.4733 18.5893 31.4005 19.0499L30.4051 25.3623L30.1233 27.1515C30.0759 27.4538 30.3092 27.7265 30.6142 27.7265H34.0622C34.4705 27.7265 34.8172 27.4298 34.8815 27.0272L34.9154 26.8519L35.5647 22.7323L35.6064 22.5063C35.6698 22.1023 36.0173 21.8056 36.4257 21.8056H36.9413C40.2818 21.8056 42.897 20.4494 43.6613 16.5246C43.9806 14.885 43.8153 13.5161 42.9704 12.5533C42.7148 12.2629 42.3976 12.022 42.0267 11.8257Z"
			fill="#179BD7"></path>
		<path
			d="M41.1106 11.4616C40.9772 11.4227 40.8393 11.3874 40.698 11.3556C40.5561 11.3246 40.4105 11.297 40.2608 11.273C39.7366 11.1882 39.1624 11.1479 38.5471 11.1479H33.3538C33.2259 11.1479 33.1045 11.1769 32.9957 11.2292C32.7561 11.3443 32.5782 11.5711 32.5351 11.8487L31.4302 18.8462L31.3984 19.0503C31.4712 18.5897 31.8647 18.2507 32.3316 18.2507H34.2755C38.0936 18.2507 41.0831 16.7002 41.9569 12.2146C41.9829 12.0818 42.0049 11.9525 42.0246 11.8261C41.8036 11.7088 41.564 11.6085 41.3062 11.523C41.2428 11.5018 41.1771 11.4814 41.1106 11.4616Z"
			fill="#222D65"></path>
		<path
			d="M32.5372 11.8486C32.5803 11.571 32.7585 11.3443 32.9978 11.2298C33.1074 11.1776 33.2282 11.1486 33.3559 11.1486H38.5494C39.1647 11.1486 39.7389 11.1889 40.2629 11.2736C40.4128 11.2976 40.5584 11.3252 40.7003 11.3563C40.8416 11.3881 40.9793 11.4234 41.1129 11.4622C41.1792 11.482 41.2449 11.5025 41.3091 11.523C41.567 11.6085 41.8065 11.7095 42.0275 11.826C42.2876 10.1681 42.0255 9.03933 41.1292 8.01718C40.1409 6.89191 38.3572 6.41016 36.0749 6.41016H29.4489C28.9826 6.41016 28.5851 6.74921 28.5129 7.21048L25.7532 24.7042C25.6987 25.0503 25.9657 25.3626 26.3146 25.3626H30.4054L31.4325 18.8461L32.5372 11.8486Z"
			fill="#253B80"></path>
	</symbol>
	<symbol fill="none" xmlns="http://www.w3.org/2000/svg" viewBox="0 0 69 47" id="discover">
		<rect x="0.449219" y="0.319336" width="67.6105" height="46.3615" rx="5.79519" fill="white"></rect>
		<path
			d="M28.9121 45.7149L67.0638 34.6074V40.8855C67.0638 43.5527 64.9016 45.7149 62.2345 45.7149H28.9121Z"
			fill="#FD6020"></path>
		<path fill-rule="evenodd" clip-rule="evenodd"
			d="M59.8209 18.8846C61.9198 18.8846 63.0742 19.8187 63.0742 21.5831C63.1792 22.9323 62.2347 24.0739 60.9753 24.2815L63.8089 28.1216H61.605L59.1912 24.3853H58.9813V28.1216H57.1972V18.8846H59.8209ZM58.9818 23.1399H59.5066C60.661 23.1399 61.1857 22.621 61.1857 21.6869C61.1857 20.8566 60.661 20.3377 59.5066 20.3377H58.9818V23.1399ZM51.0056 28.1215H56.043V26.5647H52.7897V24.0738H55.9381V22.517H52.7897V20.4413H56.043V18.8845H51.0056V28.1215ZM45.7573 25.1117L43.3435 18.8845H41.4545L45.3375 28.329H46.282L50.165 18.8845H48.276L45.7573 25.1117ZM24.4537 23.5549C24.4537 26.1496 26.5527 28.3291 29.1763 28.3291C30.0159 28.3291 30.7505 28.1215 31.4852 27.8101V25.7344C30.9604 26.3571 30.2258 26.7723 29.3862 26.7723C27.7071 26.7723 26.3428 25.5268 26.3428 23.8663V23.6587C26.2378 21.9981 27.6021 20.5451 29.2813 20.4413C30.1209 20.4413 30.9604 20.8565 31.4852 21.4792V19.4035C30.8555 18.9883 30.0159 18.8845 29.2813 18.8845C26.5527 18.677 24.4537 20.8565 24.4537 23.5549ZM21.2005 22.4133C20.151 21.9981 19.8362 21.7905 19.8362 21.2716C19.9411 20.6489 20.4659 20.13 21.0956 20.2338C21.6203 20.2338 22.145 20.5451 22.5648 20.9603L23.5093 19.7148C22.7747 19.0921 21.8302 18.677 20.8857 18.677C19.4164 18.5732 18.1571 19.7148 18.0521 21.1678V21.2716C18.0521 22.517 18.5768 23.2435 20.256 23.7625C20.6758 23.8663 21.0956 24.0738 21.5153 24.2814C21.8302 24.489 22.0401 24.8003 22.0401 25.2155C22.0401 25.942 21.4104 26.5647 20.7807 26.5647H20.6758C19.8362 26.5647 19.1016 26.0458 18.7867 25.3193L17.6323 26.4609C18.262 27.6026 19.5214 28.2253 20.7807 28.2253C22.4599 28.3291 23.8242 27.0836 23.9291 25.4231V25.1117C23.8242 23.8663 23.2994 23.2435 21.2005 22.4133ZM15.1139 28.1215H16.898V18.8845H15.1139V28.1215ZM6.82227 18.8846H9.44593H9.97067C12.4894 18.9884 14.4834 21.0641 14.3784 23.555C14.3784 24.9042 13.7487 26.1497 12.6993 27.0837C11.7548 27.8102 10.6003 28.2254 9.44593 28.1216H6.82227V18.8846ZM9.13159 26.5649C9.97116 26.6687 10.9157 26.3573 11.5454 25.8384C12.175 25.2157 12.4899 24.3854 12.4899 23.4513C12.4899 22.621 12.175 21.7907 11.5454 21.168C10.9157 20.6491 9.97116 20.3377 9.13159 20.4415H8.60685V26.5649H9.13159Z"
			fill="black"></path>
		<path fill-rule="evenodd" clip-rule="evenodd"
			d="M36.8393 18.6704C34.2156 18.6704 32.0117 20.7461 32.0117 23.4446C32.0117 26.0392 34.1107 28.2187 36.8393 28.3225C39.5679 28.4263 41.6668 26.2468 41.7718 23.5483C41.6668 20.8499 39.5679 18.6704 36.8393 18.6704V18.6704Z"
			fill="#FD6020"></path>
	</symbol>
	<symbol fill="none" xmlns="http://www.w3.org/2000/svg" viewBox="0 0 68 47" id="amex">
		<rect x="0.748557" y="0.802268" width="66.6447" height="45.3957" rx="5.31226" fill="#1F72CD"
			stroke="#D9D9D9" stroke-width="0.965865"></rect>
		<path fill-rule="evenodd" clip-rule="evenodd"
			d="M12.3863 16.7388L6.06055 30.7375H13.6334L14.5722 28.5055H16.7181L17.6569 30.7375H25.9925V29.034L26.7353 30.7375H31.0471L31.7898 28.998V30.7375H49.1256L51.2335 28.5635L53.2073 30.7375L62.1113 30.7555L55.7656 23.7772L62.1113 16.7388H53.3454L51.2935 18.8726L49.3818 16.7388H30.5228L28.9034 20.352L27.246 16.7388H19.6889V18.3843L18.8482 16.7388H12.3863ZM38.2737 18.7266H48.2287L51.2734 22.0155L54.4163 18.7266H57.4611L52.8349 23.7753L57.4611 28.7657H54.2783L51.2335 25.4386L48.0745 28.7657H38.2737V18.7266ZM40.7317 22.64V20.8063V20.8046H46.9433L49.6537 23.7371L46.8232 26.6857H40.7317V24.6838H46.1626V22.64H40.7317ZM13.8507 18.7266H17.5421L21.738 28.2193V18.7266H25.7817L29.0226 25.5328L32.0094 18.7266H36.0329V28.7716H33.5847L33.5647 20.9004L29.9954 28.7716H27.8054L24.2161 20.9004V28.7716H19.1795L18.2247 26.5197H13.0661L12.1132 28.7697H9.41466L13.8507 18.7266ZM13.9478 24.438L15.6474 20.4263L17.345 24.438H13.9478Z"
			fill="white"></path>
	</symbol>
	<symbol fill="none" xmlns="http://www.w3.org/2000/svg" viewBox="0 0 68 47" id="visa">
		<rect y="0.319336" width="67.6105" height="46.3615" rx="5.79519" fill="white"></rect>
		<path fill-rule="evenodd" clip-rule="evenodd"
			d="M20.5238 31.7254H16.4279L13.3564 20.0078C13.2107 19.4688 12.9011 18.9923 12.4458 18.7677C11.3095 18.2033 10.0574 17.7541 8.69141 17.5276V17.0764H15.2896C16.2002 17.0764 16.8832 17.7541 16.997 18.5411L18.5906 26.9935L22.6845 17.0764H26.6666L20.5238 31.7254ZM28.9435 31.7254H25.0753L28.2605 17.0764H32.1287L28.9435 31.7254ZM37.1333 21.1348C37.2472 20.3458 37.9302 19.8947 38.727 19.8947C39.9791 19.7814 41.3431 20.008 42.4814 20.5704L43.1643 17.4164C42.026 16.9653 40.7739 16.7388 39.6376 16.7388C35.8832 16.7388 33.1513 18.7679 33.1513 21.584C33.1513 23.7264 35.0864 24.8513 36.4524 25.5289C37.9302 26.2047 38.4993 26.6558 38.3855 27.3315C38.3855 28.3451 37.2472 28.7962 36.1109 28.7962C34.7449 28.7962 33.3789 28.4584 32.1288 27.894L31.4458 31.0499C32.8118 31.6123 34.2896 31.8389 35.6555 31.8389C39.8653 31.9502 42.4814 29.9231 42.4814 26.8804C42.4814 23.0487 37.1333 22.8241 37.1333 21.1348ZM56.0181 31.7254L52.9467 17.0764H49.6477C48.9647 17.0764 48.2817 17.5276 48.054 18.2033L42.3665 31.7254H46.3486L47.1434 29.585H52.0361L52.4914 31.7254H56.0181ZM50.2182 21.0215L51.3545 26.5425H48.1693L50.2182 21.0215Z"
			fill="#172B85"></path>
	</symbol>
	<symbol fill="none" xmlns="http://www.w3.org/2000/svg" viewBox="0 0 69 47" id="mastercard">
		<rect x="0.816406" y="0.319336" width="67.6105" height="46.3615" rx="5.79519" fill="white"></rect>
		<path fill-rule="evenodd" clip-rule="evenodd"
			d="M35.1031 33.4619C32.8013 35.4483 29.8155 36.6474 26.5528 36.6474C19.2727 36.6474 13.3711 30.6773 13.3711 23.3127C13.3711 15.9482 19.2727 9.97803 26.5528 9.97803C29.8155 9.97803 32.8013 11.1772 35.1031 13.1636C37.4049 11.1772 40.3908 9.97803 43.6535 9.97803C50.9335 9.97803 56.8352 15.9482 56.8352 23.3127C56.8352 30.6773 50.9335 36.6474 43.6535 36.6474C40.3908 36.6474 37.4049 35.4483 35.1031 33.4619Z"
			fill="#ED0006"></path>
		<path fill-rule="evenodd" clip-rule="evenodd"
			d="M35.1035 33.4619C37.9377 31.0161 39.7348 27.3767 39.7348 23.3127C39.7348 19.2488 37.9377 15.6094 35.1035 13.1636C37.4053 11.1772 40.3912 9.97803 43.6539 9.97803C50.9339 9.97803 56.8356 15.9482 56.8356 23.3127C56.8356 30.6773 50.9339 36.6474 43.6539 36.6474C40.3912 36.6474 37.4053 35.4483 35.1035 33.4619Z"
			fill="#F9A000"></path>
		<path fill-rule="evenodd" clip-rule="evenodd"
			d="M35.104 33.4619C37.9382 31.0161 39.7353 27.3767 39.7353 23.3127C39.7353 19.2488 37.9382 15.6094 35.104 13.1636C32.2698 15.6094 30.4727 19.2488 30.4727 23.3127C30.4727 27.3767 32.2698 31.0161 35.104 33.4619Z"
			fill="#FF5E00"></path>
	</symbol>
	<symbol xmlns="http://www.w3.org/2000/svg" xmlns:xlink="http://www.w3.org/1999/xlink"
		viewBox="0 0 1024 1024" id="question">
		<path
			d="M512 938.666667c235.648 0 426.666667-191.018667 426.666667-426.666667S747.648 85.333333 512 85.333333 85.333333 276.352 85.333333 512s191.018667 426.666667 426.666667 426.666667z m0 85.333333C229.248 1024 0 794.752 0 512S229.248 0 512 0s512 229.248 512 512-229.248 512-512 512z"></path>
		<path
			d="M520.96 232.106667c-62.293333 0-111.786667 17.92-147.626667 54.613333-36.693333 35.84-54.613333 84.48-54.613333 146.773333h90.453333c0-37.546667 7.68-67.413333 23.04-87.893333 17.066667-23.893333 45.226667-35.84 83.626667-35.84 30.72 0 54.613333 8.533333 71.68 25.6 16.213333 17.066667 24.746667 40.106667 24.746667 69.973333 0 22.186667-7.68 42.666667-23.04 62.293334l-14.506667 16.213333c-52.906667 46.933333-85.333333 81.92-97.28 105.813333-11.093333 22.186667-16.213333 49.493333-16.213333 81.066667v14.506667h91.306666v-14.506667c0-21.333333 4.266667-40.106667 13.653334-57.173333 7.68-15.36 19.626667-29.866667 34.986666-43.52 40.96-34.986667 64.853333-57.173333 72.533334-66.56 20.48-27.306667 31.573333-62.293333 31.573333-104.106667 0-51.2-17.066667-92.16-50.346667-122.026667-34.133333-30.72-78.506667-45.226667-133.973333-45.226666z m-14.506667 499.2c-17.92 0-32.426667 5.12-43.52 17.066666-12.8 11.093333-18.773333 25.6-18.773333 43.52 0 17.066667 5.973333 31.573333 18.773333 43.52 11.093333 11.946667 25.6 17.92 43.52 17.92 17.066667 0 32.426667-5.973333 45.226667-17.066666 11.946667-11.946667 17.92-26.453333 17.92-44.373334 0-17.92-5.973333-32.426667-17.92-43.52-11.946667-11.946667-27.306667-17.066667-45.226667-17.066666z"></path>
	</symbol>

	<symbol id="free-design" xmlns="http://www.w3.org/2000/svg"
		xmlns:xlink="http://www.w3.org/1999/xlink" x="0px" y="0px" xml:space="preserve"
		viewBox="0 0 60 60">
    <g>
      <path fill-rule="evenodd" clip-rule="evenodd" d="M26.312,10.24c5.581,0,11.16,0,16.74,0.003
		c0.146,0,0.245-0.043,0.348-0.144c1.051-1.023,2.104-2.043,3.16-3.061c0.466-0.449,1.009-0.76,1.646-0.893
		c0.283-0.06,0.571-0.014,0.856-0.026c1.281-0.053,2.414,0.414,3.327,1.235c1.608,1.446,2.138,3.565,1.007,5.553
		c-0.123,0.215-0.27,0.41-0.445,0.586c-1.003,1.005-2,2.017-3.004,3.021c-0.108,0.108-0.149,0.214-0.149,0.365
		c0.003,8.793,0.017,17.587-0.008,26.38c-0.006,1.987-1.344,3.52-3.311,3.889c-0.084,0.016-0.172,0.011-0.259,0.011
		c-4.213,0.001-8.427,0.002-12.64-0.004c-0.184,0-0.226,0.047-0.225,0.227c0.008,1.347,0.009,2.693-0.001,4.04
		c-0.001,0.191,0.059,0.222,0.231,0.221c1.699-0.006,3.399-0.002,5.1-0.007c0.149-0.001,0.201,0.027,0.198,0.19
		c-0.01,0.687-0.009,1.374,0,2.061c0.001,0.151-0.031,0.199-0.192,0.197c-0.92-0.009-1.84-0.004-2.76-0.004
		c-6.167,0-12.333-0.001-18.5,0.005c-0.192,0-0.241-0.042-0.237-0.235c0.014-0.68,0.01-1.36,0.002-2.04
		c-0.002-0.142,0.035-0.175,0.175-0.174c1.7,0.005,3.4-0.001,5.1,0.008c0.182,0.001,0.213-0.05,0.212-0.219
		c-0.007-1.347-0.007-2.693,0-4.04c0.001-0.174-0.032-0.23-0.221-0.229c-4.193,0.006-8.387-0.001-12.58,0.009
		c-1.041,0.002-1.9-0.4-2.642-1.091c-0.595-0.553-0.927-1.257-1.106-2.039c-0.021-0.09-0.014-0.186-0.014-0.279
		c0-9.96,0.001-19.919-0.005-29.879c0-0.395,0.062-0.766,0.204-1.129c0.549-1.405,1.599-2.2,3.054-2.496
		c0.083-0.017,0.173-0.009,0.259-0.009C15.192,10.24,20.752,10.24,26.312,10.24z"></path>
      <path fill-rule="evenodd" clip-rule="evenodd" fill="var(--reverse-color,#fff)" d="M47.44,19.096c0,0.064,0,0.127,0,0.191
		c0,6.46-0.001,12.92,0.004,19.379c0,0.174-0.037,0.217-0.215,0.217c-12.873-0.005-25.746-0.005-38.619,0
		c-0.176,0-0.215-0.041-0.215-0.216C8.4,30.454,8.401,22.241,8.397,14.028c0-0.607,0.468-1.337,1.319-1.346
		c0.633-0.006,1.267-0.002,1.9-0.002c9.64,0,19.279,0,28.919,0c0.058,0,0.115,0,0.173,0c0.011,0.014,0.021,0.028,0.03,0.042
		c-0.049,0.04-0.1,0.078-0.145,0.121c-2.564,2.526-5.129,5.052-7.693,7.579c-0.233,0.23-0.233,0.245-0.005,0.473
		c2.078,2.079,4.159,4.156,6.232,6.24c0.129,0.129,0.187,0.116,0.306-0.005c2.611-2.641,5.228-5.277,7.841-7.915
		c0.044-0.045,0.069-0.108,0.104-0.163C47.399,19.066,47.42,19.081,47.44,19.096z"></path>
      <path fill-rule="evenodd" clip-rule="evenodd" fill="var(--reverse-color,#fff)" d="M27.94,41.32c6.42,0,12.84,0.001,19.26-0.006
		c0.202,0,0.25,0.048,0.245,0.247c-0.015,0.6-0.005,1.2-0.005,1.8c-0.001,0.763-0.564,1.345-1.331,1.355
		c-0.653,0.01-1.307,0.003-1.96,0.003c-10.819,0-21.64,0-32.459,0c-0.626,0-1.253,0.003-1.88,0c-0.855-0.004-1.41-0.563-1.41-1.419
		c0-0.593,0.007-1.187-0.004-1.779c-0.003-0.167,0.039-0.206,0.205-0.206c5.907,0.005,11.813,0.005,17.72,0.005
		C26.86,41.32,27.4,41.32,27.94,41.32z"></path>
      <path fill-rule="evenodd" clip-rule="evenodd" fill="var(--reverse-color,#fff)" d="M51.604,10.812c-0.031,0.516-0.21,1.095-0.698,1.571
		c-1.126,1.098-2.234,2.214-3.346,3.327c-2.71,2.711-5.418,5.422-8.121,8.139c-0.133,0.133-0.196,0.121-0.32-0.004
		c-0.994-1.004-1.993-2.003-2.997-2.997c-0.108-0.107-0.114-0.174-0.008-0.27c0.064-0.058,0.117-0.127,0.179-0.188
		c2.539-2.523,5.078-5.046,7.617-7.569c1.221-1.212,2.462-2.403,3.654-3.641c0.796-0.827,1.701-0.911,2.708-0.564
		C51.053,8.885,51.603,9.763,51.604,10.812z"></path>
      <path fill-rule="evenodd" clip-rule="evenodd" fill="var(--reverse-color,#fff)" d="M27.999,51.639c-0.953,0-1.906-0.004-2.858,0.004
		c-0.151,0.001-0.185-0.038-0.184-0.187c0.006-1.372,0.006-2.745,0-4.117c-0.001-0.153,0.041-0.183,0.187-0.183
		c1.919,0.006,3.838,0.006,5.757,0c0.15,0,0.185,0.036,0.185,0.185c-0.007,1.373-0.007,2.745,0,4.118
		c0.001,0.152-0.04,0.185-0.187,0.184C29.931,51.635,28.965,51.639,27.999,51.639z"></path>
      <path fill-rule="evenodd" clip-rule="evenodd" d="M29.245,34.554c-3.212-0.025-5.818-1.35-7.925-3.729
		c-0.154-0.175-0.299-0.357-0.448-0.537c-0.034-0.04-0.07-0.077-0.072-0.137c-0.004-0.097-0.009-0.159,0.133-0.138
		c0.766,0.114,1.536,0.17,2.311,0.146c0.367-0.011,0.73-0.049,1.083-0.159c0.127-0.04,0.25-0.094,0.358-0.172
		c0.127-0.091,0.185-0.195,0.166-0.371c-0.331-3.064,1.596-5.715,4.581-6.314c3.105-0.624,6.211,1.542,6.693,4.667
		c0.505,3.276-1.71,6.194-5.01,6.597c-0.416,0.051-0.832,0.106-1.25,0.146C29.659,34.57,29.451,34.554,29.245,34.554z"></path>
      <path fill-rule="evenodd" clip-rule="evenodd" fill="var(--reverse-color,#fff)" d="M25.904,31.616c0.975-0.27,1.157-1.097,1.375-1.894
		c0.132-0.484,0.111-0.992,0.204-1.48c0.376-1.969,1.889-2.936,3.494-2.785c1.786,0.167,3.073,1.707,2.935,3.467
		c-0.061,0.776-0.351,1.469-0.906,2.015c-0.871,0.857-1.89,1.462-3.113,1.678c-1.018,0.18-1.983-0.012-2.923-0.397
		C26.592,32.065,26.234,31.881,25.904,31.616z"></path>
    </g>
  </symbol>
	<symbol id="free-shipping" xmlns="http://www.w3.org/2000/svg"
		xmlns:xlink="http://www.w3.org/1999/xlink" x="0px" y="0px" enable-background="new 0 0 60 60"
		xml:space="preserve" viewBox="0 0 60 60">
    <path d="M24.213,10.359c3.427,0,6.854,0.014,10.279-0.006c1.746-0.01,2.736,0.821,3.27,2.342
	c0.133,0.381,0.202,0.769,0.202,1.177c-0.003,1.24-0.022,2.479,0.013,3.719c0.008,0.288,0.01,0.288,0.293,0.288
	c1.219,0,2.438,0.001,3.66-0.001c0.104,0,0.178,0.025,0.264,0.095c3.168,2.608,6.023,5.537,8.789,8.559
	c0.287,0.314,0.564,0.638,0.85,0.956c0.061,0.068,0.091,0.138,0.091,0.232c-0.004,1.146,0.029,2.294-0.01,3.439
	c-0.058,1.62-0.013,3.237-0.03,4.856c-0.003,0.242,0.055,0.479,0.146,0.707c0.169,0.416,0.533,0.5,0.921,0.512
	c0.356,0.012,0.714,0.017,1.063,0.088c0.256,0.051,0.424,0.205,0.512,0.461c0.082,0.232,0.121,0.463,0.119,0.71
	c-0.008,1-0.004,2-0.004,2.999c0,0.255-0.074,0.49-0.199,0.709c-0.075,0.131-0.178,0.203-0.353,0.201
	c-1.307-0.008-2.612,0.002-3.92-0.01c-0.181-0.002-0.231,0.061-0.237,0.213c-0.015,0.324-0.035,0.645-0.086,0.965
	c-0.133,0.855-0.414,1.658-0.82,2.418c-0.428,0.8-1.002,1.49-1.684,2.082c-0.855,0.744-1.841,1.27-2.938,1.564
	c-0.529,0.143-1.069,0.223-1.622,0.249c-1.779,0.087-3.386-0.413-4.804-1.463c-1.386-1.024-2.314-2.392-2.773-4.062
	c-0.146-0.529-0.245-1.068-0.245-1.623c0-0.307-0.007-0.301-0.313-0.301c-2.858,0.002-5.72,0.004-8.58-0.002
	c-0.201-0.002-0.25,0.063-0.256,0.252c-0.056,1.763-0.684,3.301-1.829,4.635c-1.137,1.324-2.576,2.148-4.283,2.464
	c-2.138,0.394-4.104-0.072-5.851-1.365c-1.518-1.123-2.463-2.635-2.875-4.474c-0.088-0.394-0.143-0.793-0.138-1.201
	c0.001-0.118,0.072-0.311-0.163-0.335c-0.043-0.005-0.028-0.054-0.029-0.084c-0.015-0.259-0.047-0.515-0.043-0.774
	c0.009-0.605-0.01-1.214,0.006-1.82c0.016-0.603,0.06-1.205,0.081-1.81c0.019-0.541,0.062-1.082,0.119-1.62
	c0.069-0.648,0.103-1.3,0.191-1.945c0.059-0.438,0.079-0.879,0.127-1.317c0.025-0.229,0.073-0.454,0.078-0.685
	c0.002-0.074,0.036-0.112,0.109-0.113c0.053-0.001,0.106-0.001,0.16-0.001c3.72,0,7.439-0.003,11.16,0.006
	c0.376,0.001,0.68-0.246,0.69-0.693c0.008-0.34-0.002-0.681,0.002-1.021c0.008-0.531-0.279-0.772-0.762-0.81
	c-0.066-0.005-0.133-0.002-0.2-0.002c-5.22,0-10.439,0-15.659,0c-0.488,0-1.015-0.479-0.994-0.941
	c0.026-0.552,0.34-1.016,0.988-1.016c5.973-0.002,11.946-0.002,17.919-0.001c0.134,0,0.263-0.015,0.385-0.07
	c0.154-0.07,0.249-0.168,0.246-0.363c-0.011-0.68-0.004-1.36-0.004-2.04c0-0.347-0.164-0.516-0.515-0.528
	c-0.047-0.001-0.093,0-0.14,0c-5.14,0-10.28,0-15.419,0c-0.41,0-1-0.417-1.026-0.93c-0.02-0.374,0.229-0.644,0.548-0.834
	C8.932,22.85,9.199,22.8,9.477,22.8c5.807-0.001,11.613-0.001,17.42,0c0.155,0,0.306-0.015,0.454-0.056
	c0.692-0.195,1.045-0.788,0.916-1.534c-0.115-0.663-0.574-1.051-1.247-1.051c-6.626,0-13.253,0-19.879,0
	c-0.389,0-0.738-0.114-1.049-0.342c-0.587-0.43-0.478-1.246-0.051-1.701c0.36-0.385,0.833-0.543,1.331-0.634
	c0.495-0.091,0.999-0.091,1.5-0.125c0.613-0.042,1.226-0.103,1.841-0.117c0.089-0.002,0.137-0.04,0.149-0.125
	c0.007-0.053,0.016-0.106,0.017-0.159c0.015-0.639,0.008-1.278,0.048-1.915c0.048-0.768,0.002-1.547,0.234-2.297
	c0.35-1.133,1.036-1.946,2.19-2.319c0.131-0.042,0.264-0.066,0.404-0.066C17.24,10.36,20.727,10.359,24.213,10.359z"></path>
    <path fill="var(--reverse-color,#fff)" d="M43.68,30.199c-1.332,0-2.666,0-4,0c-0.328,0.001-0.644-0.05-0.931-0.223
	c-0.22-0.131-0.313-0.325-0.321-0.575c-0.062-2.245-0.013-4.491-0.027-6.736c-0.002-0.207,0-0.413,0-0.62
	c-0.002-0.173,0.086-0.259,0.256-0.289c0.41-0.073,0.822-0.029,1.234-0.037c0.435-0.008,0.866,0,1.301-0.003
	c0.104-0.001,0.186,0.025,0.266,0.1c1.688,1.602,3.376,3.201,5.064,4.8c0.514,0.486,1.026,0.971,1.545,1.452
	c0.094,0.087,0.138,0.175,0.139,0.31c0.001,0.479-0.014,0.958-0.045,1.437c-0.021,0.309-0.1,0.382-0.398,0.382
	C46.398,30.199,45.04,30.199,43.68,30.199z"></path>
    <path fill="var(--reverse-color,#fff)" d="M18.231,38.839c1.786-0.087,3.738,1.505,3.575,3.877c-0.106,1.544-1.474,3.441-3.888,3.288
	c-1.539-0.1-3.441-1.469-3.281-3.891C14.748,40.438,16.222,38.779,18.231,38.839z"></path>
    <path fill="var(--reverse-color,#fff)" d="M42.482,45.999c-1.791,0.083-3.726-1.515-3.57-3.862c0.104-1.55,1.471-3.459,3.896-3.302
	c1.531,0.101,3.437,1.464,3.273,3.896C45.971,44.4,44.499,46.061,42.482,45.999z"></path>
  </symbol>
	<symbol id="30day-return" xmlns="http://www.w3.org/2000/svg"
		xmlns:xlink="http://www.w3.org/1999/xlink" x="0px" y="0px" enable-background="new 0 0 60 60"
		xml:space="preserve" viewBox="0 0 60 60">
    <g>
      <path fill-rule="evenodd" clip-rule="evenodd" d="M52.617,21.024c1.313-1.415,2.629-2.835,3.945-4.254
		c0.064,0.03,0.035,0.084,0.034,0.124c-0.052,1.752-0.106,3.504-0.156,5.256c-0.004,0.104-0.05,0.172-0.115,0.242
		c-0.78,0.84-1.56,1.68-2.338,2.521c-1.316,1.423-2.632,2.847-3.947,4.271c-0.041,0.044-0.083,0.087-0.159,0.168
		c-0.002-0.318-0.021-0.598-0.034-0.878c-0.115-2.472-0.683-4.836-1.697-7.09c-2.684-5.96-8.03-10.219-14.462-11.36
		c-6.181-1.098-11.732,0.403-16.521,4.466C13.5,17.6,11.333,21.604,10.53,26.343c-0.164,0.967-0.245,1.944-0.246,2.926
		c0,0.139-0.034,0.175-0.175,0.174c-1.413-0.005-2.826-0.006-4.239,0.001c-0.163,0.001-0.194-0.047-0.19-0.198
		c0.122-4.602,1.382-8.865,3.919-12.708c3.829-5.799,9.187-9.374,16.017-10.659c8.42-1.584,17.142,1.533,22.72,8.044
		c1.781,2.079,3.176,4.39,4.182,6.936c0.02,0.049,0.041,0.098,0.063,0.146C52.583,21.01,52.592,21.011,52.617,21.024z"></path>
      <path fill-rule="evenodd" clip-rule="evenodd" d="M7.506,39.053c-1.302,1.404-2.606,2.81-3.911,4.216
		c-0.066-0.034-0.034-0.094-0.034-0.139c-0.011-1.734,0.062-3.466,0.119-5.198c0.003-0.104,0.047-0.172,0.113-0.243
		c0.812-0.873,1.624-1.747,2.434-2.623c1.285-1.389,2.568-2.779,3.852-4.169c0.043-0.046,0.087-0.091,0.157-0.163
		c0.012,0.503,0.044,0.965,0.076,1.428c0.107,1.558,0.416,3.074,0.897,4.557c2.252,6.942,8.153,12.085,15.339,13.371
		c10.491,1.876,20.595-4.887,22.844-15.291c0.284-1.313,0.438-2.642,0.445-3.985c0-0.138,0.031-0.177,0.173-0.176
		c1.413,0.006,2.826,0.006,4.24-0.001c0.16-0.001,0.194,0.044,0.19,0.197c-0.121,4.603-1.382,8.865-3.919,12.708
		c-3.828,5.8-9.187,9.374-16.017,10.66c-8.414,1.583-17.15-1.537-22.708-8.029c-1.79-2.091-3.194-4.41-4.202-6.971
		C7.577,39.154,7.573,39.097,7.506,39.053z"></path>
      <path fill-rule="evenodd" clip-rule="evenodd" d="M41.516,28.958c-0.007,1.782-0.371,3.474-1.28,5.025
		c-0.671,1.146-1.563,2.077-2.834,2.528c-2.014,0.715-3.832,0.326-5.38-1.161c-1.031-0.99-1.645-2.232-1.991-3.604
		c-0.555-2.193-0.491-4.367,0.291-6.5c0.445-1.215,1.134-2.269,2.151-3.091c1.912-1.546,4.814-1.484,6.682,0.375
		c1.06,1.056,1.679,2.35,2.044,3.779C41.43,27.215,41.514,27.999,41.516,28.958z"></path>
      <path fill-rule="evenodd" clip-rule="evenodd" d="M26.424,28.489c1.179,0.542,1.689,1.561,1.89,2.754
		c0.484,2.881-1.71,5.198-4.072,5.544c-2.823,0.414-4.909-1.371-5.498-3.458c-0.111-0.393-0.164-0.794-0.179-1.201
		c-0.004-0.113,0.03-0.15,0.146-0.149c0.793,0.004,1.586,0.004,2.379,0c0.115-0.001,0.139,0.039,0.147,0.148
		c0.064,0.912,0.529,1.563,1.368,1.893c0.871,0.342,1.696,0.191,2.395-0.448c0.704-0.646,0.888-1.447,0.6-2.349
		c-0.191-0.598-0.636-0.97-1.188-1.224c-0.591-0.272-1.223-0.358-1.865-0.374c-0.155-0.004-0.186-0.052-0.183-0.195
		c0.008-0.56,0.009-1.12,0-1.679c-0.003-0.152,0.042-0.186,0.189-0.188c0.618-0.009,1.219-0.106,1.774-0.4
		c0.738-0.39,1.096-1.137,0.929-1.939c-0.167-0.8-0.873-1.447-1.655-1.507c-0.832-0.063-1.487,0.272-1.996,0.915
		c-0.186,0.235-0.285,0.511-0.309,0.809c-0.008,0.103-0.045,0.129-0.146,0.129c-0.793-0.004-1.586-0.006-2.379,0.001
		c-0.146,0.001-0.142-0.07-0.138-0.17c0.039-1.056,0.428-1.974,1.141-2.74c1.039-1.118,2.327-1.68,3.867-1.612
		c2.112,0.092,3.985,1.798,4.27,3.889c0.128,0.942-0.04,1.829-0.534,2.646c-0.214,0.354-0.502,0.635-0.867,0.837
		C26.479,28.437,26.428,28.439,26.424,28.489z"></path>
      <path fill-rule="evenodd" clip-rule="evenodd" fill="var(--reverse-color,#fff)" d="M39.02,28.951c-0.013,1.148-0.17,2.27-0.668,3.316
		c-0.32,0.672-0.754,1.26-1.436,1.611c-0.986,0.51-2.686,0.543-3.722-1.014c-0.494-0.742-0.759-1.564-0.899-2.43
		c-0.223-1.38-0.16-2.747,0.264-4.085c0.229-0.726,0.585-1.379,1.147-1.911c1.061-1.003,3.096-1.052,4.188,0.447
		c0.534,0.733,0.819,1.559,0.984,2.436C38.979,27.861,39.011,28.405,39.02,28.951z"></path>
    </g>
  </symbol>
	<symbol id="price-quality" xmlns="http://www.w3.org/2000/svg"
		xmlns:xlink="http://www.w3.org/1999/xlink" x="0px" y="0px" enable-background="new 0 0 60 60"
		xml:space="preserve" viewBox="0 0 60 60">
    <path fill-rule="evenodd" clip-rule="evenodd" d="M42.901,22.314c-0.021,0.015-0.041,0.03-0.062,0.045
	c-0.096,0.051-0.179,0.125-0.284,0.158l0.002-0.001c-0.065,0.051-0.138,0.089-0.216,0.118c-0.021,0.016-0.042,0.031-0.063,0.046
	c-0.066,0.043-0.135,0.083-0.211,0.111l0.005-0.003c-0.079,0.044-0.147,0.11-0.241,0.126l0.004-0.002
	c-0.065,0.071-0.156,0.094-0.242,0.125l0.003-0.002c-0.04,0.053-0.106,0.057-0.161,0.084l0.003-0.001
	c-0.044,0.048-0.108,0.055-0.162,0.081l0.002-0.001c-0.047,0.048-0.11,0.06-0.171,0.079c-0.022,0.014-0.045,0.029-0.067,0.043
	c-0.04,0.031-0.084,0.055-0.127,0.076c0.063-0.021,0.091,0.021,0.121,0.061c0.016,0.032,0.043,0.034,0.073,0.029
	c0.061,0.019,0.124,0.031,0.171,0.079l-0.002-0.001c0.054,0.026,0.118,0.033,0.162,0.082l-0.003-0.001
	c0.055,0.027,0.121,0.031,0.161,0.084l-0.003-0.002c0.086,0.031,0.177,0.053,0.242,0.124l-0.004-0.002
	c0.094,0.016,0.162,0.082,0.241,0.126l-0.005-0.003c0.074,0.034,0.154,0.057,0.207,0.125c0.012,0.032,0.037,0.035,0.066,0.031
	c0.078,0.029,0.15,0.067,0.216,0.119l-0.002-0.001c0.103,0.042,0.2,0.091,0.279,0.172c0.012,0.032,0.037,0.036,0.066,0.031
	c0.076,0.036,0.162,0.056,0.212,0.134c0.04,0.057,0.1,0.082,0.162,0.101c0.161,0.076,0.311,0.169,0.44,0.291
	c0.186,0.13,0.371,0.26,0.557,0.391c0.042,0.029,0.104,0.033,0.121,0.095c0.064,0.049,0.128,0.098,0.192,0.147
	c0.097,0.053,0.184,0.116,0.25,0.206c0.015,0.036,0.037,0.063,0.077,0.072c0.096,0.055,0.169,0.135,0.241,0.215
	c0.115,0.116,0.229,0.232,0.345,0.348c0.065,0.034,0.094,0.102,0.142,0.151l0.001,0.001c0.046,0.04,0.104,0.07,0.112,0.139
	c0.004,0.074,0.063,0.106,0.11,0.147c0.106,0.106,0.195,0.223,0.247,0.365l-0.003-0.004c0.063,0.041,0.067,0.11,0.086,0.173
	c-0.007,0.028-0.003,0.052,0.026,0.066c0.083,0.106,0.107,0.233,0.132,0.36l-0.001-0.003c0.052,0.198,0.05,0.397,0.011,0.597
	c-0.134,0.431-0.425,0.731-0.803,0.959c-0.049,0.045-0.112,0.059-0.173,0.077c-0.036,0.016-0.072,0.032-0.107,0.048
	c-0.229,0.119-0.471,0.197-0.726,0.232l0.004-0.001c-0.131,0.046-0.269,0.057-0.403,0.082l0.004-0.001
	c-0.215,0.057-0.437,0.06-0.655,0.081c-0.035,0.002-0.069,0.005-0.104,0.007c-0.179,0.045-0.362-0.005-0.54,0.034
	c-0.286-0.001-0.572-0.002-0.857-0.003c-0.253-0.035-0.51,0.021-0.761-0.04l0.003,0c-0.27-0.012-0.538-0.036-0.805-0.075
	c-0.013-0.001-0.025-0.003-0.038-0.004c-0.202-0.014-0.405-0.025-0.603-0.077c-0.012-0.002-0.024-0.003-0.037-0.005
	c-0.078-0.027-0.167,0.017-0.242-0.034c-0.013-0.002-0.025-0.004-0.037-0.006c-0.066-0.023-0.14,0.005-0.203-0.032
	c-0.013-0.002-0.025-0.004-0.038-0.006c-0.077-0.033-0.166,0.011-0.24-0.04l0.003,0.001c-0.078-0.028-0.168,0.008-0.242-0.042
	l0.002,0c-0.078-0.018-0.09,0.02-0.072,0.085c0.014,0.05,0.056,0.087,0.063,0.141c0.072,0.191,0.166,0.371,0.274,0.543
	c0.062,0.038,0.063,0.108,0.088,0.164c0.204,0.451,0.407,0.901,0.611,1.353c0.069,0.07,0.074,0.169,0.107,0.255
	c-0.007,0.012-0.005,0.02,0.008,0.025c0.037,0.055,0.06,0.114,0.071,0.18c-0.003,0.038-0.008,0.078,0.031,0.104
	c0.057,0.061,0.068,0.14,0.089,0.215c0.09,0.289,0.18,0.577,0.27,0.865c0.066,0.087,0.062,0.196,0.091,0.294
	c-0.003,0.065-0.007,0.13,0.044,0.182c0.044,0.108,0.057,0.224,0.076,0.337l-0.006,0.013l0.01,0.01
	c0.047,0.145,0.052,0.297,0.078,0.445l-0.002-0.003c0.059,0.103-0.006,0.221,0.04,0.325l-0.003-0.005
	c0.05,0.252,0.032,0.505,0.01,0.758c-0.002,0.023-0.004,0.048-0.006,0.071c-0.039,0.091,0.021,0.199-0.054,0.284
	c-0.113,0.436-0.279,0.837-0.714,1.056c-0.087,0.044-0.18,0.076-0.27,0.113c-0.184,0.056-0.369,0.081-0.559,0.036
	c-0.014-0.001-0.026-0.003-0.039-0.005c-0.08-0.012-0.165,0.003-0.241-0.035c-0.061-0.032-0.14,0.02-0.193-0.043
	c-0.051-0.028-0.12,0.01-0.164-0.045l0.004,0.002c-0.084-0.021-0.172-0.03-0.247-0.078c-0.061-0.027-0.121-0.055-0.182-0.082
	c-0.329-0.124-0.64-0.285-0.938-0.47c-0.068-0.042-0.137-0.083-0.205-0.125c-0.057-0.054-0.136-0.071-0.195-0.12
	c-0.039-0.026-0.078-0.053-0.117-0.079c-0.059-0.032-0.103-0.087-0.163-0.117c-0.04-0.027-0.08-0.056-0.12-0.083
	c-0.055-0.038-0.104-0.084-0.16-0.12c-0.069-0.053-0.139-0.106-0.208-0.16c-0.044-0.048-0.115-0.06-0.151-0.116
	c-0.083-0.067-0.165-0.136-0.248-0.203c-0.05-0.042-0.097-0.086-0.152-0.12c-0.136-0.12-0.272-0.24-0.408-0.36
	c-0.077-0.066-0.15-0.139-0.231-0.2c-0.069-0.066-0.138-0.134-0.207-0.2c-0.045-0.032-0.081-0.073-0.114-0.117l-0.002-0.001
	c-0.076-0.056-0.14-0.124-0.199-0.196l-0.003-0.003c-0.043-0.034-0.081-0.074-0.118-0.114l-0.005-0.005
	c-0.069-0.061-0.134-0.126-0.194-0.195l-0.005-0.005c-0.07-0.062-0.138-0.125-0.194-0.198l-0.003-0.003
	c-0.041-0.035-0.082-0.069-0.115-0.111c-0.09-0.096-0.152-0.148-0.181,0.048c-0.081,0.573-0.174,1.145-0.301,1.709
	c-0.304,1.354-0.664,2.688-1.443,3.863c-0.262,0.395-0.569,0.743-1.022,0.939c-0.504,0.218-0.948,0.115-1.359-0.218
	c-0.497-0.403-0.803-0.943-1.079-1.504c-0.407-0.829-0.666-1.708-0.885-2.602c-0.124-0.506-0.205-1.019-0.323-1.525
	c-0.05-0.217-0.054-0.444-0.075-0.668c-0.005-0.058-0.021-0.108-0.075-0.128c-0.056-0.02-0.08,0.026-0.099,0.071
	c-0.024,0.054-0.071,0.088-0.114,0.125l-0.003,0.003c-0.057,0.073-0.125,0.137-0.194,0.198l-0.004,0.005
	c-0.061,0.069-0.125,0.135-0.195,0.195l-0.005,0.005c-0.037,0.04-0.075,0.08-0.118,0.114l-0.002,0.003
	c-0.06,0.072-0.124,0.141-0.2,0.196l-0.001,0.001c-0.037,0.045-0.07,0.094-0.127,0.115c-0.066,0.063-0.133,0.125-0.199,0.188
	c-0.07,0.081-0.148,0.155-0.24,0.213c-0.129,0.123-0.286,0.216-0.395,0.361c-0.058,0.035-0.103,0.09-0.167,0.118
	c-0.08,0.063-0.159,0.127-0.238,0.189c-0.021,0.083-0.107,0.087-0.16,0.131c-0.066,0.049-0.133,0.098-0.2,0.146
	c-0.046,0.058-0.098,0.106-0.169,0.13c-0.037,0.024-0.073,0.048-0.11,0.071c-0.049,0.056-0.099,0.11-0.175,0.129
	c-0.036,0.021-0.071,0.044-0.106,0.065c-0.045,0.079-0.136,0.091-0.205,0.137c-0.064,0.037-0.129,0.074-0.193,0.112
	c-0.283,0.216-0.608,0.351-0.934,0.485c-0.079-0.015-0.128,0.038-0.182,0.082c-0.075,0.048-0.164,0.057-0.248,0.078l0.004-0.002
	c-0.043,0.055-0.113,0.017-0.164,0.045c-0.072-0.019-0.131,0.02-0.193,0.043c-0.077,0.038-0.161,0.023-0.241,0.035
	c-0.013,0.002-0.026,0.004-0.039,0.005c-0.19,0.045-0.376,0.02-0.56-0.036c-0.402-0.053-0.848-0.491-0.955-0.942
	c-0.017-0.073-0.028-0.147-0.042-0.222c-0.049-0.091-0.003-0.195-0.039-0.289c-0.002-0.023-0.004-0.048-0.005-0.071
	c-0.023-0.253-0.041-0.506,0.009-0.758l-0.002,0.004c0.045-0.104-0.019-0.222,0.04-0.324l-0.001,0.003
	c0.024-0.148,0.031-0.301,0.078-0.445l0.01-0.01l-0.006-0.013c0.02-0.113,0.033-0.229,0.077-0.337
	c0.039-0.055-0.031-0.136,0.044-0.182c0.02-0.101,0.042-0.201,0.076-0.299c0.093-0.292,0.186-0.585,0.279-0.877
	c0.036-0.064,0.045-0.139,0.081-0.203c0.016-0.038-0.002-0.088,0.039-0.118c0.029-0.052,0.039-0.113,0.077-0.161
	c0.012-0.006,0.015-0.014,0.008-0.025c0.033-0.086,0.037-0.185,0.107-0.255c0.12-0.359,0.284-0.699,0.45-1.038
	c0.054-0.109,0.105-0.219,0.158-0.328c0.033-0.048,0.039-0.109,0.078-0.153c0.121-0.23,0.241-0.461,0.362-0.692
	c0.023-0.199-0.121-0.014-0.16-0.07c-0.069-0.001-0.141-0.019-0.205,0.023c-0.067,0.074-0.163,0.021-0.238,0.055l0.002,0
	c-0.075,0.055-0.168-0.004-0.246,0.039l0.004-0.002c-0.088,0.057-0.191,0.011-0.283,0.041l0.003-0.001
	c-0.115,0.052-0.241,0.01-0.358,0.046c-0.014,0.001-0.027,0.002-0.041,0.004c-0.078,0.041-0.167-0.008-0.245,0.033l0.004-0.002
	c-0.133,0.061-0.277,0.004-0.412,0.041c-0.036,0.002-0.071,0.005-0.107,0.008c-0.132,0.042-0.271,0.001-0.404,0.033l0.003,0
	c-0.026,0.026-0.06,0.025-0.093,0.025c-0.617,0-1.234,0.011-1.852,0c-0.033,0-0.066,0.001-0.094-0.022
	c-0.012-0.001-0.025-0.002-0.038-0.003c-0.105-0.025-0.217,0.004-0.322-0.034c-0.026-0.003-0.051-0.005-0.077-0.008
	c-0.066-0.022-0.139,0.004-0.203-0.031c-0.013-0.001-0.026-0.003-0.04-0.004c-0.07,0.008-0.134-0.019-0.2-0.035l-0.014-0.011
	l-0.017,0.005c-0.067-0.028-0.146,0.008-0.21-0.04c-0.112-0.007-0.219-0.034-0.323-0.076c-0.077-0.035-0.166-0.034-0.237-0.083
	c-0.069-0.025-0.138-0.051-0.208-0.077c-0.077-0.041-0.162-0.065-0.232-0.121l0,0c-0.052-0.03-0.115-0.037-0.161-0.079
	c-0.07-0.054-0.14-0.107-0.21-0.161c-0.083-0.072-0.161-0.147-0.229-0.232c-0.083-0.081-0.136-0.178-0.166-0.289
	c-0.048-0.059-0.046-0.136-0.071-0.203l0,0.003c-0.05-0.186-0.038-0.372,0.002-0.557l-0.001,0.003c0.02-0.096,0.017-0.2,0.083-0.283
	l-0.002,0.004c0.1-0.26,0.214-0.512,0.406-0.721l-0.003,0.003c0.023-0.068,0.073-0.116,0.123-0.164l-0.003,0.004
	c0.013-0.064,0.066-0.093,0.112-0.129l0,0c0.052-0.069,0.108-0.134,0.171-0.193l-0.003,0.004c0.022-0.082,0.091-0.123,0.152-0.169
	c0.053-0.053,0.107-0.106,0.161-0.159c0.071-0.074,0.159-0.129,0.231-0.202c0.043-0.04,0.085-0.08,0.128-0.12
	c0.074-0.044,0.127-0.113,0.198-0.16c0.201-0.149,0.401-0.299,0.602-0.448c0.041-0.052,0.109-0.065,0.154-0.112
	c0.095-0.067,0.19-0.133,0.286-0.2c0.043-0.042,0.106-0.048,0.154-0.083l0.004-0.003c0.048-0.052,0.111-0.082,0.174-0.11
	c0.036-0.028,0.072-0.056,0.108-0.084c0.067-0.046,0.139-0.083,0.213-0.116c0.062-0.042,0.125-0.083,0.187-0.125
	c0.047-0.043,0.11-0.054,0.166-0.078c0.091-0.056,0.183-0.112,0.274-0.167c0.073-0.035,0.139-0.084,0.216-0.109
	c0.021-0.016,0.042-0.031,0.063-0.047c0.048-0.04,0.108-0.054,0.166-0.075l-0.003,0.002c0.068-0.066,0.158-0.089,0.241-0.124
	l-0.002,0.001c0.043-0.048,0.108-0.053,0.161-0.082l-0.001,0c0.101-0.069,0.211-0.12,0.327-0.159
	c0.024-0.016,0.048-0.032,0.073-0.047c0.071-0.037,0.071-0.074,0-0.111c-0.03-0.015-0.06-0.029-0.089-0.044
	c-0.104-0.055-0.216-0.091-0.311-0.162l0.001,0c-0.053-0.029-0.118-0.034-0.161-0.083l0.002,0.001
	c-0.084-0.035-0.173-0.058-0.241-0.124l0.003,0.002c-0.057-0.021-0.117-0.035-0.166-0.075c-0.027-0.014-0.053-0.027-0.08-0.042
	c-0.061-0.048-0.134-0.075-0.2-0.114c-0.097-0.055-0.193-0.11-0.29-0.166c-0.046-0.035-0.109-0.038-0.15-0.08
	c-0.067-0.04-0.135-0.08-0.202-0.12c-0.059-0.053-0.138-0.071-0.198-0.12c-0.041-0.027-0.083-0.053-0.124-0.08
	c-0.047-0.046-0.117-0.061-0.159-0.115l-0.004-0.002c-0.047-0.035-0.11-0.042-0.154-0.083c-0.096-0.067-0.191-0.133-0.286-0.2
	c-0.045-0.046-0.114-0.06-0.154-0.112c-0.2-0.149-0.401-0.299-0.602-0.448c-0.071-0.047-0.125-0.116-0.198-0.16
	c-0.043-0.04-0.085-0.08-0.128-0.12c-0.073-0.072-0.16-0.127-0.231-0.202c-0.054-0.053-0.107-0.105-0.161-0.158
	c-0.061-0.047-0.13-0.088-0.152-0.17l0.003,0.004c-0.063-0.059-0.119-0.125-0.171-0.193l0,0c-0.045-0.036-0.099-0.065-0.112-0.129
	l0.003,0.004c-0.05-0.048-0.1-0.096-0.123-0.164l0.003,0.004c-0.191-0.209-0.306-0.461-0.406-0.721l0.002,0.004
	c-0.066-0.083-0.063-0.186-0.083-0.283l0.001,0.003c-0.04-0.186-0.053-0.371-0.002-0.557l-0.001,0.002
	c0.025-0.067,0.024-0.144,0.072-0.203c0.03-0.11,0.083-0.208,0.166-0.289c0.069-0.085,0.147-0.161,0.229-0.232
	c0.07-0.053,0.14-0.107,0.21-0.161c0.046-0.042,0.109-0.049,0.161-0.079h0c0.075-0.055,0.16-0.089,0.248-0.118
	c0.064-0.025,0.139-0.028,0.192-0.08c0.079-0.047,0.168-0.059,0.256-0.078c0.105-0.012,0.21-0.027,0.304-0.082
	c0.063-0.047,0.143-0.011,0.21-0.039c0.012,0.008,0.022,0.006,0.031-0.006c0.066-0.016,0.13-0.043,0.2-0.035
	c0.013-0.001,0.026-0.003,0.04-0.004c0.064-0.035,0.137-0.009,0.203-0.03c0.026-0.003,0.052-0.006,0.077-0.009
	c0.104-0.038,0.216-0.008,0.322-0.034c0.012-0.001,0.025-0.002,0.037-0.002c0.236-0.05,0.475-0.025,0.712-0.028
	c0.404-0.005,0.81,0.003,1.214,0.006c0.039,0,0.081-0.008,0.113,0.025l-0.003-0.001c0.133,0.032,0.272-0.009,0.404,0.033
	c0.036,0.002,0.071,0.005,0.107,0.007c0.135,0.036,0.279-0.02,0.412,0.041l-0.004-0.002c0.078,0.042,0.167-0.008,0.245,0.033
	c0.014,0.001,0.027,0.002,0.041,0.004c0.117,0.036,0.243-0.006,0.358,0.046l-0.003,0c0.092,0.029,0.195-0.016,0.283,0.041
	l-0.004-0.002c0.077,0.042,0.17-0.016,0.246,0.039l-0.002,0c0.076,0.034,0.171-0.019,0.238,0.055
	c0.064,0.042,0.135,0.024,0.205,0.023c0.044-0.05,0.142,0.103,0.161-0.042c-0.054-0.106-0.108-0.212-0.162-0.319
	c-0.041-0.047-0.05-0.108-0.077-0.162l0,0.001c-0.044-0.04-0.046-0.103-0.082-0.147c-0.015-0.031-0.031-0.062-0.046-0.092
	c-0.027-0.049-0.057-0.096-0.076-0.149c-0.014-0.03-0.028-0.061-0.042-0.091c-0.037-0.049-0.049-0.108-0.075-0.162l0.001,0.001
	c-0.046-0.041-0.049-0.105-0.083-0.153c-0.042-0.096-0.084-0.191-0.126-0.287c-0.033-0.051-0.05-0.108-0.071-0.164l0.001,0.002
	c-0.048-0.046-0.065-0.105-0.075-0.168l0.003,0.004c-0.061-0.048-0.048-0.133-0.093-0.189c-0.213-0.497-0.417-0.998-0.561-1.52
	c-0.052-0.188-0.142-0.366-0.159-0.564c-0.048-0.164-0.1-0.327-0.115-0.499l0.006-0.012l-0.009-0.009
	c-0.036-0.05-0.017-0.11-0.032-0.164c-0.002-0.012-0.004-0.024-0.006-0.036c-0.053-0.058,0.008-0.141-0.043-0.2
	c0-0.027-0.001-0.054-0.001-0.081c-0.043-0.083,0.003-0.177-0.035-0.26c-0.001-0.02-0.002-0.04-0.003-0.06
	c-0.032-0.389-0.048-0.777,0.043-1.161c0.098-0.455,0.29-0.837,0.743-1.045c0.071-0.032,0.165,0.003,0.214-0.078
	c0.051-0.027,0.109-0.013,0.162-0.03c0.013-0.002,0.025-0.004,0.038-0.006c0.147-0.032,0.294-0.033,0.44,0
	c0.013,0.001,0.025,0.003,0.038,0.005c0.077,0.032,0.167-0.011,0.241,0.039l-0.002-0.001c0.052,0.021,0.115-0.003,0.164,0.037
	h-0.001c0.048,0.031,0.125-0.016,0.156,0.059c0.032,0.035,0.074,0.025,0.113,0.024c0.07,0.028,0.15,0.031,0.208,0.088
	c0.058,0.042,0.125,0.062,0.195,0.071c0.233,0.074,0.442,0.194,0.644,0.329c0.084,0.06,0.161,0.135,0.27,0.152
	c0.095,0.039,0.182,0.088,0.251,0.166c0.027,0.043,0.071,0.058,0.116,0.072c0.057,0.039,0.132,0.052,0.166,0.122
	c0.11,0.089,0.214,0.186,0.347,0.241c0.071,0.024,0.123,0.073,0.169,0.129c0.013,0.009,0.025,0.019,0.038,0.028
	c0.063,0.03,0.112,0.079,0.164,0.124l-0.003-0.002c0.063,0.034,0.12,0.073,0.16,0.134c0.088,0.109,0.208,0.181,0.317,0.266
	c0.083,0.041,0.144,0.107,0.203,0.175c0.016,0.033,0.037,0.06,0.077,0.065c0.061,0.018,0.093,0.069,0.13,0.113l0.002,0.001
	c0.049,0.049,0.116,0.078,0.151,0.141c0.096,0.112,0.199,0.218,0.321,0.302c0.071,0.037,0.124,0.093,0.164,0.161
	c0,0.026,0.015,0.038,0.04,0.038c0.052,0.027,0.086,0.072,0.124,0.114l0.003,0.003c0.057,0.049,0.117,0.096,0.154,0.164
	c0,0.027,0.014,0.039,0.04,0.039c0.066,0.042,0.121,0.094,0.16,0.162c0,0.025,0.013,0.038,0.038,0.039
	c0.069,0.04,0.126,0.092,0.161,0.165c0.107,0.086,0.125-0.005,0.129-0.075c0.023-0.442,0.113-0.875,0.201-1.304
	c0.2-0.977,0.427-1.948,0.808-2.876c0.223-0.542,0.467-1.071,0.811-1.549c0.282-0.393,0.605-0.734,1.092-0.871
	c0.543-0.153,0.976,0.067,1.354,0.42c0.463,0.432,0.769,0.977,1.022,1.548c0.534,1.205,0.854,2.472,1.065,3.769
	c0.048,0.292,0.104,0.583,0.149,0.875c0.017,0.111,0.05,0.13,0.13,0.049c0.044-0.057,0.095-0.107,0.15-0.153
	c0.017-0.017,0.033-0.034,0.05-0.051c0.045-0.054,0.095-0.103,0.148-0.149c0.017-0.017,0.034-0.035,0.051-0.052
	c0.047-0.055,0.1-0.104,0.155-0.15l0.003-0.003c0.036-0.04,0.069-0.081,0.111-0.114c0.017-0.017,0.034-0.034,0.051-0.051
	c0.046-0.054,0.096-0.104,0.151-0.149c0.109-0.105,0.219-0.211,0.328-0.316c0.054-0.041,0.106-0.081,0.157-0.125l0.002-0.001
	c0.034-0.044,0.071-0.085,0.117-0.117c0.028-0.026,0.056-0.052,0.084-0.078c0.07-0.047,0.127-0.111,0.194-0.163
	c0.108-0.092,0.218-0.185,0.326-0.277c0.057-0.037,0.102-0.091,0.166-0.119l-0.003,0.002c0.047-0.046,0.102-0.082,0.149-0.126
	c0.016-0.014,0.032-0.028,0.048-0.042c0.063-0.03,0.103-0.097,0.174-0.113c0.115-0.085,0.23-0.17,0.346-0.255
	c0.041-0.05,0.108-0.063,0.152-0.11c0.043-0.028,0.086-0.056,0.128-0.084c0.085-0.051,0.158-0.12,0.255-0.15
	c0.088-0.056,0.177-0.112,0.266-0.168c0.218-0.101,0.412-0.249,0.648-0.313c0.062-0.033,0.141-0.028,0.191-0.086
	c0.069-0.027,0.14-0.052,0.212-0.073c0.045,0.012,0.075-0.015,0.106-0.04c0.046-0.047,0.112-0.017,0.163-0.043h-0.001
	c0.048-0.041,0.11-0.016,0.163-0.037l-0.003,0.001c0.074-0.05,0.164-0.007,0.241-0.039c0.013-0.001,0.024-0.003,0.037-0.005
	c0.147-0.033,0.294-0.032,0.44,0c0.013,0.002,0.025,0.004,0.038,0.006c0.051,0.023,0.116-0.01,0.159,0.043
	c0.567,0.157,0.809,0.592,0.945,1.115c0.066,0.15,0.082,0.309,0.076,0.469c-0.009,0.229,0.023,0.458-0.02,0.686
	c-0.001,0.02-0.002,0.04-0.003,0.06c-0.039,0.083,0.008,0.177-0.035,0.26c-0.002,0.02-0.004,0.039-0.005,0.059
	c-0.037,0.07,0.01,0.154-0.039,0.222c-0.004,0.008-0.008,0.015-0.01,0.023c-0.001,0.004,0.002,0.009,0.003,0.013
	c-0.015,0.054,0.004,0.114-0.032,0.164l-0.009,0.009l0.006,0.011c-0.022,0.17-0.053,0.338-0.128,0.495
	c-0.176,0.583-0.358,1.164-0.59,1.728c-0.007,0.017-0.002,0.04-0.003,0.059c-0.013,0.064-0.033,0.125-0.073,0.178
	c-0.033,0.029-0.056,0.062-0.045,0.109c-0.03,0.068-0.03,0.149-0.09,0.205l0.004-0.004c-0.01,0.063-0.027,0.123-0.075,0.169
	l0.002-0.003c-0.025,0.055-0.03,0.122-0.084,0.162c-0.054,0.085-0.096,0.175-0.116,0.274c-0.022,0.058-0.033,0.121-0.079,0.167
	l0.001-0.001c-0.03,0.053-0.03,0.122-0.088,0.159c-0.04,0.016-0.032,0.05-0.032,0.081c-0.021,0.058-0.033,0.119-0.086,0.16
	c-0.042,0.013-0.034,0.048-0.033,0.08c-0.029,0.053-0.035,0.117-0.081,0.161v-0.001c-0.031,0.052-0.028,0.124-0.09,0.158
	c-0.04,0.032-0.055,0.077-0.065,0.124c0.012,0.016,0.016,0.032,0.014,0.051c-0.046,0.098-0.069,0.18,0.093,0.147
	c0.045-0.009,0.089,0.029,0.135,0.005l-0.003,0.001c0.072-0.06,0.161-0.02,0.24-0.04c0.013-0.002,0.025-0.004,0.038-0.006
	c0.063-0.037,0.138-0.009,0.203-0.032c0.012-0.002,0.024-0.004,0.037-0.006c0.075-0.05,0.164-0.006,0.242-0.034
	c0.013-0.002,0.025-0.003,0.037-0.005c0.197-0.052,0.4-0.063,0.603-0.077c0.013-0.001,0.025-0.003,0.038-0.004
	c0.267-0.04,0.535-0.063,0.805-0.075h-0.003c0.251-0.061,0.508-0.004,0.761-0.04c0.013,0,0.025,0,0.037-0.001
	c0.2-0.104,0.4-0.101,0.601-0.003c0.073,0.02,0.146,0.023,0.22,0.002c0.178,0.039,0.361-0.012,0.54,0.033
	c0.034,0.002,0.068,0.005,0.104,0.007c0.219,0.022,0.44,0.024,0.655,0.082l-0.004-0.002c0.135,0.025,0.272,0.036,0.403,0.082
	l-0.004-0.002c0.256,0.036,0.497,0.113,0.726,0.232c0.028,0.031,0.06,0.058,0.107,0.048c0.06,0.022,0.132,0.022,0.168,0.09
	c0.383,0.218,0.676,0.513,0.808,0.945c0.039,0.2,0.041,0.399-0.011,0.597l0.001-0.003c-0.024,0.127-0.049,0.254-0.132,0.36
	c-0.029,0.014-0.033,0.038-0.026,0.067c-0.019,0.063-0.022,0.133-0.086,0.173l0.003-0.004c-0.052,0.142-0.141,0.259-0.247,0.365
	c-0.019,0.063-0.111,0.07-0.11,0.147c-0.009,0.069-0.066,0.099-0.112,0.139l-0.001,0.001c-0.048,0.049-0.076,0.118-0.142,0.151
	c-0.115,0.116-0.229,0.232-0.345,0.348c-0.072,0.081-0.146,0.16-0.241,0.216c-0.057,0.001-0.032,0.071-0.073,0.085
	c-0.084,0.065-0.155,0.146-0.254,0.192c-0.064,0.049-0.128,0.098-0.192,0.147c-0.017,0.062-0.079,0.066-0.121,0.095
	c-0.185,0.135-0.369,0.27-0.554,0.405c-0.146,0.093-0.278,0.212-0.443,0.276c-0.054,0.034-0.107,0.068-0.161,0.102
	C43.064,22.258,42.978,22.279,42.901,22.314z"></path>
    <path fill-rule="evenodd" clip-rule="evenodd" d="M44.24,46.727c-0.37-0.087-0.665,0.074-0.952,0.279
	c-0.902,0.646-1.539,1.518-2.1,2.454c-0.604,1.008-1.075,2.076-1.479,3.177c-0.085,0.233-0.185,0.477-0.383,0.641
	c-0.352,0.291-0.601,0.161-0.871-0.18c-0.22-0.276-0.34-0.609-0.48-0.926c-0.21-0.472-0.432-0.937-0.646-1.405
	c-0.314-0.69-0.649-1.37-0.982-2.051c-0.428-0.871-0.864-1.737-1.305-2.603c-0.421-0.827-0.84-1.656-1.281-2.473
	c-0.188-0.348-0.348-0.71-0.554-1.05c-0.132-0.22-0.04-0.47,0.048-0.689c0.218-0.548,0.529-1.042,0.941-1.463
	c0.521-0.53,1.146-0.898,1.86-1.113c0.439-0.132,0.889-0.205,1.344-0.252c0.346-0.021,0.692-0.021,1.038,0
	c0.075,0.004,0.151,0.007,0.227,0.011c0.067,0.034,0.146-0.001,0.214,0.029c0.428,0.047,0.843,0.199,1.281,0.159
	c0.069-0.028,0.146,0.005,0.215-0.028c0.435-0.022,0.794-0.232,1.123-0.487c0.786-0.609,1.331-1.4,1.728-2.31
	c0.258-0.591,0.475-1.191,0.624-1.817c0.015-0.058,0.002-0.171,0.109-0.188c0.111-0.018,0.127,0.087,0.16,0.147
	c0.354,0.653,0.702,1.311,1.054,1.965c1.038,1.933,2.076,3.864,3.116,5.796c0.814,1.515,1.622,3.034,2.453,4.541
	c0.246,0.446,0.07,0.489-0.266,0.575c-0.038,0.01-0.078,0.013-0.118,0.02c-0.105,0.021-0.212,0.02-0.318,0.001
	c-0.53-0.02-1.052-0.115-1.578-0.173c-0.419-0.045-0.832-0.16-1.252-0.196c-0.428-0.036-0.847-0.13-1.275-0.172
	c-0.36-0.036-0.723-0.093-1.083-0.15c-0.066-0.036-0.144,0.002-0.211-0.029c-0.05-0.004-0.099-0.007-0.148-0.011
	C44.412,46.718,44.321,46.759,44.24,46.727z"></path>
    <path fill-rule="evenodd" clip-rule="evenodd" d="M21.374,39.084c0.076-0.004,0.151-0.007,0.226-0.011
	c0.346-0.021,0.692-0.021,1.039,0c0.851,0.089,1.67,0.282,2.399,0.753c0.889,0.574,1.522,1.349,1.805,2.385
	c0.01,0.037,0.029,0.072,0.044,0.109c0.034,0.056,0.038,0.108-0.014,0.157c-0.5,0.916-0.97,1.848-1.449,2.774
	c-0.79,1.527-1.557,3.065-2.312,4.61c-0.438,0.896-0.862,1.8-1.255,2.717c-0.099,0.231-0.222,0.456-0.397,0.634
	c-0.27,0.274-0.634,0.362-0.926-0.123c-0.193-0.32-0.308-0.675-0.446-1.019c-0.29-0.724-0.605-1.435-0.982-2.12
	c-0.304-0.555-0.635-1.087-1.019-1.588c-0.49-0.639-1.046-1.206-1.769-1.59c-0.173-0.092-0.345-0.059-0.521-0.047
	c-0.082,0.032-0.171-0.009-0.252,0.029c-0.049,0.004-0.098,0.007-0.147,0.011c-0.067,0.031-0.145-0.007-0.211,0.029
	c-0.564,0.031-1.119,0.142-1.678,0.21c-0.497,0.062-0.99,0.157-1.487,0.225c-0.674,0.092-1.349,0.172-2.024,0.257
	c-0.106,0.019-0.212,0.021-0.318-0.001c-0.113-0.026-0.231-0.02-0.342-0.07c-0.181-0.082-0.226-0.189-0.128-0.373
	c0.192-0.361,0.387-0.72,0.58-1.08c0.395-0.735,0.789-1.473,1.185-2.208c0.384-0.713,0.772-1.423,1.154-2.137
	c0.318-0.595,0.625-1.194,0.943-1.788c0.339-0.634,0.687-1.263,1.028-1.895c0.4-0.741,0.796-1.483,1.195-2.225
	c0.202-0.377,0.404-0.755,0.61-1.129c0.031-0.057,0.039-0.155,0.137-0.137c0.085,0.016,0.096,0.104,0.113,0.17
	c0.219,0.846,0.5,1.67,0.927,2.435c0.48,0.858,1.077,1.617,1.995,2.055c0.183,0.088,0.377,0.149,0.586,0.14
	c0.068,0.033,0.146,0,0.215,0.028c0.438,0.032,0.853-0.116,1.281-0.159C21.229,39.083,21.306,39.118,21.374,39.084z"></path>
    
  </symbol>
	<symbol id="no-minimum-qty" xmlns="http://www.w3.org/2000/svg"
		xmlns:xlink="http://www.w3.org/1999/xlink" x="0px" y="0px" enable-background="new 0 0 60 60"
		xml:space="preserve" viewBox="0 0 60 60">
      <g>
        <path fill-rule="evenodd" clip-rule="evenodd" d="M29.971,5.96c12.558-0.179,24.077,10.093,24.103,24.086
			C54.1,43.364,43.266,54.165,29.939,54.159C16.625,54.154,5.805,43.335,5.848,30.005C5.892,16.021,17.419,5.769,29.971,5.96z"></path>
        <path fill-rule="evenodd" clip-rule="evenodd" fill="var(--reverse-color,#fff)" d="M10.04,30.05c0.003-9.648,6.877-17.961,16.392-19.663
			c6.406-1.146,12.09,0.523,17.012,4.783c0.223,0.193,0.219,0.197,0.002,0.396C34.714,23.537,25.982,31.509,17.25,39.48
			c-0.965,0.881-1.933,1.758-2.892,2.646c-0.145,0.135-0.204,0.103-0.307-0.037c-2.057-2.768-3.337-5.854-3.819-9.27
			C10.103,31.9,10.04,30.977,10.04,30.05z"></path>
        <path fill-rule="evenodd" clip-rule="evenodd" fill="var(--reverse-color,#fff)" d="M50.08,30.064c-0.001,9.652-6.87,17.957-16.39,19.669
			c-6.219,1.119-11.783-0.442-16.657-4.464c-0.153-0.127-0.113-0.182,0.006-0.29c3.103-2.84,6.203-5.684,9.303-8.526
			c4.432-4.063,8.864-8.126,13.296-12.19c2.142-1.964,4.284-3.928,6.423-5.896c0.123-0.112,0.174-0.116,0.275,0.027
			c2.039,2.878,3.257,6.066,3.633,9.575C50.044,28.665,50.082,29.363,50.08,30.064z"></path>
      </g>
  </symbol>
</svg>